<?xml version="1.0" encoding="UTF-8"?>
<svg version="1.1" xmlns="http://www.w3.org/2000/svg" width="1024" height="1024">
<path d="M0 0 C1.77007714 -0.08114106 3.54122098 -0.13925505 5.3125 -0.1875 C6.29863281 -0.22230469 7.28476562 -0.25710938 8.30078125 -0.29296875 C11 0 11 0 12.53613281 1.17089844 C14.4061621 3.5074994 15.1657459 5.72234038 16.12109375 8.55859375 C16.49943359 9.66783203 16.87777344 10.77707031 17.26757812 11.91992188 C17.65365234 13.08072266 18.03972656 14.24152344 18.4375 15.4375 C18.81970703 16.56349609 19.20191406 17.68949219 19.59570312 18.84960938 C20.36044428 21.10747841 21.12008054 23.36708314 21.87451172 25.62841797 C22.6347506 27.90583638 23.40219083 30.18086166 24.17626953 32.45361328 C24.54220215 33.53239746 24.90813477 34.61118164 25.28515625 35.72265625 C25.7802771 37.17490601 25.7802771 37.17490601 26.28540039 38.65649414 C27 41 27 41 27 43 C27.66 43 28.32 43 29 43 C29.24762085 42.02099731 29.24762085 42.02099731 29.50024414 41.0222168 C31.39680652 33.7750283 33.77873009 26.81229992 36.4375 19.8125 C36.81970703 18.78447266 37.20191406 17.75644531 37.59570312 16.69726562 C39.76520184 10.94017482 42.13676032 5.44602535 45 0 C46.7687398 -0.13513292 48.54043055 -0.23205586 50.3125 -0.3125 C51.29863281 -0.37050781 52.28476562 -0.42851562 53.30078125 -0.48828125 C56 0 56 0 57.47485352 2.01220703 C59.34775204 5.68125332 60.73611177 9.41159989 62.1015625 13.29296875 C62.38349457 14.08020828 62.66542664 14.86744781 62.9559021 15.67854309 C63.85063737 18.17976519 64.73808929 20.68349394 65.625 23.1875 C66.52047106 25.70168872 67.41743594 28.2153359 68.31552124 30.72859192 C68.87271636 32.28936949 69.42813293 33.85078337 69.9815979 35.41288757 C71.33632789 39.27043163 71.33632789 39.27043163 73 43 C73.25652344 42.20722656 73.51304687 41.41445313 73.77734375 40.59765625 C76.61989083 31.93602289 79.6208301 23.33482648 82.6875 14.75 C83.07993896 13.64277588 83.47237793 12.53555176 83.87670898 11.39477539 C84.25126221 10.35184326 84.62581543 9.30891113 85.01171875 8.234375 C85.34647217 7.29819336 85.68122559 6.36201172 86.02612305 5.39746094 C87 3 87 3 89 0 C91.8203125 -0.29296875 91.8203125 -0.29296875 95.125 -0.1875 C96.76855469 -0.14689453 96.76855469 -0.14689453 98.4453125 -0.10546875 C99.70988281 -0.05326172 99.70988281 -0.05326172 101 0 C102.26630534 3.79891601 101.51195843 5.06127377 100.15625 8.78515625 C99.73754639 9.94716553 99.31884277 11.1091748 98.88745117 12.30639648 C98.42532389 13.5585626 97.96283276 14.81059448 97.5 16.0625 C97.03499847 17.33971969 96.57056414 18.61714601 96.10668945 19.89477539 C92.78683602 29.00476261 89.33716083 38.061983 85.75830078 47.07324219 C84.10969454 51.26216699 82.5334122 55.47926101 80.9453125 59.69140625 C80 62 80 62 79 63 C76.85692104 63.12537741 74.70921114 63.17574364 72.5625 63.1875 C70.80099609 63.20876953 70.80099609 63.20876953 69.00390625 63.23046875 C66 63 66 63 64 61 C63.22558594 59.11499023 63.22558594 59.11499023 62.484375 56.80859375 C62.20537354 55.95354248 61.92637207 55.09849121 61.63891602 54.2175293 C61.34557373 53.30011963 61.05223145 52.38270996 60.75 51.4375 C60.1301839 49.53604139 59.50906914 47.63500565 58.88671875 45.734375 C58.57395996 44.77724609 58.26120117 43.82011719 57.93896484 42.83398438 C56.5356979 38.59864307 55.0574366 34.39121448 53.5625 30.1875 C53.3037207 29.45909912 53.04494141 28.73069824 52.77832031 27.98022461 C52.18713169 26.31958469 51.59383587 24.65969512 51 23 C48.90035559 25.09964441 48.4394848 26.18479489 47.51953125 28.9375 C47.24568604 29.74219727 46.97184082 30.54689453 46.68969727 31.37597656 C46.25548462 32.67486816 46.25548462 32.67486816 45.8125 34 C42.47512471 43.77775211 38.81457212 53.39980027 35 63 C30.38 63 25.76 63 21 63 C14.19436903 47.93585055 8.40516071 32.44725814 2.875 16.875 C2.4725708 15.76713135 2.0701416 14.6592627 1.65551758 13.51782227 C1.29224365 12.47811279 0.92896973 11.43840332 0.5546875 10.3671875 C0.22968262 9.45050293 -0.09532227 8.53381836 -0.43017578 7.58935547 C-1.06490848 4.70504742 -0.77898397 2.82357802 0 0 Z " fill="#2894B6" transform="translate(704,483)"/>
<path d="M0 0 C7.15566739 6.76155146 9.84512623 14.74136043 10.3671875 24.50390625 C10.37366559 26.10723366 10.31964466 27.7106728 10.25 29.3125 C4.95204904 31.49046277 0.31823785 31.57484785 -5.3046875 31.5078125 C-6.20623566 31.5049826 -7.10778381 31.50215271 -8.03665161 31.49923706 C-10.89957276 31.48809439 -13.76217434 31.4630008 -16.625 31.4375 C-18.57291213 31.42746255 -20.52082919 31.41833804 -22.46875 31.41015625 C-27.2292887 31.38817443 -31.98959027 31.3536855 -36.75 31.3125 C-35.38195455 35.70464593 -34.44741296 38.43673436 -30.75 41.3125 C-25.18212591 44.09643704 -18.82923104 43.99062945 -12.75 43.3125 C-10.46306732 42.49468103 -8.53603972 41.55001115 -6.46875 40.28515625 C-4.49884641 39.1703699 -3.0094661 38.54776857 -0.75 38.3125 C1.79623151 39.83451704 3.57737457 41.87702175 5.25 44.3125 C5.5625 46.875 5.5625 46.875 4.25 49.3125 C-4.0543363 56.73339627 -13.33041386 57.85591213 -24.19921875 57.59375 C-32.50229163 56.93608086 -39.4421761 53.77849026 -45.75 48.3125 C-52.78654029 40.05809697 -54.23739288 31.70390468 -54.05859375 21.0390625 C-53.31887678 12.10627777 -49.42397682 5.2346652 -42.75 -0.6875 C-29.90646241 -10.06948935 -12.29863195 -10.21547605 0 0 Z M-36.75 13.3125 C-37.08 15.2925 -37.41 17.2725 -37.75 19.3125 C-26.86 19.3125 -15.97 19.3125 -4.75 19.3125 C-5.74822273 14.32138633 -6.95240337 11.55958508 -10.75 8.3125 C-20.03989711 3.28281833 -30.13285741 4.69016269 -36.75 13.3125 Z " fill="#5A198F" transform="translate(270.75,489.6875)"/>
<path d="M0 0 C2.875 2.4375 2.875 2.4375 5 5 C5.70125 5.78375 6.4025 6.5675 7.125 7.375 C12.97488855 15.56484397 13 22.98693147 13 33 C-2.18 33.33 -17.36 33.66 -33 34 C-31.91012017 39.44939914 -31.15174743 40.586341 -27 44 C-21.70638523 46.64680738 -15.79399704 46.6995593 -10 46 C-7.15707144 44.93870403 -4.62429362 43.51077454 -2 42 C0.625 40.875 0.625 40.875 3 41 C5.43696701 42.66829751 7.47896435 44.45541028 9 47 C8.86262088 49.72116339 8.27852542 50.72798219 6.328125 52.6328125 C-3.53608341 59.71575914 -13.16118306 61.20194971 -25.23828125 59.7265625 C-32.87614055 58.10409139 -39.93656428 54.21344127 -44.71484375 47.984375 C-50.81257737 38.56902947 -51.68826011 27.92427091 -49.375 17.06640625 C-46.63872072 9.23624993 -41.15507358 2.34069115 -33.75 -1.5 C-23.57819578 -6.03948288 -9.57749094 -5.81827852 0 0 Z M-30.875 13.3125 C-33.27596651 16.34901647 -33.51155447 18.23273393 -34 22 C-29.62539593 22.19762348 -25.25031325 22.38131371 -20.875 22.5625 C-19.01875 22.64661133 -19.01875 22.64661133 -17.125 22.73242188 C-15.92617188 22.78076172 -14.72734375 22.82910156 -13.4921875 22.87890625 C-12.39245605 22.9260376 -11.29272461 22.97316895 -10.15966797 23.02172852 C-6.99584735 22.99997144 -4.10041957 22.60660383 -1 22 C-2.63911089 16.1265193 -4.890116 12.40658933 -10 9 C-18.51478834 7.19670884 -24.0339322 7.80990199 -30.875 13.3125 Z " fill="#50339A" transform="translate(402,487)"/>
<path d="M0 0 C5.86732011 4.67212527 9.43679915 10.41195996 11.796875 17.4921875 C12.53515168 28.83260138 12.24489927 37.95097533 5.671875 47.6171875 C5.053125 48.2359375 4.434375 48.8546875 3.796875 49.4921875 C3.136875 49.4921875 2.476875 49.4921875 1.796875 49.4921875 C1.796875 50.1521875 1.796875 50.8121875 1.796875 51.4921875 C-8.78028048 57.77612114 -18.4439283 60.22037858 -30.828125 58.02734375 C-40.64633735 55.14665297 -47.17452523 48.34840824 -52.23828125 39.73046875 C-55.62954019 32.45897866 -55.36869589 23.10665275 -53.44140625 15.4765625 C-51.72471692 10.94395985 -49.66677582 6.95583832 -46.203125 3.4921875 C-45.543125 3.4921875 -44.883125 3.4921875 -44.203125 3.4921875 C-44.203125 2.8321875 -44.203125 2.1721875 -44.203125 1.4921875 C-42.19140625 0.01953125 -42.19140625 0.01953125 -39.515625 -1.5703125 C-38.64550781 -2.09753906 -37.77539062 -2.62476563 -36.87890625 -3.16796875 C-25.91038185 -8.66023717 -9.86469981 -6.75137256 0 0 Z M-35.015625 13.4921875 C-39.40669218 19.51422249 -38.88825781 26.29829296 -38.203125 33.4921875 C-36.59021529 38.42889713 -33.86909654 41.43053711 -29.390625 43.9921875 C-23.8279391 46.34482721 -19.32585415 46.13979978 -13.515625 44.3671875 C-8.78911576 41.69180491 -6.17949654 38.58441224 -3.890625 33.6796875 C-2.36834961 26.62186523 -2.61506205 20.92595555 -6.203125 14.4921875 C-9.86224339 10.15902098 -12.82879132 7.80923899 -18.53125 7.2734375 C-25.50098962 7.02302769 -30.28526661 8.0899032 -35.015625 13.4921875 Z " fill="#386DAD" transform="translate(686.203125,488.5078125)"/>
<path d="M0 0 C5.21222359 4.66730931 8.49671373 10.37905237 9.26298523 17.41461182 C9.34474962 20.08349155 9.33784482 22.73651036 9.29296875 25.40625 C9.28872391 26.3715564 9.28447906 27.33686279 9.28010559 28.3314209 C9.26343097 31.3879083 9.22579992 34.44371485 9.1875 37.5 C9.17243866 39.58332375 9.1587528 41.66665793 9.14648438 43.75 C9.11356424 48.83359215 9.06186016 53.91668099 9 59 C6.68756208 59.02685412 4.3750373 59.04632841 2.0625 59.0625 C0.77472656 59.07410156 -0.51304687 59.08570313 -1.83984375 59.09765625 C-5 59 -5 59 -6 58 C-6.13565667 55.27198447 -6.21065558 52.56578794 -6.24609375 49.8359375 C-6.27905821 48.13931826 -6.31226938 46.4427038 -6.34570312 44.74609375 C-6.39294215 42.06693122 -6.43731155 39.38778433 -6.47680664 36.70849609 C-6.51678042 34.12575884 -6.56829096 31.54344002 -6.62109375 28.9609375 C-6.6295079 28.16899994 -6.63792206 27.37706238 -6.64659119 26.56112671 C-6.75331719 21.70624015 -7.29051926 17.56721367 -9 13 C-11.41499457 11.53335352 -11.41499457 11.53335352 -14 11 C-14.66 10.67 -15.32 10.34 -16 10 C-21.83238322 9.39343214 -25.86256008 9.99271809 -31 13 C-31.66 13 -32.32 13 -33 13 C-33.309375 13.78375 -33.61875 14.5675 -33.9375 15.375 C-35 18 -35 18 -36 20 C-36.14495126 22.83047223 -36.2342288 25.64023942 -36.28125 28.47265625 C-36.29965942 29.31090439 -36.31806885 30.14915253 -36.33703613 31.01280212 C-36.41587464 34.60809322 -36.48360156 38.20357436 -36.55224609 41.79907227 C-36.60384578 44.41953162 -36.66113706 47.03982336 -36.71875 49.66015625 C-36.73232544 50.47992447 -36.74590088 51.29969269 -36.7598877 52.14430237 C-36.88717394 57.88717394 -36.88717394 57.88717394 -38 59 C-40.16480797 59.0989294 -42.33293785 59.129711 -44.5 59.125 C-45.6859375 59.12757813 -46.871875 59.13015625 -48.09375 59.1328125 C-51 59 -51 59 -52 58 C-52.09391296 56.09756238 -52.11743658 54.19161541 -52.11352539 52.28686523 C-52.11344986 51.0656749 -52.11337433 49.84448456 -52.11329651 48.58628845 C-52.10818911 47.24372314 -52.10297311 45.90115825 -52.09765625 44.55859375 C-52.09579199 43.19238842 -52.09436813 41.82618243 -52.09336853 40.4599762 C-52.08954394 36.85798305 -52.07971417 33.25603 -52.06866455 29.65405273 C-52.05844916 25.98096255 -52.05387064 22.30786591 -52.04882812 18.63476562 C-52.03809184 11.42315877 -52.02101614 4.211585 -52 -3 C-49.63386544 -4.18306728 -48.13219264 -4.13354608 -45.5 -4.125 C-44.30890625 -4.12886719 -44.30890625 -4.12886719 -43.09375 -4.1328125 C-41 -4 -41 -4 -39 -3 C-38.375 -0.4375 -38.375 -0.4375 -38 2 C-37.46632813 1.66226562 -36.93265625 1.32453125 -36.3828125 0.9765625 C-25.32010115 -5.6457526 -11.105905 -8.03716809 0 0 Z " fill="#493B9A" transform="translate(481,487)"/>
<path d="M0 0 C-0.30921884 1.45903258 -0.62248799 2.91720722 -0.9375 4.375 C-1.11152344 5.18710937 -1.28554688 5.99921875 -1.46484375 6.8359375 C-2 9 -2 9 -3 11 C-3.89203125 10.89300781 -4.7840625 10.78601563 -5.703125 10.67578125 C-6.87359375 10.55589844 -8.0440625 10.43601562 -9.25 10.3125 C-10.99023438 10.12107422 -10.99023438 10.12107422 -12.765625 9.92578125 C-15.96015957 9.76901304 -15.96015957 9.76901304 -18.375 11.1875 C-20.38258145 13.42672547 -20.5776232 14.71400017 -20.75 17.6875 C-20.80671875 18.49574219 -20.8634375 19.30398438 -20.921875 20.13671875 C-20.94765625 20.75160156 -20.9734375 21.36648438 -21 22 C-19.78441406 21.98839844 -18.56882812 21.97679687 -17.31640625 21.96484375 C-15.73177236 21.95546722 -14.14713682 21.94636687 -12.5625 21.9375 C-11.76005859 21.92912109 -10.95761719 21.92074219 -10.13085938 21.91210938 C-8.08704779 21.9034857 -6.04316098 21.9477185 -4 22 C-3 23 -3 23 -2.8671875 25.25 C-2.86976563 26.1575 -2.87234375 27.065 -2.875 28 C-2.87113281 29.36125 -2.87113281 29.36125 -2.8671875 30.75 C-3 33 -3 33 -4 34 C-6.86267567 34.07325168 -9.700719 34.09238205 -12.5625 34.0625 C-13.36880859 34.05798828 -14.17511719 34.05347656 -15.00585938 34.04882812 C-17.00393756 34.03700518 -19.00197783 34.01906914 -21 34 C-20.99777939 34.6241832 -20.99555878 35.24836639 -20.99327087 35.89146423 C-20.9712192 42.36342804 -20.9560939 48.83538125 -20.94506836 55.30737305 C-20.94002651 57.72567172 -20.93319322 60.14396733 -20.92456055 62.56225586 C-20.91248843 66.02979283 -20.90677037 69.49728966 -20.90234375 72.96484375 C-20.89718246 74.05337143 -20.89202118 75.14189911 -20.88670349 76.26341248 C-20.88659019 77.76485558 -20.88659019 77.76485558 -20.88647461 79.29663086 C-20.884254 80.18265488 -20.88203339 81.06867889 -20.87974548 81.98155212 C-21 84 -21 84 -22 85 C-24.16480797 85.0989294 -26.33293785 85.129711 -28.5 85.125 C-29.6859375 85.12757813 -30.871875 85.13015625 -32.09375 85.1328125 C-35 85 -35 85 -36 84 C-36.09326716 82.43452952 -36.11745582 80.86487228 -36.11352539 79.29663086 C-36.11344986 78.29566879 -36.11337433 77.29470673 -36.11329651 76.26341248 C-36.10813522 75.1748848 -36.10297394 74.08635712 -36.09765625 72.96484375 C-36.0962413 71.85645645 -36.09482635 70.74806915 -36.09336853 69.60609436 C-36.08775033 66.04986931 -36.07519475 62.49370617 -36.0625 58.9375 C-36.05748734 56.53320403 -36.05292403 54.12890708 -36.04882812 51.72460938 C-36.03777499 45.81638496 -36.02101917 39.9081969 -36 34 C-36.63808594 34.01160156 -37.27617188 34.02320313 -37.93359375 34.03515625 C-38.75988281 34.04417969 -39.58617187 34.05320312 -40.4375 34.0625 C-41.26121094 34.07410156 -42.08492187 34.08570313 -42.93359375 34.09765625 C-45 34 -45 34 -46 33 C-46.09823937 31.33570949 -46.12973631 29.66718069 -46.125 28 C-46.12757813 27.0925 -46.13015625 26.185 -46.1328125 25.25 C-46 23 -46 23 -45 22 C-43.48071962 21.92820036 -41.95832518 21.91607993 -40.4375 21.9375 C-39.61121094 21.94652344 -38.78492188 21.95554687 -37.93359375 21.96484375 C-36.97646484 21.98224609 -36.97646484 21.98224609 -36 22 C-36.02320313 21.41992188 -36.04640625 20.83984375 -36.0703125 20.2421875 C-36.24699874 12.59419722 -34.90613691 7.09952156 -30 1 C-22.03050323 -5.24475493 -8.17965667 -6.48731391 0 0 Z " fill="#3D5CA5" transform="translate(597,461)"/>
<path d="M0 0 C1.16273438 -0.03738281 2.32546875 -0.07476562 3.5234375 -0.11328125 C6.625 0.3125 6.625 0.3125 8.09765625 1.84716797 C10.1409023 5.1452336 11.6523788 8.62156206 13.1640625 12.18359375 C13.49038666 12.94293716 13.81671082 13.70228058 14.15292358 14.4846344 C14.83962572 16.0863601 15.52362252 17.68924802 16.20507812 19.29321289 C17.24623789 21.74115464 18.29824918 24.18422021 19.3515625 26.62695312 C20.01888497 28.18721968 20.68557301 29.74775776 21.3515625 31.30859375 C21.66509674 32.03582138 21.97863098 32.76304901 22.30166626 33.51231384 C23.81245541 37.08679038 25.05659325 40.46471512 25.625 44.3125 C26.285 44.3125 26.945 44.3125 27.625 44.3125 C27.75318115 43.58522705 27.8813623 42.8579541 28.01342773 42.10864258 C29.01513618 37.52877558 30.90399446 33.32404128 32.6875 29 C33.08582031 28.02973877 33.48414063 27.05947754 33.89453125 26.05981445 C43.17314 3.76436 43.17314 3.76436 46.625 0.3125 C48.64464199 0.24005947 50.66667124 0.22872812 52.6875 0.25 C54.34458984 0.26353516 54.34458984 0.26353516 56.03515625 0.27734375 C56.88980469 0.28894531 57.74445313 0.30054688 58.625 0.3125 C59.71637272 3.55897126 59.57812474 5.20939348 58.21875 8.33203125 C57.89092529 9.09862061 57.56310059 9.86520996 57.2253418 10.6550293 C56.862229 11.47011963 56.49911621 12.28520996 56.125 13.125 C55.56969604 14.40467651 55.56969604 14.40467651 55.00317383 15.71020508 C52.31255772 21.87113393 49.50911833 27.97627364 46.62890625 34.05078125 C44.98037331 37.53409757 43.37565561 41.03633443 41.77734375 44.54296875 C41.02868042 46.18519409 41.02868042 46.18519409 40.26489258 47.8605957 C39.26447634 50.05764196 38.26558529 52.25538341 37.26831055 54.45385742 C36.81109619 55.45650635 36.35388184 56.45915527 35.8828125 57.4921875 C35.26623779 58.84932861 35.26623779 58.84932861 34.63720703 60.23388672 C33.625 62.3125 33.625 62.3125 32.625 63.3125 C30.5284732 63.54349807 28.42029466 63.67262823 26.3125 63.75 C25.16136719 63.81058594 24.01023437 63.87117187 22.82421875 63.93359375 C19.625 63.3125 19.625 63.3125 17.453125 60.84765625 C15.32671461 56.73568744 13.45556933 52.58891441 11.6875 48.3125 C10.90866205 46.45786682 10.12863808 44.60373142 9.34765625 42.75 C8.9211377 41.73550781 8.49461914 40.72101562 8.05517578 39.67578125 C6.4572534 35.91801773 4.82434224 32.17670438 3.18359375 28.4375 C2.58906857 27.0794458 1.99458617 25.72137287 1.40014648 24.36328125 C0.51686792 22.34574349 -0.36777601 20.32886801 -1.25704956 18.31396484 C-2.0925669 16.41959421 -2.92184635 14.52259901 -3.75 12.625 C-4.47316406 10.97951172 -4.47316406 10.97951172 -5.2109375 9.30078125 C-6.26212778 6.60225587 -7.01304855 4.18225794 -7.375 1.3125 C-5.500965 -0.561535 -2.50862936 0.05260922 0 0 Z " fill="#582594" transform="translate(290.375,482.6875)"/>
<path d="M0 0 C1.1859375 0.00257813 2.371875 0.00515625 3.59375 0.0078125 C4.7796875 0.00523437 5.965625 0.00265625 7.1875 0 C10.09375 0.1328125 10.09375 0.1328125 11.09375 1.1328125 C11.16688567 3.66330652 11.18622527 6.16586087 11.15625 8.6953125 C11.15173828 9.40623047 11.14722656 10.11714844 11.14257812 10.84960938 C11.13075864 12.61071263 11.11282263 14.37177286 11.09375 16.1328125 C12.23714844 16.12121094 13.38054688 16.10960937 14.55859375 16.09765625 C16.04947754 16.08827962 17.54036309 16.07917929 19.03125 16.0703125 C20.16336914 16.05774414 20.16336914 16.05774414 21.31835938 16.04492188 C23.24369313 16.03628809 25.16910581 16.08056917 27.09375 16.1328125 C28.09375 17.1328125 28.09375 17.1328125 28.2265625 19.3828125 C28.22398437 20.2903125 28.22140625 21.1978125 28.21875 22.1328125 C28.22261719 23.4940625 28.22261719 23.4940625 28.2265625 24.8828125 C28.09375 27.1328125 28.09375 27.1328125 27.09375 28.1328125 C24.39720146 28.20600871 21.72683542 28.22523787 19.03125 28.1953125 C18.27263672 28.19080078 17.51402344 28.18628906 16.73242188 28.18164062 C14.85283129 28.1698193 12.97328101 28.15188328 11.09375 28.1328125 C11.16257757 33.06292003 11.25051828 37.99217537 11.35620117 42.92163086 C11.38945863 44.59861809 11.41748808 46.27571747 11.44018555 47.95288086 C11.47371737 50.36360475 11.52602978 52.77330012 11.58203125 55.18359375 C11.58842117 55.93369217 11.5948111 56.68379059 11.60139465 57.45661926 C11.71277074 61.51424344 11.71277074 61.51424344 13.41479492 65.11401367 C17.4222748 67.54577367 22.75973698 66.18348232 27.09375 65.1328125 C31.07350352 71.40393926 31.07350352 71.40393926 31.15625 74.3828125 C29.20746164 77.59258156 26.2843192 78.77885949 22.78125 79.8203125 C15.69630691 80.64414309 9.54005191 80.42977607 3.09375 77.1328125 C-0.43670281 74.15077954 -2.54414719 70.51390438 -3.90625 66.1328125 C-4.07210708 63.23709051 -4.13966501 60.44291048 -4.1015625 57.55078125 C-4.0987326 56.73660233 -4.09590271 55.9224234 -4.09298706 55.08357239 C-4.08183584 52.4956665 -4.05674083 49.90811292 -4.03125 47.3203125 C-4.02121365 45.56055189 -4.01208894 43.80078583 -4.00390625 42.04101562 C-3.9819131 37.73814652 -3.94741836 33.43553914 -3.90625 29.1328125 C-5.185 29.1534375 -6.46375 29.1740625 -7.78125 29.1953125 C-11.65625 29.2578125 -11.65625 29.2578125 -13.90625 28.1328125 C-13.93312279 26.32039198 -13.95258715 24.50786017 -13.96875 22.6953125 C-13.98035156 21.68597656 -13.99195313 20.67664063 -14.00390625 19.63671875 C-13.90625 17.1328125 -13.90625 17.1328125 -12.90625 16.1328125 C-11.38696962 16.06101286 -9.86457518 16.04889243 -8.34375 16.0703125 C-7.51746094 16.07933594 -6.69117188 16.08835937 -5.83984375 16.09765625 C-5.20175781 16.10925781 -4.56367188 16.12085938 -3.90625 16.1328125 C-3.91785156 15.06160156 -3.92945313 13.99039062 -3.94140625 12.88671875 C-3.95078299 11.48958507 -3.95988331 10.09244951 -3.96875 8.6953125 C-3.98131836 7.63473633 -3.98131836 7.63473633 -3.99414062 6.55273438 C-4.00278588 4.74587691 -3.95845011 2.93893647 -3.90625 1.1328125 C-2.90625 0.1328125 -2.90625 0.1328125 0 0 Z " fill="#E41A75" transform="translate(514.90625,466.8671875)"/>
<path d="M0 0 C1.93166016 0.01740234 1.93166016 0.01740234 3.90234375 0.03515625 C5.19269531 0.04417969 6.48304688 0.05320312 7.8125 0.0625 C8.81152344 0.07410156 9.81054688 0.08570313 10.83984375 0.09765625 C10.86296644 11.29338869 10.88075846 22.48911549 10.89165592 33.68486691 C10.89688491 38.8829374 10.90398285 44.08099161 10.9152832 49.27905273 C10.92611151 54.29107893 10.93212046 59.30308943 10.93472099 64.31512642 C10.93657534 66.23177907 10.94019615 68.14843082 10.94557381 70.06507683 C10.9527835 72.73993697 10.95383472 75.41473139 10.95336914 78.08959961 C10.95696442 78.89016785 10.96055969 79.69073608 10.96426392 80.51556396 C10.95389591 85.98360409 10.95389591 85.98360409 9.83984375 87.09765625 C7.67503578 87.19658565 5.5069059 87.22736725 3.33984375 87.22265625 C2.15390625 87.22523438 0.96796875 87.2278125 -0.25390625 87.23046875 C-3.16015625 87.09765625 -3.16015625 87.09765625 -4.16015625 86.09765625 C-4.26058896 83.45565564 -4.29632475 80.83977035 -4.28955078 78.19726562 C-4.2913031 77.36967239 -4.29305542 76.54207916 -4.29486084 75.68940735 C-4.29928018 72.94005263 -4.29634108 70.19076168 -4.29296875 67.44140625 C-4.29364177 65.53950996 -4.29461177 63.63761376 -4.29586792 61.73571777 C-4.297345 57.7442137 -4.29519 53.75273196 -4.29052734 49.76123047 C-4.28483005 44.63275118 -4.288109 39.50432423 -4.29409981 34.37584686 C-4.29770514 30.44691571 -4.29656697 26.51799707 -4.29397202 22.58906555 C-4.29330267 20.69753513 -4.29413144 18.8060036 -4.29645157 16.91447449 C-4.29897763 14.27563448 -4.29513816 11.63688044 -4.28955078 8.99804688 C-4.29157501 8.20840042 -4.29359924 7.41875397 -4.29568481 6.60517883 C-4.27016039 0.13195798 -4.27016039 0.13195798 0 0 Z " fill="#3967A8" transform="translate(608.16015625,458.90234375)"/>
<path d="M0 0 C4.62 0 9.24 0 14 0 C14 0.33 14 0.66 14 1 C10.7 1.33 7.4 1.66 4 2 C3.23949341 5.38422838 2.87387549 8.50997177 2.87060547 11.97607422 C2.86745331 12.94253876 2.86430115 13.9090033 2.86105347 14.90475464 C2.8630777 15.94423248 2.86510193 16.98371033 2.8671875 18.0546875 C2.86575241 19.69354416 2.86575241 19.69354416 2.86428833 21.36550903 C2.86360771 23.68719541 2.8654538 26.00888369 2.86962891 28.33056641 C2.87488612 31.79985123 2.8697288 35.26900096 2.86328125 38.73828125 C2.85940844 53.18465393 3.24163463 67.57378304 4 82 C6.97 82.66 9.94 83.32 13 84 C13 60.9 13 37.8 13 14 C13.33 14 13.66 14 14 14 C15.09626282 59.69025184 15.09626282 59.69025184 15.125 75.3125 C15.12951172 76.31659912 15.13402344 77.32069824 15.13867188 78.35522461 C15.12449864 84.87550136 15.12449864 84.87550136 14 86 C11.83519203 86.0989294 9.66706215 86.129711 7.5 86.125 C6.3140625 86.12757813 5.128125 86.13015625 3.90625 86.1328125 C1 86 1 86 0 85 C-0.09511266 82.35261911 -0.12555635 79.73140999 -0.11352539 77.08374023 C-0.11367142 76.25454071 -0.11381744 75.42534119 -0.1139679 74.5710144 C-0.11326851 71.81684802 -0.10547493 69.06274839 -0.09765625 66.30859375 C-0.09579216 64.40430234 -0.09436822 62.50001045 -0.09336853 60.59571838 C-0.08954263 55.57332037 -0.07971173 50.55095108 -0.06866455 45.52856445 C-0.05845198 40.4077188 -0.05387124 35.28686852 -0.04882812 30.16601562 C-0.03808953 20.11066443 -0.02101224 10.0553346 0 0 Z " fill="#355CA4" transform="translate(604,460)"/>
<path d="M0 0 C0.33 0 0.66 0 1 0 C1.02689216 1.47906892 1.04634621 2.95827483 1.0625 4.4375 C1.07410156 5.26121094 1.08570313 6.08492188 1.09765625 6.93359375 C1 9 1 9 0 10 C-1.51928038 10.07179964 -3.04167482 10.08392007 -4.5625 10.0625 C-5.38878906 10.05347656 -6.21507812 10.04445313 -7.06640625 10.03515625 C-7.70449219 10.02355469 -8.34257813 10.01195312 -9 10 C-9 12.64 -9 15.28 -9 18 C-8.36191406 17.98839844 -7.72382812 17.97679687 -7.06640625 17.96484375 C-5.82697266 17.95130859 -5.82697266 17.95130859 -4.5625 17.9375 C-3.73878906 17.92589844 -2.91507813 17.91429687 -2.06640625 17.90234375 C0 18 0 18 1 19 C1.1224331 20.50316769 1.17776285 22.01188167 1.20532227 23.51977539 C1.22526749 24.48069595 1.24521271 25.44161652 1.26576233 26.43165588 C1.28247482 27.476436 1.29918732 28.52121613 1.31640625 29.59765625 C1.33718735 30.66165146 1.35796844 31.72564667 1.37937927 32.82188416 C1.44499254 36.2353544 1.50381423 39.64890429 1.5625 43.0625 C1.60567403 45.37045109 1.64928794 47.678394 1.69335938 49.98632812 C1.80068589 55.65746955 1.90191976 61.32869143 2 67 C5.3 67.66 8.6 68.32 12 69 C12 52.5 12 36 12 19 C12.33 19 12.66 19 13 19 C13 36.16 13 53.32 13 71 C8.71 71 4.42 71 0 71 C-1 70 -1 70 -1.12025452 67.98155212 C-1.11803391 67.09552811 -1.11581329 66.20950409 -1.11352539 65.29663086 C-1.11344986 64.29566879 -1.11337433 63.29470673 -1.11329651 62.26341248 C-1.10813522 61.1748848 -1.10297394 60.08635712 -1.09765625 58.96484375 C-1.0962413 57.85645645 -1.09482635 56.74806915 -1.09336853 55.60609436 C-1.08775033 52.04986931 -1.07519475 48.49370617 -1.0625 44.9375 C-1.05748734 42.53320403 -1.05292403 40.12890708 -1.04882812 37.72460938 C-1.03777499 31.81638496 -1.02101917 25.9081969 -1 20 C-1.63808594 20.01160156 -2.27617188 20.02320313 -2.93359375 20.03515625 C-4.17302734 20.04869141 -4.17302734 20.04869141 -5.4375 20.0625 C-6.67306641 20.07990234 -6.67306641 20.07990234 -7.93359375 20.09765625 C-10 20 -10 20 -11 19 C-11.09823937 17.33570949 -11.12973631 15.66718069 -11.125 14 C-11.12757813 13.0925 -11.13015625 12.185 -11.1328125 11.25 C-11 9 -11 9 -10 8 C-8.31391034 7.92794489 -6.62499341 7.91613932 -4.9375 7.9375 C-4.01839844 7.94652344 -3.09929688 7.95554687 -2.15234375 7.96484375 C-1.44207031 7.97644531 -0.73179687 7.98804688 0 8 C0 5.36 0 2.72 0 0 Z " fill="#384B9F" transform="translate(562,475)"/>
<path d="M0 0 C0.33 0 0.66 0 1 0 C1 19.47 1 38.94 1 59 C4.63 59 8.26 59 12 59 C11.98428955 57.77369873 11.9685791 56.54739746 11.95239258 55.28393555 C11.89813389 50.73859208 11.86366471 46.1932773 11.83520508 41.64770508 C11.82010918 39.67955717 11.79963052 37.71144294 11.77368164 35.7434082 C11.73733351 32.91609388 11.72028186 30.0892239 11.70703125 27.26171875 C11.69154739 26.38037766 11.67606354 25.49903656 11.66011047 24.59098816 C11.65988388 23.77036392 11.65965729 22.94973969 11.65942383 22.10424805 C11.64943108 21.02169991 11.64943108 21.02169991 11.63923645 19.9172821 C12.10670726 17.43290301 13.02605071 16.5305568 15 15 C15.66 15 16.32 15 17 15 C16.125 19.75 16.125 19.75 15 22 C14.85504874 24.83047223 14.7657712 27.64023942 14.71875 30.47265625 C14.70034058 31.31090439 14.68193115 32.14915253 14.66296387 33.01280212 C14.58412536 36.60809322 14.51639844 40.20357436 14.44775391 43.79907227 C14.39615422 46.41953162 14.33886294 49.03982336 14.28125 51.66015625 C14.26767456 52.47992447 14.25409912 53.29969269 14.2401123 54.14430237 C14.11282606 59.88717394 14.11282606 59.88717394 13 61 C8.71 61 4.42 61 0 61 C0 40.87 0 20.74 0 0 Z " fill="#422691" transform="translate(430,485)"/>
<path d="M0 0 C1.65322266 0.01740234 1.65322266 0.01740234 3.33984375 0.03515625 C4.99693359 0.04869141 4.99693359 0.04869141 6.6875 0.0625 C7.54214844 0.07410156 8.39679687 0.08570313 9.27734375 0.09765625 C10.57316208 3.98511123 9.69023781 5.41800747 8.29296875 9.234375 C7.85210938 10.45189453 7.41125 11.66941406 6.95703125 12.92382812 C6.48065014 14.21100465 6.00408629 15.49811355 5.52734375 16.78515625 C5.06557434 18.05243155 4.60462786 19.32000704 4.14453125 20.58789062 C1.89131045 26.77122343 -0.39916509 32.94040467 -2.72265625 39.09765625 C-3.87109375 37.57421875 -3.87109375 37.57421875 -4.72265625 35.09765625 C-4.05455971 32.41946056 -3.31928014 30.03421013 -2.34765625 27.47265625 C-0.47562904 22.89787707 -0.47562904 22.89787707 0.27734375 18.09765625 C0.93734375 18.09765625 1.59734375 18.09765625 2.27734375 18.09765625 C2.43203125 16.89109375 2.43203125 16.89109375 2.58984375 15.66015625 C3.42834748 11.31518239 4.80556034 7.26308098 6.27734375 3.09765625 C2.92301266 4.04699524 -0.4151213 4.9951446 -3.72265625 6.09765625 C-3.76537725 4.4315372 -3.76329457 2.7638274 -3.72265625 1.09765625 C-2.72265625 0.09765625 -2.72265625 0.09765625 0 0 Z " fill="#0ABBBD" transform="translate(795.72265625,482.90234375)"/>
<path d="M0 0 C0.99 0.66 1.98 1.32 3 2 C4 7 4 7 4 18 C-12.17 18 -28.34 18 -45 18 C-45.33 18.66 -45.66 19.32 -46 20 C-45.67 18.68 -45.34 17.36 -45 16 C-29.49 16 -13.98 16 2 16 C1.34 10.72 0.68 5.44 0 0 Z " fill="#422994" transform="translate(411,502)"/>
<path d="M0 0 C0.33 0 0.66 0 1 0 C1 17.16 1 34.32 1 52 C-3.29 52 -7.58 52 -12 52 C-12 39.79 -12 27.58 -12 15 C-11.67 15 -11.34 15 -11 15 C-10.67 25.89 -10.34 36.78 -10 48 C-6.7 48.66 -3.4 49.32 0 50 C0 33.5 0 17 0 0 Z " fill="#303E97" transform="translate(574,494)"/>
<path d="M0 0 C1.1859375 0.00257813 2.371875 0.00515625 3.59375 0.0078125 C4.7796875 0.00523437 5.965625 0.00265625 7.1875 0 C10.09375 0.1328125 10.09375 0.1328125 11.09375 1.1328125 C11.16688567 3.66330652 11.18622527 6.16586087 11.15625 8.6953125 C11.15173828 9.40623047 11.14722656 10.11714844 11.14257812 10.84960938 C11.13075864 12.61071263 11.11282263 14.37177286 11.09375 16.1328125 C12.23714844 16.12121094 13.38054688 16.10960937 14.55859375 16.09765625 C16.04947754 16.08827962 17.54036309 16.07917929 19.03125 16.0703125 C20.16336914 16.05774414 20.16336914 16.05774414 21.31835938 16.04492188 C23.24369313 16.03628809 25.16910581 16.08056917 27.09375 16.1328125 C28.09375 17.1328125 28.09375 17.1328125 28.19140625 19.41796875 C28.17980469 20.33449219 28.16820312 21.25101562 28.15625 22.1953125 C28.14722656 23.11441406 28.13820313 24.03351563 28.12890625 24.98046875 C28.11730469 25.69074219 28.10570312 26.40101563 28.09375 27.1328125 C26.44375 27.4628125 24.79375 27.7928125 23.09375 28.1328125 C24.08375 27.8028125 25.07375 27.4728125 26.09375 27.1328125 C25.59875 22.6778125 25.59875 22.6778125 25.09375 18.1328125 C20.14375 17.8028125 15.19375 17.4728125 10.09375 17.1328125 C9.76375 12.1828125 9.43375 7.2328125 9.09375 2.1328125 C5.13375 2.1328125 1.17375 2.1328125 -2.90625 2.1328125 C-2.90625 7.0828125 -2.90625 12.0328125 -2.90625 17.1328125 C-6.20625 17.1328125 -9.50625 17.1328125 -12.90625 17.1328125 C-12.90625 16.8028125 -12.90625 16.4728125 -12.90625 16.1328125 C-9.93625 16.1328125 -6.96625 16.1328125 -3.90625 16.1328125 C-3.91785156 15.06160156 -3.92945313 13.99039062 -3.94140625 12.88671875 C-3.95078299 11.48958507 -3.95988331 10.09244951 -3.96875 8.6953125 C-3.98131836 7.63473633 -3.98131836 7.63473633 -3.99414062 6.55273438 C-4.00278588 4.74587691 -3.95845011 2.93893647 -3.90625 1.1328125 C-2.90625 0.1328125 -2.90625 0.1328125 0 0 Z " fill="#E43287" transform="translate(514.90625,466.8671875)"/>
<path d="M0 0 C2 2 2 2 2.1875 4.5625 C2 7 2 7 1 8 C-3.36329038 8.21888186 -7.73211468 8.1857901 -12.1003418 8.18530273 C-14.29300589 8.18748064 -16.48515998 8.20560789 -18.67773438 8.22460938 C-20.07291495 8.22754499 -21.46809791 8.22952866 -22.86328125 8.23046875 C-24.77040894 8.23663208 -24.77040894 8.23663208 -26.71606445 8.24291992 C-29.77345727 8.01675786 -31.44718361 7.61912329 -34 6 C-33.67 5.34 -33.34 4.68 -33 4 C-31.82026611 4.04543945 -31.82026611 4.04543945 -30.61669922 4.09179688 C-27.03617684 4.22904231 -23.45559028 4.364538 -19.875 4.5 C-18.01875 4.57154297 -18.01875 4.57154297 -16.125 4.64453125 C-14.32675781 4.71220703 -14.32675781 4.71220703 -12.4921875 4.78125 C-11.39245605 4.82314453 -10.29272461 4.86503906 -9.15966797 4.90820312 C-6.10431671 4.99696932 -3.05643332 5.01610769 0 5 C0 3.35 0 1.7 0 0 Z " fill="#6A55B0" transform="translate(401,504)"/>
<path d="M0 0 C0.66 0 1.32 0 2 0 C1.40873284 5.54039223 -0.00520686 10.34947893 -1.9375 15.5625 C-2.46786896 17.02198248 -2.9978246 18.48161523 -3.52734375 19.94140625 C-3.78064453 20.63105469 -4.03394531 21.32070313 -4.29492188 22.03125 C-4.93221722 23.81073397 -5.51444209 25.60970589 -6.08984375 27.41015625 C-7.01363464 30.03879727 -7.8678903 31.25554661 -10 33 C-10.44051488 26.81616841 -8.93442553 22.22355679 -6.6875 16.5 C-6.37876953 15.68402344 -6.07003906 14.86804688 -5.75195312 14.02734375 C-3.94953099 9.2993059 -2.02537717 4.63655573 0 0 Z " fill="#11BBBE" transform="translate(790,490)"/>
<path d="M0 0 C0.66 0 1.32 0 2 0 C2.26554688 0.81984375 2.53109375 1.6396875 2.8046875 2.484375 C3.15789063 3.56203125 3.51109375 4.6396875 3.875 5.75 C4.22304688 6.81734375 4.57109375 7.8846875 4.9296875 8.984375 C6.01079769 12.22540801 6.01079769 12.22540801 8 16 C10.97 16 13.94 16 17 16 C18.32 13.69 19.64 11.38 21 9 C21.33 9 21.66 9 22 9 C21.125 16.75 21.125 16.75 20 19 C15.38 19 10.76 19 6 19 C5.00334248 16.77413154 4.00809902 14.54760735 3.0234375 12.31640625 C2.27537144 10.62326437 1.51596392 8.93512063 0.75 7.25 C-0.09325275 4.72024175 -0.15138947 2.64931572 0 0 Z " fill="#2064A8" transform="translate(719,527)"/>
<path d="M0 0 C2 2 2 2 2.1875 5.0625 C2 8 2 8 1 9 C-1.6662603 9.08855161 -4.30647114 9.11524673 -6.97265625 9.09765625 C-7.77029892 9.0962413 -8.56794159 9.09482635 -9.38975525 9.09336853 C-11.94737435 9.08775316 -14.50490718 9.07519812 -17.0625 9.0625 C-18.79231645 9.05748698 -20.52213426 9.05292373 -22.25195312 9.04882812 C-26.50133553 9.03777875 -30.75065312 9.02050386 -35 9 C-34.67 8.34 -34.34 7.68 -34 7 C-23.11 6.67 -12.22 6.34 -1 6 C-0.67 4.02 -0.34 2.04 0 0 Z " fill="#540F8C" transform="translate(266,503)"/>
<path d="M0 0 C1.18239258 0.00676758 1.18239258 0.00676758 2.38867188 0.01367188 C4.32164761 0.02538688 6.25458393 0.04332002 8.1875 0.0625 C8.1875 0.7225 8.1875 1.3825 8.1875 2.0625 C6.25197266 2.22685547 6.25197266 2.22685547 4.27734375 2.39453125 C2.55983937 2.55408084 0.84239442 2.71427112 -0.875 2.875 C-2.14633789 2.98038086 -2.14633789 2.98038086 -3.44335938 3.08789062 C-10.18979896 3.73909136 -15.10832274 5.25971516 -20.8125 9.0625 C-20.8125 7.7425 -20.8125 6.4225 -20.8125 5.0625 C-13.64508525 0.70583613 -8.30891649 -0.09054142 0 0 Z M-23.8125 10.0625 C-22.8225 10.5575 -22.8225 10.5575 -21.8125 11.0625 C-22.8025 11.5575 -22.8025 11.5575 -23.8125 12.0625 C-23.8125 11.4025 -23.8125 10.7425 -23.8125 10.0625 Z " fill="#246BAC" transform="translate(665.8125,482.9375)"/>
<path d="M0 0 C4.29 0 8.58 0 13 0 C13 0.33 13 0.66 13 1 C9.7 1.33 6.4 1.66 3 2 C2.2555885 5.32347716 1.87709869 8.38682544 1.88647461 11.7902832 C1.88655014 12.71086014 1.88662567 13.63143707 1.88670349 14.57991028 C1.89186478 15.5602977 1.89702606 16.54068512 1.90234375 17.55078125 C1.9037587 18.56472458 1.90517365 19.57866791 1.90663147 20.62333679 C1.91221672 23.85308821 1.92476655 27.08276962 1.9375 30.3125 C1.9425169 32.50585837 1.94707948 34.69921783 1.95117188 36.89257812 C1.96218132 42.26174253 1.9789048 47.63086626 2 53 C1.67 53 1.34 53 1 53 C-0.1989172 47.3663337 -0.1273081 41.86120261 -0.09765625 36.1328125 C-0.0962413 35.09808807 -0.09482635 34.06336365 -0.09336853 32.99728394 C-0.08779039 29.70649268 -0.07524188 26.41577054 -0.0625 23.125 C-0.05748218 20.88802182 -0.05291976 18.65104257 -0.04882812 16.4140625 C-0.03782811 10.94268188 -0.02057852 5.47135264 0 0 Z " fill="#2A5DA1" transform="translate(605,460)"/>
<path d="M0 0 C5.12691336 0.22996709 5.12691336 0.22996709 7.625 2.875 C9.12025316 7.57436709 9.12025316 7.57436709 9.5 9.625 C8.51 9.625 7.52 9.625 6.5 9.625 C6.17 7.645 5.84 5.665 5.5 3.625 C0.25225202 3.86668454 0.25225202 3.86668454 -4.375 5.9375 C-5.59781157 7.77171736 -6.59841437 9.61377051 -7.5 11.625 C-7.83 11.625 -8.16 11.625 -8.5 11.625 C-8.72399039 8.41447102 -8.5648493 5.85446675 -7.6875 2.75 C-4.96545586 0.10572855 -3.72769375 0.17727474 0 0 Z " fill="#14A5BC" transform="translate(754.5,482.375)"/>
<path d="M0 0 C0.66 0 1.32 0 2 0 C11.60656089 23.31689537 11.60656089 23.31689537 11 31 C8.54337562 28.54337562 7.97107152 26.50406674 6.8359375 23.22265625 C6.43632813 22.06958984 6.03671875 20.91652344 5.625 19.72851562 C5.2125 18.51873047 4.8 17.30894531 4.375 16.0625 C3.95476563 14.85658203 3.53453125 13.65066406 3.1015625 12.40820312 C0 3.39051086 0 3.39051086 0 0 Z " fill="#2B74AC" transform="translate(720,499)"/>
<path d="M0 0 C1.11375 0.2475 1.11375 0.2475 2.25 0.5 C9.83220972 1.5109613 17.47489639 1.36820066 25 0 C25 0.66 25 1.32 25 2 C16.83724382 5.17440518 10.43302928 6.37321171 2 3 C2 2.34 2 1.68 2 1 C1.34 0.67 0.68 0.34 0 0 Z " fill="#EC0873" transform="translate(519,542)"/>
<path d="M0 0 C1.65322266 0.01740234 1.65322266 0.01740234 3.33984375 0.03515625 C4.99693359 0.04869141 4.99693359 0.04869141 6.6875 0.0625 C7.54214844 0.07410156 8.39679687 0.08570313 9.27734375 0.09765625 C10.53275932 3.86390296 9.64796333 5.46954559 8.27734375 9.09765625 C6.27734375 6.09765625 6.27734375 6.09765625 6.27734375 3.09765625 C2.92301266 4.04699524 -0.4151213 4.9951446 -3.72265625 6.09765625 C-3.76537725 4.4315372 -3.76329457 2.7638274 -3.72265625 1.09765625 C-2.72265625 0.09765625 -2.72265625 0.09765625 0 0 Z " fill="#0AC1BF" transform="translate(795.72265625,482.90234375)"/>
<path d="M0 0 C2 2 2 2 2 5 C2.99 5.33 3.98 5.66 5 6 C5.65929749 7.71417346 6.3181031 9.42854057 6.97265625 11.14453125 C8.82475258 14.48957216 11.8055133 16.01097998 15 18 C13.21875 18.65625 13.21875 18.65625 11 19 C5.74708935 16.14315386 2.38122222 11.33393778 0 6 C-0.25 2.5625 -0.25 2.5625 0 0 Z " fill="#492295" transform="translate(354,523)"/>
<path d="M0 0 C0.75732422 0.00644531 1.51464844 0.01289062 2.29492188 0.01953125 C3.08060547 0.03628906 3.86628906 0.05304687 4.67578125 0.0703125 C5.47306641 0.07933594 6.27035156 0.08835937 7.09179688 0.09765625 C9.05742025 0.12119665 11.022889 0.15706703 12.98828125 0.1953125 C12.98828125 0.5253125 12.98828125 0.8553125 12.98828125 1.1953125 C17.27828125 1.5253125 21.56828125 1.8553125 25.98828125 2.1953125 C25.98828125 2.5253125 25.98828125 2.8553125 25.98828125 3.1953125 C14.93812106 3.31839597 4.00836626 3.02589764 -7.01171875 2.1953125 C-3.96490814 0.16410543 -3.41053551 -0.05128625 0 0 Z " fill="#794BAD" transform="translate(249.01171875,517.8046875)"/>
<path d="M0 0 C0.66 0 1.32 0 2 0 C1.98839844 0.9178125 1.97679687 1.835625 1.96484375 2.78125 C1.91698507 9.29003027 1.97099303 15.56870645 3 22 C2.01 21.67 1.02 21.34 0 21 C-1.55375178 17.37457918 -1.14730877 13.25672618 -1.125 9.375 C-1.12886719 8.694375 -1.13273438 8.01375 -1.13671875 7.3125 C-1.12672061 2.25344122 -1.12672061 2.25344122 0 0 Z " fill="#570F88" transform="translate(218,505)"/>
<path d="M0 0 C1.07894531 0.04640625 2.15789062 0.0928125 3.26953125 0.140625 C4.35621094 0.17671875 5.44289063 0.2128125 6.5625 0.25 C7.39394531 0.29640625 8.22539062 0.3428125 9.08203125 0.390625 C9.08203125 1.380625 9.08203125 2.370625 9.08203125 3.390625 C8.4065625 3.43960937 7.73109375 3.48859375 7.03515625 3.5390625 C6.143125 3.61382812 5.25109375 3.68859375 4.33203125 3.765625 C3.4503125 3.83523438 2.56859375 3.90484375 1.66015625 3.9765625 C-0.90863257 4.38912555 -2.6763789 5.10223457 -4.91796875 6.390625 C-5.24796875 5.730625 -5.57796875 5.070625 -5.91796875 4.390625 C-4.20732299 1.34147397 -3.55091093 0.47535622 0 0 Z " fill="#522B9C" transform="translate(339.91796875,482.609375)"/>
<path d="M0 0 C3.63 0 7.26 0 11 0 C11 0.33 11 0.66 11 1 C8.03 1 5.06 1 2 1 C2 3.64 2 6.28 2 9 C4.97 9 7.94 9 11 9 C8.2134483 11.7865517 5.84575573 11.65662895 2 12 C1.34 11.67 0.68 11.34 0 11 C0 7.37 0 3.74 0 0 Z " fill="#DD0473" transform="translate(501,484)"/>
<path d="M0 0 C3 1 3 1 4 3 C6.12576782 3.46651207 6.12576782 3.46651207 8.5625 3.625 C9.38878906 3.69976563 10.21507812 3.77453125 11.06640625 3.8515625 C11.70449219 3.90054688 12.34257813 3.94953125 13 4 C13.66 2.68 14.32 1.36 15 0 C15.042721 1.66611905 15.04063832 3.33382885 15 5 C14 6 14 6 11.09375 6.1328125 C9.9078125 6.13023437 8.721875 6.12765625 7.5 6.125 C6.3140625 6.12757813 5.128125 6.13015625 3.90625 6.1328125 C1 6 1 6 0 5 C-0.04063832 3.33382885 -0.042721 1.66611905 0 0 Z " fill="#0D8CB3" transform="translate(769,540)"/>
<path d="M0 0 C0.66 0 1.32 0 2 0 C0.52419355 12.2983871 0.52419355 12.2983871 -4 16 C-4.5326514 9.741346 -2.81849506 5.54891215 0 0 Z " fill="#13A9B5" transform="translate(784,507)"/>
<path d="M0 0 C0.66 0.33 1.32 0.66 2 1 C1.360625 1.9075 0.72125 2.815 0.0625 3.75 C-2.88349149 8.798784 -2.81223725 14.2826243 -3 20 C-3.99 20.33 -4.98 20.66 -6 21 C-6.34124063 12.46898419 -5.06598615 7.09238061 0 0 Z " fill="#406AAA" transform="translate(567,462)"/>
<path d="M0 0 C0.66 0 1.32 0 2 0 C2.64771508 1.91603157 3.29309948 3.83285113 3.9375 5.75 C4.47697266 7.35101562 4.47697266 7.35101562 5.02734375 8.984375 C5.34832031 9.97953125 5.66929687 10.9746875 6 12 C6.24878906 12.74765625 6.49757813 13.4953125 6.75390625 14.265625 C6.87572266 15.12414062 6.87572266 15.12414062 7 16 C6.34 16.66 5.68 17.32 5 18 C4.15621025 15.94175571 3.32536378 13.87820214 2.5 11.8125 C2.0359375 10.66394531 1.571875 9.51539063 1.09375 8.33203125 C0.09194348 5.28009923 -0.23870804 3.16884928 0 0 Z " fill="#2F71AF" transform="translate(719,527)"/>
<path d="M0 0 C6.6 0 13.2 0 20 0 C17 3 17 3 13.75 3.328125 C12.5125 3.30234375 11.275 3.2765625 10 3.25 C8.14375 3.22679687 8.14375 3.22679687 6.25 3.203125 C3 3 3 3 0 2 C0 1.34 0 0.68 0 0 Z " fill="#3258AB" transform="translate(655,544)"/>
<path d="M0 0 C1.0528418 0.01353516 1.0528418 0.01353516 2.12695312 0.02734375 C3.85561525 0.05086296 5.58410145 0.08673287 7.3125 0.125 C7.3125 3.095 7.3125 6.065 7.3125 9.125 C6.9825 9.125 6.6525 9.125 6.3125 9.125 C5.9825 6.815 5.6525 4.505 5.3125 2.125 C0.0325 2.125 -5.2475 2.125 -10.6875 2.125 C-7.00662647 -0.32891569 -4.24394412 -0.10302759 0 0 Z " fill="#2B56A5" transform="translate(585.6875,482.875)"/>
<path d="M0 0 C1.32 0.66 2.64 1.32 4 2 C3.36578125 2.67417969 2.7315625 3.34835937 2.078125 4.04296875 C-0.40211739 7.57218584 -0.7723348 10.05331861 -1.25 14.3125 C-1.39953125 15.56675781 -1.5490625 16.82101562 -1.703125 18.11328125 C-1.80109375 19.06589844 -1.8990625 20.01851562 -2 21 C-2.33 21 -2.66 21 -3 21 C-3.0816082 18.62429457 -3.14077222 16.25144159 -3.1875 13.875 C-3.22520508 12.87726563 -3.22520508 12.87726563 -3.26367188 11.859375 C-3.33320714 7.13097708 -2.40278375 4.04878521 0 0 Z " fill="#2D5FA7" transform="translate(636,498)"/>
<path d="M0 0 C0 0.33 0 0.66 0 1 C-0.66386719 1.18175781 -1.32773437 1.36351562 -2.01171875 1.55078125 C-10.72860229 3.88564145 -10.72860229 3.88564145 -17 10 C-17.66 9.67 -18.32 9.34 -19 9 C-17.12606706 5.03167142 -14.94723073 2.7923939 -11.05078125 0.71484375 C-7.4151403 -0.55243681 -3.79326132 -0.30965398 0 0 Z " fill="#3D339B" transform="translate(461,484)"/>
<path d="M0 0 C0.99 0.495 0.99 0.495 2 1 C2 1.99 2 2.98 2 4 C6.29 4 10.58 4 15 4 C15 4.99 15 5.98 15 7 C12.87527424 7.05386629 10.75016348 7.09273071 8.625 7.125 C6.84996094 7.15980469 6.84996094 7.15980469 5.0390625 7.1953125 C2 7 2 7 0 5 C-0.125 2.375 -0.125 2.375 0 0 Z " fill="#501490" transform="translate(308,539)"/>
<path d="M0 0 C0.33 1.65 0.66 3.3 1 5 C0.01 5.495 0.01 5.495 -1 6 C-1.33 4.68 -1.66 3.36 -2 2 C-2.515625 2.165 -3.03125 2.33 -3.5625 2.5 C-6.73363876 3.15049 -9.77218334 3.0620734 -13 3 C-13 2.34 -13 1.68 -13 1 C-11.58622218 0.63447197 -10.16879424 0.28304505 -8.75 -0.0625 C-7.96109375 -0.25972656 -7.1721875 -0.45695313 -6.359375 -0.66015625 C-3.89605178 -1.01497267 -2.34395868 -0.76877544 0 0 Z " fill="#E30873" transform="translate(543,533)"/>
<path d="M0 0 C2.68359143 2.61969639 5.08626109 5.41493505 7.5 8.28125 C8.93765171 9.92855925 10.43594232 11.47318178 12 13 C7.75360892 12.50862141 5.9464191 11.42727645 3.1875 8.1875 C2.58292969 7.50042969 1.97835937 6.81335938 1.35546875 6.10546875 C0 4 0 4 0 0 Z " fill="#345AA9" transform="translate(636,528)"/>
<path d="M0 0 C0.99 0 1.98 0 3 0 C1.33333333 5 -0.33333333 10 -2 15 C-3.1171875 13.359375 -3.1171875 13.359375 -4 11 C-3.3203125 8.203125 -3.3203125 8.203125 -2.125 5.25 C-1.73570312 4.26515625 -1.34640625 3.2803125 -0.9453125 2.265625 C-0.63335938 1.51796875 -0.32140625 0.7703125 0 0 Z " fill="#25B8C5" transform="translate(795,507)"/>
<path d="M0 0 C0.66 0 1.32 0 2 0 C2.86343824 2.12124966 3.71550648 4.24713072 4.5625 6.375 C5.27599609 8.15003906 5.27599609 8.15003906 6.00390625 9.9609375 C7 13 7 13 6 15 C3.39422695 12.72268574 2.3475813 10.78597238 1.3125 7.5 C1.06113281 6.7265625 0.80976562 5.953125 0.55078125 5.15625 C0 3 0 3 0 0 Z " fill="#2F7FB2" transform="translate(720,499)"/>
<path d="M0 0 C0.66 0.33 1.32 0.66 2 1 C4.09821215 0.60061233 4.09821215 0.60061233 6 0 C5.375 2.4375 5.375 2.4375 4 5 C0.40643641 6.0704232 -1.4268387 6.19105377 -5 5 C-3.35 3.35 -1.7 1.7 0 0 Z " fill="#65249B" transform="translate(228,489)"/>
<path d="M0 0 C4.29 0 8.58 0 13 0 C12.67 0.99 12.34 1.98 12 3 C7.71 3 3.42 3 -1 3 C-0.67 2.01 -0.34 1.02 0 0 Z " fill="#6526A4" transform="translate(284,483)"/>
<path d="M0 0 C0.33 0 0.66 0 1 0 C1.33 5.94 1.66 11.88 2 18 C-1.20128616 14.79871384 -1.06101978 11.22565486 -1.125 6.875 C-1 3 -1 3 0 0 Z " fill="#2F57A2" transform="translate(646,507)"/>
<path d="M0 0 C-2 2 -2 2 -4.20703125 2.23046875 C-12.92489013 2.08669596 -12.92489013 2.08669596 -17 1 C-17 0.67 -17 0.34 -17 0 C-11.23073111 -1.40333568 -5.81856895 -0.67296616 0 0 Z " fill="#5A51AC" transform="translate(473,483)"/>
<path d="M0 0 C1.75091019 0.08754551 3.50079551 0.19573373 5.25 0.3125 C6.22453125 0.37050781 7.1990625 0.42851562 8.203125 0.48828125 C11.25341611 1.04636524 12.70711276 1.96369776 15 4 C11.19068824 5.26977059 9.18381007 4.52074507 5.3125 3.5625 C3.54326172 3.13130859 3.54326172 3.13130859 1.73828125 2.69140625 C0.83464844 2.46324219 -0.06898438 2.23507812 -1 2 C-0.67 1.34 -0.34 0.68 0 0 Z " fill="#4375B6" transform="translate(581,457)"/>
<path d="M0 0 C1.13398806 3.40196419 0.71774977 4.56965111 0 8 C-0.0659735 10.10323534 -0.08562245 12.20835724 -0.0625 14.3125 C-0.05347656 15.38113281 -0.04445313 16.44976563 -0.03515625 17.55078125 C-0.02355469 18.35902344 -0.01195312 19.16726563 0 20 C-0.66 20 -1.32 20 -2 20 C-2.05379226 17.04142591 -2.09357093 14.08382279 -2.125 11.125 C-2.14175781 10.28324219 -2.15851563 9.44148438 -2.17578125 8.57421875 C-2.18222656 7.76855469 -2.18867188 6.96289062 -2.1953125 6.1328125 C-2.21102295 5.01737061 -2.21102295 5.01737061 -2.22705078 3.87939453 C-2 2 -2 2 0 0 Z " fill="#451B8C" transform="translate(355,502)"/>
<path d="M0 0 C3.0625 1 3.0625 1 5 2 C5 2.33 5 2.66 5 3 C-0.61 2.67 -6.22 2.34 -12 2 C-7.95398061 -0.69734626 -4.74576236 -0.43218852 0 0 Z " fill="#3D2C91" transform="translate(389,493)"/>
<path d="M0 0 C0.66 0.66 1.32 1.32 2 2 C2.66 1.67 3.32 1.34 4 1 C4.66 4.96 5.32 8.92 6 13 C5.01 13.495 5.01 13.495 4 14 C3.32739649 12.23141309 2.66211605 10.46003984 2 8.6875 C1.62875 7.70136719 1.2575 6.71523438 0.875 5.69921875 C0 3 0 3 0 0 Z " fill="#30A5BD" transform="translate(760,518)"/>
<path d="M0 0 C2.35170044 2.13790949 3.88791835 4.00593401 5 7 C5.125 10.25 5.125 10.25 5 13 C1.10364046 8.22381734 -0.13469529 6.19598355 0 0 Z " fill="#1299AD" transform="translate(758,509)"/>
<path d="M0 0 C0.66 0 1.32 0 2 0 C3.17426264 2.34852528 3.11508173 3.73774065 3.09765625 6.3515625 C3.09443359 7.20234375 3.09121094 8.053125 3.08789062 8.9296875 C3.07951172 9.81914062 3.07113281 10.70859375 3.0625 11.625 C3.05798828 12.5221875 3.05347656 13.419375 3.04882812 14.34375 C3.03702591 16.56256648 3.02056155 18.78125018 3 21 C2.67 21 2.34 21 2 21 C1.34 14.07 0.68 7.14 0 0 Z " fill="#206DA3" transform="translate(694,501)"/>
<path d="M0 0 C4.29 0 8.58 0 13 0 C13 0.33 13 0.66 13 1 C9.7 1.33 6.4 1.66 3 2 C2.34 4.97 1.68 7.94 1 11 C0.67 11 0.34 11 0 11 C0 7.37 0 3.74 0 0 Z " fill="#1B66A5" transform="translate(605,460)"/>
<path d="M0 0 C4.82382465 0.26799026 6.86565605 2.50744532 10 6 C9.67 6.99 9.34 7.98 9 9 C6 7 6 7 4.5625 5 C2.87105645 2.83495226 1.50952876 2.03842569 -1 1 C-0.67 0.67 -0.34 0.34 0 0 Z " fill="#5934A7" transform="translate(401,528)"/>
<path d="M0 0 C1.305239 3.91571701 0.32239848 5.03892997 -1.4375 8.6875 C-1.91058594 9.68136719 -2.38367188 10.67523437 -2.87109375 11.69921875 C-3.42990234 12.83810547 -3.42990234 12.83810547 -4 14 C-4.33 14 -4.66 14 -5 14 C-4.49580302 8.95803017 -3.75495562 3.75495562 0 0 Z " fill="#4F168F" transform="translate(323,515)"/>
<path d="M0 0 C0.99 0.33 1.98 0.66 3 1 C4.47666292 4.49029418 4.07164685 8.27436386 4 12 C1.27773234 9.27773234 0.21103861 6.63311582 -1 3 C-0.67 2.01 -0.34 1.02 0 0 Z " fill="#29A8C0" transform="translate(754,500)"/>
<path d="M0 0 C1.97284674 3.52294061 3.1543834 7.05378919 4 11 C3.046875 13.21875 3.046875 13.21875 2 15 C1.46467177 13.44240657 0.94734622 11.87861955 0.4375 10.3125 C0.14746094 9.44238281 -0.14257812 8.57226562 -0.44140625 7.67578125 C-1.05141961 4.75368926 -0.77703633 2.85599447 0 0 Z " fill="#239CBB" transform="translate(766,529)"/>
<path d="M0 0 C1.32 0.33 2.64 0.66 4 1 C3.071875 1.721875 2.14375 2.44375 1.1875 3.1875 C-1.58834996 5.48430257 -3.3382678 7.76885405 -5 11 C-5.68359375 9.234375 -5.68359375 9.234375 -6 7 C-4.78515625 5.078125 -4.78515625 5.078125 -3.0625 3.25 C-2.49660156 2.63640625 -1.93070312 2.0228125 -1.34765625 1.390625 C-0.90292969 0.93171875 -0.45820313 0.4728125 0 0 Z " fill="#432393" transform="translate(362,490)"/>
<path d="M0 0 C1.051875 -0.02126953 1.051875 -0.02126953 2.125 -0.04296875 C4 0.1875 4 0.1875 6 2.1875 C5.39671875 2.23648437 4.7934375 2.28546875 4.171875 2.3359375 C2.97304688 2.44808594 2.97304688 2.44808594 1.75 2.5625 C0.56664062 2.66691406 0.56664062 2.66691406 -0.640625 2.7734375 C-3.085877 3.20257113 -4.84836903 3.97350638 -7 5.1875 C-6.625 3.25 -6.625 3.25 -6 1.1875 C-3.77109005 0.07304502 -2.46944894 0.02269714 0 0 Z " fill="#2864A9" transform="translate(584,467.8125)"/>
<path d="M0 0 C4.56454251 0.54339792 7.9728176 1.79463821 12 4 C12 4.33 12 4.66 12 5 C7.6822542 4.49202991 3.96697886 3.80317221 0 2 C0 1.34 0 0.68 0 0 Z " fill="#2F7CAF" transform="translate(674,484)"/>
<path d="M0 0 C0.33 0.66 0.66 1.32 1 2 C0 5 0 5 -1.8125 6.25 C-4.33943414 7.11637742 -5.52221994 6.88492145 -8 6 C-7.67 5.34 -7.34 4.68 -7 4 C-3.9375 3.375 -3.9375 3.375 -1 3 C-0.67 2.01 -0.34 1.02 0 0 Z " fill="#3463B0" transform="translate(681,539)"/>
<path d="M0 0 C3 1 3 1 4.1875 3.25 C4.99938294 5.99791147 5.16260121 8.15447889 5 11 C2.03947516 7.63576723 1.07710178 4.30840713 0 0 Z " fill="#4E1389" transform="translate(309,514)"/>
<path d="M0 0 C3.375 -0.1875 3.375 -0.1875 7 0 C9.1519437 3.22791555 9.20086443 4.28400809 9 8 C8.34 7.67 7.68 7.34 7 7 C6.731875 6.175 6.46375 5.35 6.1875 4.5 C5.795625 3.675 5.40375 2.85 5 2 C2.45224694 1.10613836 2.45224694 1.10613836 0 1 C0 0.67 0 0.34 0 0 Z " fill="#511291" transform="translate(291,484)"/>
<path d="M0 0 C0.33 0 0.66 0 1 0 C0.25 7.75 0.25 7.75 -2 10 C-2 9.34 -2 8.68 -2 8 C-2.66 7.67 -3.32 7.34 -4 7 C-2.68 4.69 -1.36 2.38 0 0 Z " fill="#2E71AF" transform="translate(740,536)"/>
<path d="M0 0 C1.258125 -0.04125 2.51625 -0.0825 3.8125 -0.125 C4.52019531 -0.14820313 5.22789062 -0.17140625 5.95703125 -0.1953125 C8 0 8 0 11 2 C6.70700357 3.26264601 4.12168689 2.62950412 0 1 C0 0.67 0 0.34 0 0 Z " fill="#530B8D" transform="translate(242,534)"/>
<path d="M0 0 C3.26954202 0.56371414 4.82575883 1.49962266 7 4 C6.67 4.99 6.34 5.98 6 7 C1.125 2.25 1.125 2.25 0 0 Z " fill="#6C2C9E" transform="translate(222,533)"/>
<path d="M0 0 C2.00993705 2.00993705 2.89940919 3.59211232 4.125 6.125 C4.47820312 6.84945312 4.83140625 7.57390625 5.1953125 8.3203125 C5.46085938 8.87460937 5.72640625 9.42890625 6 10 C5.01 10.495 5.01 10.495 4 11 C3.34 9.35 2.68 7.7 2 6 C1.34 6 0.68 6 0 6 C0 4.02 0 2.04 0 0 Z " fill="#520688" transform="translate(230,519)"/>
<path d="M0 0 C3 1 3 1 4.8125 4.3125 C6 8 6 8 5.07421875 10.23046875 C4.71972656 10.81441406 4.36523438 11.39835937 4 12 C3.79503906 11.30132812 3.59007812 10.60265625 3.37890625 9.8828125 C3.10949219 8.97273438 2.84007812 8.06265625 2.5625 7.125 C2.16224609 5.76761719 2.16224609 5.76761719 1.75390625 4.3828125 C1.07386174 2.01724619 1.07386174 2.01724619 0 0 Z " fill="#377DB3" transform="translate(678,498)"/>
<path d="M0 0 C3.14958831 3.42346555 3.56179109 6.44262737 4 11 C1.29727467 8.12835434 0.05208163 6.69008159 -0.25 2.6875 C-0.1675 1.800625 -0.085 0.91375 0 0 Z " fill="#1E76AA" transform="translate(706,491)"/>
<path d="M0 0 C0 0.99 0 1.98 0 3 C-3.63 2.67 -7.26 2.34 -11 2 C-11 1.67 -11 1.34 -11 1 C-7.27569643 0.30710631 -3.78916254 -0.11144596 0 0 Z " fill="#7E4CAA" transform="translate(252,482)"/>
<path d="M0 0 C2.83374881 3.20336822 3.5205537 5.78087253 4 10 C3.34 10 2.68 10 2 10 C0.39644899 6.49223216 -0.22036864 3.85645121 0 0 Z " fill="#2771A9" transform="translate(715,516)"/>
<path d="M0 0 C2 2 2 2 2.125 5.125 C2.08375 6.07375 2.0425 7.0225 2 8 C0.68 8.33 -0.64 8.66 -2 9 C-1.34 6.03 -0.68 3.06 0 0 Z " fill="#4B0C88" transform="translate(266,503)"/>
<path d="M0 0 C2.12508244 3.18762365 2.5020163 5.26512223 3 9 C2.01 8.67 1.02 8.34 0 8 C0 6.68 0 5.36 0 4 C-0.66 4 -1.32 4 -2 4 C-1 1 -1 1 0 0 Z " fill="#25A7BB" transform="translate(767,502)"/>
<path d="M0 0 C1.45823212 -0.0270043 2.91660675 -0.04639787 4.375 -0.0625 C5.18710937 -0.07410156 5.99921875 -0.08570313 6.8359375 -0.09765625 C9 0 9 0 11 1 C10.67 1.66 10.34 2.32 10 3 C8.35 3 6.7 3 5 3 C5 2.34 5 1.68 5 1 C3.35 1 1.7 1 0 1 C0 0.67 0 0.34 0 0 Z " fill="#7063C3" transform="translate(431,483)"/>
<path d="M0 0 C0.66 0 1.32 0 2 0 C1.01 3.3 0.02 6.6 -1 10 C-1.33 10 -1.66 10 -2 10 C-2.17942163 6.05272412 -2.09350689 3.4019487 0 0 Z " fill="#217BAE" transform="translate(736,517)"/>
<path d="M0 0 C2.72426311 2.35277269 3.8141763 4.62496331 5 8 C4.01 8 3.02 8 2 8 C0.23537317 4.91190305 0 3.76687864 0 0 Z " fill="#4F158A" transform="translate(298,517)"/>
<path d="M0 0 C1.85772162 0.08984301 3.71247985 0.24611861 5.5625 0.4375 C7.08037109 0.59025391 7.08037109 0.59025391 8.62890625 0.74609375 C9.80259766 0.87177734 9.80259766 0.87177734 11 1 C11 1.33 11 1.66 11 2 C9.37675914 2.22162329 7.751279 2.42689803 6.125 2.625 C4.76761719 2.79902344 4.76761719 2.79902344 3.3828125 2.9765625 C2.59648438 2.98429687 1.81015625 2.99203125 1 3 C0.34 2.34 -0.32 1.68 -1 1 C-0.67 0.67 -0.34 0.34 0 0 Z " fill="#2F76AF" transform="translate(652,484)"/>
<path d="M0 0 C1.32 0.33 2.64 0.66 4 1 C3.34 3.64 2.68 6.28 2 9 C-0.29013653 5.5647952 -0.17842973 4.014669 0 0 Z " fill="#23CECE" transform="translate(802,483)"/>
<path d="M0 0 C3.24208567 0.35049575 4.61527704 0.56221181 6.8125 3.0625 C7.204375 3.701875 7.59625 4.34125 8 5 C5 5 5 5 2.3125 2.5 C1.549375 1.675 0.78625 0.85 0 0 Z " fill="#3D3696" transform="translate(476,486)"/>
<path d="M0 0 C0.66 0 1.32 0 2 0 C1.375 1.9375 1.375 1.9375 0 4 C-3.125 4.75 -3.125 4.75 -6 5 C-5.195625 4.360625 -4.39125 3.72125 -3.5625 3.0625 C-1.7249496 1.59396498 -1.7249496 1.59396498 0 0 Z " fill="#500D91" transform="translate(271,538)"/>
<path d="M0 0 C1.98 1.65 3.96 3.3 6 5 C5.01 5.33 4.02 5.66 3 6 C2.01 5.34 1.02 4.68 0 4 C0 2.68 0 1.36 0 0 Z " fill="#5B39A3" transform="translate(369,526)"/>
<path d="M0 0 C0.99 0.66 1.98 1.32 3 2 C1.35 3.32 -0.3 4.64 -2 6 C-2.33 4.35 -2.66 2.7 -3 1 C-2.01 0.67 -1.02 0.34 0 0 Z " fill="#510983" transform="translate(223,499)"/>
<path d="M0 0 C2.62187494 1.04874998 3.79371361 1.64931313 5.25 4.125 C5.4975 4.74375 5.745 5.3625 6 6 C5.34 6 4.68 6 4 6 C3.67 6.99 3.34 7.98 3 9 C2 6 1 3 0 0 Z " fill="#2B75AC" transform="translate(690,495)"/>
<path d="M0 0 C1.32 0.33 2.64 0.66 4 1 C2.35 2.65 0.7 4.3 -1 6 C-1.66 5.67 -2.32 5.34 -3 5 C-2.01 3.35 -1.02 1.7 0 0 Z " fill="#3A2D93" transform="translate(445,488)"/>
<path d="M0 0 C2.35953094 2.35953094 2.49141413 3.77895617 3 7 C1.68 6.67 0.36 6.34 -1 6 C-0.67 4.02 -0.34 2.04 0 0 Z " fill="#3689BB" transform="translate(716,484)"/>
<path d="M0 0 C5.53846154 -0.36923077 5.53846154 -0.36923077 7.875 1.5 C8.24625 1.995 8.6175 2.49 9 3 C2.25 3.125 2.25 3.125 0 2 C0 1.34 0 0.68 0 0 Z " fill="#4B0C8A" transform="translate(252,483)"/>
<path d="" fill="#FFFFFF" transform="translate(0,0)"/>
<path d="" fill="#FFFFFF" transform="translate(0,0)"/>
<path d="" fill="#FFFFFF" transform="translate(0,0)"/>
</svg>
