<?xml version="1.0" encoding="UTF-8"?>
<svg version="1.1" xmlns="http://www.w3.org/2000/svg" width="493" height="455">
<path d="M0 0 C1.52799042 -0.00657338 1.52799042 -0.00657338 3.08684933 -0.01327956 C6.50501448 -0.02664877 9.92315386 -0.03284229 13.34133911 -0.03897095 C15.79061499 -0.04687355 18.23988971 -0.0551426 20.68916321 -0.06375122 C28.0435339 -0.08769522 35.39790033 -0.10289866 42.75229663 -0.11581129 C44.83181516 -0.11952644 46.91133304 -0.12349943 48.99085093 -0.12756395 C61.92163266 -0.15280795 74.85241554 -0.17484755 87.78321648 -0.1872921 C90.7763863 -0.1902215 93.76955609 -0.1931832 96.76272583 -0.19619751 C97.87854905 -0.19731659 97.87854905 -0.19731659 99.01691414 -0.19845827 C111.05044083 -0.21109489 123.0838192 -0.24429697 135.11727665 -0.28599934 C147.4900141 -0.32852356 159.86267586 -0.35199934 172.23548615 -0.35721266 C179.17490288 -0.36061534 186.114088 -0.37223423 193.05343246 -0.4053154 C199.58864305 -0.43641993 206.12352515 -0.44167423 212.65882301 -0.42993164 C215.04880209 -0.42971167 217.43880033 -0.43795249 219.82871437 -0.45558548 C240.44636728 -0.59934127 255.9481903 2.03216431 271.56838989 16.5718689 C283.98116338 29.60631719 289.13486134 45.28533636 289.10444641 62.98829651 C289.10671197 63.96177971 289.10897752 64.93526291 289.11131173 65.93824559 C289.11762803 69.19137633 289.11682389 72.44446514 289.11599731 75.69760132 C289.11899031 78.03381402 289.12239317 80.37002623 289.12617493 82.70623779 C289.13500557 89.04733851 289.13735267 95.38842573 289.13799071 101.729532 C289.13882123 106.35933586 289.14172175 110.98913672 289.14482719 115.61893952 C289.15312842 128.07691154 289.15686996 140.53487642 289.15615746 152.9928511 C289.15609752 154.05302326 289.15609752 154.05302326 289.15603638 155.13461304 C289.1559955 155.84226373 289.15595462 156.54991443 289.1559125 157.27900908 C289.15550634 168.73885608 289.16506934 180.19867018 289.17917474 191.65850767 C289.19356401 203.44255887 289.2004435 215.22659406 289.19958097 227.01065427 C289.19924983 233.61953888 289.20215636 240.22839319 289.21275902 246.83727074 C289.22246405 253.05644272 289.22250266 259.27554205 289.21524239 265.49471664 C289.21419948 267.77145176 289.21654189 270.04819146 289.22260284 272.32491875 C289.27542539 293.54961907 287.89722409 313.12776034 272.72073364 329.5953064 C259.66857007 341.95721132 245.6115941 347.31066694 227.91491699 347.29434204 C226.40084588 347.29879872 226.40084588 347.29879872 224.85618746 347.30334544 C221.47557855 347.31201353 218.09500513 347.3135391 214.71438599 347.31503296 C212.28965174 347.31966249 209.86491822 347.32468734 207.44018555 347.33007812 C200.85316916 347.34319166 194.26616014 347.34968217 187.67913389 347.35408878 C183.56195288 347.35685591 179.44477419 347.36109414 175.32759476 347.36559296 C163.91644374 347.37778264 152.50529458 347.38808225 141.09413719 347.39146805 C140.36439907 347.39168761 139.63466095 347.39190718 138.88280956 347.3921334 C138.15137657 347.39235168 137.41994358 347.39256996 136.66634595 347.39279485 C135.18431242 347.39323831 133.70227889 347.39368487 132.22024536 347.39413452 C131.11754777 347.39446667 131.11754777 347.39446667 129.99257345 347.39480552 C118.08969162 347.39875074 106.18687112 347.41619767 94.28401296 347.43949404 C82.04798836 347.4632481 69.81199447 347.47567176 57.57594645 347.47683597 C50.71216084 347.4777505 43.84845513 347.48344663 36.98469162 347.50165558 C30.52503782 347.51873269 24.06549492 347.52027895 17.60582352 347.51151657 C15.24039555 347.51074758 12.87495936 347.51507058 10.509552 347.52497482 C-10.88020466 347.60925406 -27.39251926 345.40502889 -43.59176636 329.81796265 C-55.61826839 316.67361267 -60.36437617 300.34312359 -60.28996277 282.85194397 C-60.29378832 281.8764542 -60.29761386 280.90096444 -60.30155534 279.89591438 C-60.31179158 276.65983173 -60.30791113 273.42392963 -60.30392456 270.18783569 C-60.30827624 267.85427691 -60.31346091 265.52071956 -60.31941223 263.18716431 C-60.33276475 256.87094522 -60.33338504 250.55478611 -60.33084893 244.23855567 C-60.3296407 238.28590723 -60.33586543 232.33326874 -60.34128239 226.38062332 C-60.35213778 213.86885405 -60.35000503 201.35711178 -60.34389754 188.845341 C-60.33873103 177.42587865 -60.34998038 166.00650166 -60.36899576 154.58705618 C-60.38841795 142.83224329 -60.39662245 131.0774707 -60.39287251 119.32264167 C-60.39106399 112.73497365 -60.39365277 106.14738381 -60.40758705 99.55972862 C-60.42020723 93.36180334 -60.41818163 87.1640483 -60.40517616 80.96612549 C-60.40281991 78.69990289 -60.40551069 76.43366815 -60.41379929 74.16745949 C-60.46338669 59.54810186 -60.47242614 45.24112259 -53.46676636 31.96640015 C-53.12234497 31.30132446 -52.77792358 30.63624878 -52.42306519 29.95101929 C-44.1638977 14.71393064 -31.2256608 6.35221242 -15.02926636 1.15390015 C-10.06759492 -0.17129242 -5.09684643 0.00266538 0 0 Z " fill="#443BA0" transform="translate(135.02926635742188,58.846099853515625)"/>
<path d="M0 0 C-0.80906516 9.35128805 -2.21704804 18.59981065 -3.625 27.875 C-3.7536142 28.72651642 -3.88222839 29.57803284 -4.01473999 30.45535278 C-6.08165894 44.13472784 -8.19373657 57.80726719 -10.34613037 71.47344971 C-10.65701207 73.44928372 -10.96662345 75.42531803 -11.27496338 77.40155029 C-11.70649635 80.16290686 -12.14343887 82.92335085 -12.58203125 85.68359375 C-12.77541328 86.9291378 -12.77541328 86.9291378 -12.97270203 88.19984436 C-13.88548321 93.88548321 -13.88548321 93.88548321 -15 95 C-15.1994366 96.35386413 -15.3478082 97.71535722 -15.47265625 99.078125 C-15.61670898 100.32529297 -15.61670898 100.32529297 -15.76367188 101.59765625 C-15.9608301 103.34759654 -16.13327056 105.10052183 -16.27929688 106.85546875 C-16.73412909 110.47738418 -17.07882195 113.06263299 -19.69482422 115.72460938 C-22.87502845 117.87149326 -25.50018967 118.91274095 -29.2890625 119.57421875 C-32 119 -32 119 -33.8359375 117.26953125 C-34.34382812 116.45871094 -34.85171875 115.64789063 -35.375 114.8125 C-35.95121094 113.91402344 -36.52742187 113.01554687 -37.12109375 112.08984375 C-37.74113281 111.07019531 -38.36117187 110.05054688 -39 109 C-39.73971735 107.81307332 -40.48064328 106.62689916 -41.22265625 105.44140625 C-43.17370131 102.30942063 -45.09350322 99.15933753 -47 96 C-51.24357292 96.50760442 -53.81080358 99.14792083 -56.875 101.875 C-61.47857806 105.88150237 -66.15923918 109.72164753 -71 113.4375 C-77.01196456 118.08539131 -82.59208272 123.09266067 -88.1171875 128.3046875 C-90.36530826 130.40658902 -92.63700393 132.40748445 -95 134.375 C-110.36830438 147.81018433 -123.09107469 164.66381191 -132 183 C-132.33 183 -132.66 183 -133 183 C-134.95925235 167.18085142 -127.04481059 150.75613903 -120 137 C-119.34 137 -118.68 137 -118 137 C-117.896875 136.27167969 -117.79375 135.54335938 -117.6875 134.79296875 C-115.71872265 126.79481076 -108.50313935 120.13134456 -103.05859375 114.24609375 C-101.43687732 112.4766688 -99.92084137 110.69539461 -98.4375 108.8125 C-95.90719126 105.892913 -93.22781408 103.47641199 -90.29296875 100.9765625 C-87.70580781 98.74640332 -85.19925698 96.43968618 -82.6875 94.125 C-79.08608829 90.83567762 -75.42692725 87.67982364 -71.625 84.625 C-66.75106129 80.69508098 -62.14941042 76.53443122 -57.59033203 72.24853516 C-54.16004158 69.0304053 -50.63907713 65.9808883 -47 63 C-43.8510285 64.36911804 -41.9521513 65.8752136 -39.75 68.5 C-39.22921875 69.1084375 -38.7084375 69.716875 -38.171875 70.34375 C-37 72 -37 72 -37 74 C-36.01 74 -35.02 74 -34 74 C-33.98582031 73.20464844 -33.97164062 72.40929687 -33.95703125 71.58984375 C-33.36248143 56.56540915 -30.52951157 41.79520374 -28 27 C-28.94576904 27.13132324 -29.89153809 27.26264648 -30.8659668 27.39794922 C-38.83789682 28.48605247 -46.79360791 29.44420332 -54.8125 30.125 C-55.75802734 30.21136719 -56.70355469 30.29773438 -57.67773438 30.38671875 C-63.80098594 30.91697971 -69.85496258 31.10535783 -76 31 C-76 31.99 -76 32.98 -76 34 C-75.12601563 34.38285156 -75.12601563 34.38285156 -74.234375 34.7734375 C-71.78611777 36.11741087 -70.18256752 37.61810296 -68.25 39.625 C-67.63640625 40.25664062 -67.0228125 40.88828125 -66.390625 41.5390625 C-65.93171875 42.02117187 -65.4728125 42.50328125 -65 43 C-68.46382661 50.88982729 -76.58765443 56.49641041 -83 62 C-84.15172294 63.0031246 -85.30269837 64.00710776 -86.453125 65.01171875 C-94.75953314 72.25673472 -103.19058289 79.31313599 -111.76953125 86.234375 C-117.11984519 90.5744898 -122.33286871 95.01533707 -127.41796875 99.6640625 C-129.52613341 101.5712977 -131.65862243 103.4375111 -133.80859375 105.296875 C-145.05229228 115.12212962 -155.45767921 125.7265506 -164 138 C-164.50047852 138.71510742 -165.00095703 139.43021484 -165.51660156 140.16699219 C-167.15089917 142.51820826 -168.76691811 144.88078536 -170.375 147.25 C-171.12571777 148.34900635 -171.12571777 148.34900635 -171.89160156 149.47021484 C-175.19451553 154.43351863 -177.7499192 159.48105633 -180 165 C-180.66 165 -181.32 165 -182 165 C-182.226875 166.134375 -182.45375 167.26875 -182.6875 168.4375 C-183.49704763 171.72162231 -184.63360117 174.29409887 -186.375 177.1875 C-189.67029548 182.76114518 -191.28294904 188.79367613 -193 195 C-193.33 195 -193.66 195 -194 195 C-194.05899621 191.22923455 -194.09392568 187.45859074 -194.125 183.6875 C-194.14175781 182.63498047 -194.15851563 181.58246094 -194.17578125 180.49804688 C-194.24369414 169.46220248 -192.20398527 159.77256928 -188.625 149.375 C-188.33367187 148.4984375 -188.04234375 147.621875 -187.7421875 146.71875 C-185.80467531 140.99119204 -183.55387255 135.47973306 -181 130 C-180.34 130 -179.68 130 -179 130 C-178.89945313 129.28328125 -178.79890625 128.5665625 -178.6953125 127.828125 C-176.61226271 119.35549551 -169.46058841 111.64813385 -164 105 C-163.3805249 104.24517334 -163.3805249 104.24517334 -162.74853516 103.47509766 C-154.81808462 93.85159745 -146.49848863 85.10165207 -137 77 C-134.70751906 75.04261822 -132.41603604 73.08407272 -130.125 71.125 C-129.51664307 70.60542725 -128.90828613 70.08585449 -128.28149414 69.55053711 C-124.74394582 66.52139597 -121.25620632 63.44863446 -117.8125 60.3125 C-113.43969051 56.33128539 -108.88373073 52.61807066 -104.25 48.9453125 C-101.82039747 47.01944456 -101.82039747 47.01944456 -100 44 C-100.79792969 43.77441406 -101.59585938 43.54882812 -102.41796875 43.31640625 C-106.99763213 41.63336747 -111.07610678 39.33936849 -115.3125 36.9375 C-116.13556641 36.47794922 -116.95863281 36.01839844 -117.80664062 35.54492188 C-123.84527726 32.15472274 -123.84527726 32.15472274 -125 31 C-125.4654294 26.74848141 -125.17600479 22.79202155 -124.25 18.625 C-117.74824371 11.03961766 -101.46730479 11.84578895 -92.15625 10.75390625 C-86.74648399 10.11120326 -81.37783491 9.30245881 -76 8.4375 C-66.48116612 6.9325844 -56.93405203 6.14932072 -47.328125 5.4296875 C-44.07279518 5.18404027 -40.8456011 4.87796573 -37.609375 4.44921875 C-34.68117268 4.08477798 -31.94189167 3.89153294 -29 3.9375 C-28.236875 3.94652344 -27.47375 3.95554688 -26.6875 3.96484375 C-26.130625 3.97644531 -25.57375 3.98804688 -25 4 C-25 3.34 -25 2.68 -25 2 C-21.95872183 1.66274935 -18.91705809 1.33007668 -15.875 1 C-14.59109375 0.85691406 -14.59109375 0.85691406 -13.28125 0.7109375 C-8.82977526 0.23154791 -4.48558075 -0.11765458 0 0 Z " fill="#F8F8FA" transform="translate(345,140)"/>
<path d="M0 0 C9.22261265 0.66394873 18.4027687 0.6955811 27.64512634 0.66625977 C29.45286009 0.66433474 31.26059438 0.66287371 33.06832886 0.66183472 C36.93345594 0.65869769 40.7985606 0.65246452 44.66367912 0.64376831 C50.82172338 0.6300693 56.97976059 0.62431305 63.13781738 0.61962891 C77.35262343 0.60764809 91.56741079 0.58576754 105.78220367 0.56340027 C118.75972863 0.54303545 131.7372464 0.52498258 144.7147842 0.51518536 C149.81147892 0.51109623 154.90815138 0.50496505 160.00483513 0.49343872 C186.69902841 0.43364415 213.35507922 0.77406653 240.03794861 1.56860352 C240.03794861 1.89860352 240.03794861 2.22860352 240.03794861 2.56860352 C208.89448919 2.61420851 177.75103858 2.64961243 146.60755371 2.67073417 C142.93249648 2.67323565 139.25743933 2.67582429 135.5823822 2.6784668 C134.85073082 2.67899142 134.11907945 2.67951604 133.36525682 2.68005656 C121.51157254 2.68876405 109.65790762 2.70453591 97.80423483 2.72290911 C85.6452833 2.74159859 73.48634191 2.75271822 61.3273766 2.75678051 C53.82197104 2.75952754 46.31662019 2.76821026 38.81123146 2.78443645 C33.06039013 2.79623764 27.30958402 2.79751726 21.55873299 2.79481888 C19.19640071 2.79537069 16.83406642 2.79936995 14.47174644 2.80701447 C11.2544584 2.81691805 8.0374073 2.81458913 4.82011414 2.80911255 C3.87848317 2.81493823 2.9368522 2.82076391 1.96668696 2.82676613 C1.10529085 2.82278404 0.24389474 2.81880194 -0.64360428 2.81469917 C-1.75770373 2.81583833 -1.75770373 2.81583833 -2.89431024 2.81700051 C-5.26637843 2.53204482 -6.89793784 1.74331534 -8.96205139 0.56860352 C-5.93997012 -0.94243712 -3.3503551 -0.26808323 0 0 Z " fill="#450D90" transform="translate(129.96205139160156,403.431396484375)"/>
<path d="M0 0 C0.33 0 0.66 0 1 0 C1.92588873 10.20865392 2.12488068 20.30975489 2.07516479 30.55124283 C2.06212472 33.2736616 2.05581491 35.9960302 2.05102539 38.71847534 C2.03781565 45.48804319 2.01382738 52.25756361 1.98962402 59.02709961 C1.96958922 64.73484576 1.95296437 70.4425798 1.94268799 76.15035248 C1.93923813 78.00892047 1.93496987 79.86748713 1.92987061 81.72605133 C1.89961082 94.48306166 2.09050859 107.191468 2.90795898 119.92678833 C2.96282471 120.94981049 3.01769043 121.97283264 3.07421875 123.02685547 C3.16062622 124.33612503 3.16062622 124.33612503 3.2487793 125.67184448 C3 128 3 128 0 132 C0 88.44 0 44.88 0 0 Z " fill="#5C229E" transform="translate(75,176)"/>
<path d="M0 0 C0.66 0 1.32 0 2 0 C3.9485746 30.00628142 3.9485746 30.00628142 1 43 C0.67 43 0.34 43 0 43 C0 28.81 0 14.62 0 0 Z " fill="#601FA1" transform="translate(75,309)"/>
<path d="M0 0 C0.66 0.33 1.32 0.66 2 1 C-5.92 8.92 -13.84 16.84 -22 25 C-22.66 24.67 -23.32 24.34 -24 24 C-16.44738134 15.4635733 -8.48510355 7.60826455 0 0 Z " fill="#D6D4E7" transform="translate(209,216)"/>
<path d="M0 0 C0.66 0.33 1.32 0.66 2 1 C-5.92 8.92 -13.84 16.84 -22 25 C-22.66 24.67 -23.32 24.34 -24 24 C-16.44738134 15.4635733 -8.48510355 7.60826455 0 0 Z " fill="#6E5DB0" transform="translate(262,262)"/>
<path d="M0 0 C11.25224536 -0.78020191 22.56198845 0.23364258 31.93359375 7.171875 C32.95646484 8.07679687 32.95646484 8.07679687 34 9 C30.42435129 9 28.24012366 7.98698783 24.9375 6.625 C16.71935812 3.39253086 8.73382184 1.97042465 0 1 C0 0.67 0 0.34 0 0 Z " fill="#2687B4" transform="translate(362,59)"/>
<path d="M0 0 C8.83356706 5.07930106 14.56321159 12.97710819 19 22 C18.34 22.33 17.68 22.66 17 23 C16.41605469 21.98292969 16.41605469 21.98292969 15.8203125 20.9453125 C11.8778856 14.3867129 7.54046208 9.21130969 1.94140625 3.99609375 C0 2 0 2 0 0 Z " fill="#2990B4" transform="translate(399,70)"/>
<path d="M0 0 C0.66 0.33 1.32 0.66 2 1 C-5.26 8.26 -12.52 15.52 -20 23 C-20.66 22.67 -21.32 22.34 -22 22 C-16.82920646 16.14047371 -11.68402337 10.48062495 -5.6953125 5.4375 C-3.68329894 3.73146085 -1.82628533 1.90238055 0 0 Z " fill="#D6D6E7" transform="translate(261,235)"/>
<path d="M0 0 C-0.33 3.3 -0.66 6.6 -1 10 C-1.33 10 -1.66 10 -2 10 C-2 7.36 -2 4.72 -2 2 C-3.47146484 2.24556641 -3.47146484 2.24556641 -4.97265625 2.49609375 C-9.14118966 3.09159852 -13.23401136 3.11249575 -17.4375 3.0625 C-18.16904297 3.05798828 -18.90058594 3.05347656 -19.65429688 3.04882812 C-21.43623419 3.03718148 -23.21812863 3.01925191 -25 3 C-25 2.67 -25 2.34 -25 2 C-21.95872183 1.66274935 -18.91705809 1.33007668 -15.875 1 C-15.0190625 0.90460938 -14.163125 0.80921875 -13.28125 0.7109375 C-8.82977526 0.23154791 -4.48558075 -0.11765458 0 0 Z " fill="#A2B5D7" transform="translate(345,140)"/>
<path d="M0 0 C3.74129066 3.29990243 4.9364017 7.21799506 6 12 C5.6875 15.0625 5.6875 15.0625 5 17 C4.67 17 4.34 17 4 17 C3.51933465 15.10454608 3.04053257 13.20861961 2.5625 11.3125 C2.29566406 10.25675781 2.02882813 9.20101562 1.75390625 8.11328125 C1.10102068 5.4171683 0.52058807 2.7242424 0 0 Z " fill="#3291B6" transform="translate(417,93)"/>
<path d="M0 0 C1.18851563 0.10183594 2.37703125 0.20367187 3.6015625 0.30859375 C4.51679688 0.39238281 5.43203125 0.47617187 6.375 0.5625 C6.375 0.8925 6.375 1.2225 6.375 1.5625 C4.62681409 1.78554441 2.87629677 1.9903645 1.125 2.1875 C0.15046875 2.30351562 -0.8240625 2.41953125 -1.828125 2.5390625 C-4.75929393 2.56362537 -6.17028964 2.0937717 -8.625 0.5625 C-5.68113377 -0.90943312 -3.25109964 -0.28686173 0 0 Z " fill="#52049A" transform="translate(129.625,403.4375)"/>
</svg>
