<?xml version="1.0" encoding="UTF-8"?>
<svg version="1.1" xmlns="http://www.w3.org/2000/svg" width="1024" height="1024">
<path d="M0 0 C1.30526896 -0.00668677 1.30526896 -0.00668677 2.63690698 -0.01350862 C3.58844301 -0.01332426 4.53997905 -0.01313989 5.5203495 -0.01294994 C7.0419913 -0.01846498 7.0419913 -0.01846498 8.59437335 -0.02409142 C12.00416224 -0.03513163 15.41392065 -0.03897274 18.82372475 -0.04278088 C21.26462336 -0.04904543 23.70552101 -0.05569223 26.14641762 -0.0626936 C33.48044054 -0.08192494 40.81445536 -0.09252417 48.14849609 -0.10142139 C51.60647956 -0.10580832 55.0644615 -0.11117423 58.52244377 -0.11641026 C70.02615414 -0.13342411 81.52986357 -0.14791533 93.03358459 -0.155159 C96.0179933 -0.15706875 99.002402 -0.1589891 101.98681068 -0.16094494 C102.72853003 -0.16142868 103.47024937 -0.16191242 104.23444505 -0.16241082 C116.23312036 -0.17070005 128.23169561 -0.19601747 140.23032729 -0.22852562 C152.56347886 -0.26166605 164.89657972 -0.27961421 177.22977602 -0.28280324 C184.14845776 -0.28496232 191.06699377 -0.29362183 197.98563194 -0.31926441 C204.50109788 -0.3433574 211.01637341 -0.34675338 217.53187752 -0.33650303 C219.91581913 -0.33600901 222.29977387 -0.34228974 224.68367577 -0.35605907 C245.66437644 -0.47040418 261.47389312 1.90570767 277.32616615 16.79047108 C291.45207456 31.08312713 295.8202725 47.31199078 295.76955605 66.86072254 C295.77111604 67.79845705 295.77267603 68.73619156 295.77428329 69.70234227 C295.77824952 72.82255517 295.77512064 75.94271881 295.77196693 79.06293201 C295.77332295 81.30914812 295.77510402 83.55536401 295.77727699 85.80157948 C295.78182848 91.88850769 295.78007087 97.97541891 295.77689791 104.06234741 C295.77436127 110.44374798 295.7767156 116.82514711 295.77828407 123.20654774 C295.78021888 134.6124615 295.77711521 146.01836588 295.77202474 157.42427805 C295.76756166 167.74328632 295.76832987 178.06228333 295.7729435 188.38129139 C295.77830896 200.3873712 295.78027929 212.39344252 295.77733123 224.39952397 C295.77577654 230.74627054 295.77555241 237.09300938 295.77886772 243.43975544 C295.78176946 249.41188797 295.7797286 255.38399938 295.77397346 261.35612965 C295.77265794 263.54052921 295.77301932 265.72493058 295.77523613 267.90932941 C295.79740587 291.98637899 295.52862516 313.05518415 277.7050724 331.57172108 C265.57738994 342.9958128 251.85312023 348.45612979 235.23908424 348.40164661 C234.21644956 348.40617773 233.19381487 348.41070884 232.14019126 348.41537726 C228.72663189 348.42799859 225.31323254 348.42640233 221.89965248 348.42474842 C219.44668816 348.43073512 216.99372573 348.43754099 214.54076576 348.44510365 C208.57642837 348.46092497 202.61215346 348.46721148 196.6478009 348.4683284 C191.79588542 348.46928081 186.94398291 348.47340071 182.09207153 348.47972965 C168.31546412 348.49733256 154.5388878 348.50657015 140.76226906 348.5050687 C140.0204718 348.50498879 139.27867454 348.50490888 138.51439857 348.50482655 C137.77168831 348.50474478 137.02897805 348.50466302 136.26376142 348.50457878 C124.2355595 348.50376642 112.20748295 348.52289398 100.17931727 348.55110328 C87.80874657 348.57988505 75.43823691 348.59364063 63.0676319 348.59191573 C56.13060659 348.59125359 49.1937127 348.59666795 42.25671768 348.61827183 C35.72887476 348.63847221 29.20126095 348.637756 22.67338753 348.62323856 C20.28418955 348.62115337 17.89497409 348.62583393 15.50580597 348.63795948 C-4.66707728 348.7336697 -21.20926417 346.35551736 -36.62695885 331.92328358 C-50.65996499 317.41511922 -54.52609925 299.59564396 -54.49114037 280.05331898 C-54.49340592 279.10162496 -54.49567148 278.14993094 -54.49800569 277.16939771 C-54.50428254 274.01394201 -54.50352043 270.85852995 -54.50269127 267.70306873 C-54.50568666 265.42700108 -54.50909006 263.15093393 -54.51286888 260.87486744 C-54.52167318 254.71574875 -54.52404545 248.55664397 -54.52468467 242.39751959 C-54.52539705 238.54446647 -54.52753491 234.69141685 -54.53018188 230.8383646 C-54.53894651 218.07556065 -54.54360307 205.31276822 -54.54285141 192.549962 C-54.54281145 191.86362687 -54.5427715 191.17729174 -54.54273033 190.47015858 C-54.54268945 189.78297589 -54.54264857 189.0957932 -54.54260645 188.38778679 C-54.54220003 177.25219558 -54.55177188 166.11663819 -54.5658687 154.98105676 C-54.5802633 143.51892571 -54.58695446 132.05681797 -54.58627492 120.59467638 C-54.58602054 114.17081681 -54.58883876 107.74699556 -54.59945297 101.32314396 C-54.60916586 95.28038199 -54.60919128 89.23769475 -54.60193634 83.19493008 C-54.60089455 80.98472643 -54.60322912 78.77451804 -54.6092968 76.56432247 C-54.67001847 52.90292409 -52.49894342 33.78530744 -35.4199276 15.82172108 C-26.15165164 7.037475 -13.0733451 0.03116297 0 0 Z " fill="#443BA1" transform="translate(391.3574275970459,337.86577892303467)"/>
<path d="M0 0 C-0.48776178 8.57207766 -1.53291669 16.89886494 -3.06845093 25.34344482 C-5.28208021 37.52911432 -7.2950194 49.74390172 -9.1848278 61.98359299 C-9.51569075 64.12542562 -9.84792695 66.26704104 -10.18055725 68.40859985 C-11.1849605 74.87939319 -12.18523207 81.35064983 -13.164011 87.8253746 C-13.4784191 89.89357987 -13.79774731 91.96095524 -14.11920166 94.02807617 C-14.51762889 96.59153667 -14.9078855 99.15628455 -15.28875732 101.72241211 C-15.46956848 102.87153076 -15.65037964 104.02064941 -15.83666992 105.20458984 C-15.98955978 106.20710785 -16.14244965 107.20962585 -16.29997253 108.24252319 C-17.43661446 112.71986715 -18.95557195 115.34155623 -22.875 117.8125 C-27.98412698 119.75396825 -27.98412698 119.75396825 -31 119 C-35.84105425 114.47609443 -39.13616598 108.77204577 -42.375 103.0625 C-43.04982422 101.89364258 -43.04982422 101.89364258 -43.73828125 100.70117188 C-44.83204945 98.80453127 -45.91697043 96.90279305 -47 95 C-50.92043205 97.54685001 -54.5856018 100.1959083 -58.1875 103.1875 C-59.14398437 103.97898437 -60.10046875 104.77046875 -61.0859375 105.5859375 C-62.04757812 106.38257813 -63.00921875 107.17921875 -64 108 C-65.77035505 109.438089 -67.54118549 110.87559295 -69.3125 112.3125 C-71.20986019 113.87314557 -73.10561924 115.43573921 -75 117 C-75.50305664 117.40992188 -76.00611328 117.81984375 -76.52441406 118.2421875 C-97.5810879 135.45259584 -116.51729623 154.73500405 -129.29296875 178.90234375 C-131 182 -131 182 -133 184 C-132.44715701 155.55371525 -118.39100393 130.09557437 -99 110 C-98.51128418 109.49082031 -98.02256836 108.98164062 -97.51904297 108.45703125 C-91.22411342 101.92752009 -84.80629103 95.82786188 -77.69140625 90.18359375 C-73.83773909 87.0570336 -70.21109696 83.70094444 -66.55859375 80.34375 C-63.74115141 77.76288679 -60.87559367 75.24481068 -57.9921875 72.73828125 C-54.30367549 69.51987371 -50.65450469 66.25690811 -47 63 C-43.84164893 64.39750048 -41.67727175 66.05198234 -39.25 68.5 C-38.63640625 69.1084375 -38.0228125 69.716875 -37.390625 70.34375 C-36 72 -36 72 -36 74 C-35.34 74 -34.68 74 -34 74 C-34.03867187 72.77925781 -34.07734375 71.55851562 -34.1171875 70.30078125 C-34.11478764 64.16313174 -33.11421103 58.23150924 -32.125 52.1875 C-31.95097656 51.08857422 -31.77695312 49.98964844 -31.59765625 48.85742188 C-30.4374357 41.56522086 -29.22230656 34.28201881 -28 27 C-29.205354 27.12117188 -30.41070801 27.24234375 -31.65258789 27.3671875 C-36.14557158 27.81793413 -40.63899788 28.26412884 -45.13256836 28.70898438 C-47.07344639 28.90176219 -49.01420398 29.09575683 -50.95483398 29.29101562 C-53.75212953 29.5722518 -56.54983602 29.84903843 -59.34765625 30.125 C-60.2083522 30.21249512 -61.06904816 30.29999023 -61.95582581 30.39013672 C-66.66484094 30.84984893 -71.26864175 31.08932358 -76 31 C-76 31.66 -76 32.32 -76 33 C-75.41863281 33.26039063 -74.83726562 33.52078125 -74.23828125 33.7890625 C-71.84974503 35.08128978 -70.13955712 36.49280598 -68.1875 38.375 C-67.24970703 39.25285156 -67.24970703 39.25285156 -66.29296875 40.1484375 C-65 42 -65 42 -64.984375 43.89453125 C-66.46925718 46.97280622 -68.61797383 48.93522352 -71.0625 51.3125 C-71.56418701 51.80177979 -72.06587402 52.29105957 -72.58276367 52.79516602 C-76.59921204 56.68443434 -80.73880497 60.38421833 -85 64 C-86.03856606 64.90141637 -87.07624957 65.80385009 -88.11328125 66.70703125 C-94.61282403 72.34887391 -101.21927711 77.7906465 -108.02319336 83.06103516 C-112.39942255 86.47238267 -116.52595258 90.09229632 -120.60546875 93.85546875 C-122.99634205 95.99672396 -125.47156606 97.96156149 -128 99.9375 C-142.22969854 111.52684372 -154.45380813 125.02129828 -165 140 C-165.45842285 140.64565918 -165.9168457 141.29131836 -166.38916016 141.95654297 C-178.19583951 158.71151573 -187.70757225 177.11330178 -193 197 C-193.33 197 -193.66 197 -194 197 C-194.93036533 175.26094046 -192.15180134 155.83265057 -183 136 C-182.46503906 134.82179688 -181.93007813 133.64359375 -181.37890625 132.4296875 C-172.36496985 113.48584888 -158.19646982 95.32933405 -142.1171875 81.80078125 C-139.57772274 79.6408306 -137.13835067 77.38492038 -134.6875 75.125 C-130.15309137 70.98516007 -125.47516777 67.08274959 -120.69921875 63.2265625 C-116.33687563 59.62810291 -112.18535053 55.80098161 -108 52 C-101.33333333 46 -101.33333333 46 -99 46 C-101.22671254 43.5502622 -103.39562383 42.11279271 -106.34375 40.625 C-107.59478516 39.98304688 -107.59478516 39.98304688 -108.87109375 39.328125 C-109.73863281 38.88984375 -110.60617187 38.4515625 -111.5 38 C-113.2214494 37.13032274 -114.94031626 36.25551005 -116.65625 35.375 C-117.41744141 34.99085938 -118.17863281 34.60671875 -118.96289062 34.2109375 C-121.01582929 32.99059045 -122.46686037 31.82617409 -124 30 C-124.43359375 27.6953125 -124.43359375 27.6953125 -124.4375 25.125 C-124.45683594 24.28195312 -124.47617187 23.43890625 -124.49609375 22.5703125 C-123.81958822 19.06526811 -122.49817201 17.54067351 -120 15 C-116.96508789 13.99389648 -116.96508789 13.99389648 -113.16015625 13.43359375 C-112.43498306 13.32244736 -111.70980988 13.21130096 -110.96266174 13.0967865 C-108.31172658 12.70276953 -105.65718318 12.34939609 -103 12 C-101.38408966 11.78165497 -101.38408966 11.78165497 -99.73553467 11.55889893 C-91.34130673 10.43005369 -82.93917703 9.36820215 -74.53416824 8.32351685 C-71.00088561 7.88365408 -67.46812202 7.43965982 -63.93530273 6.99609375 C-59.75456823 6.47147453 -55.57376631 5.94741563 -51.39265442 5.42581177 C-43.93942426 4.49587992 -36.48794997 3.55395497 -29.0390625 2.58984375 C-26.86186817 2.30988608 -24.68462408 2.03031967 -22.50735474 1.75094604 C-20.63202974 1.50897147 -18.75728582 1.26250649 -16.88256836 1.01586914 C-11.19988718 0.29251231 -5.72893001 -0.16706479 0 0 Z " fill="#FBFBFB" transform="translate(607,420)"/>
<path d="M0 0 C0.33 0 0.66 0 1 0 C0.99907821 1.06363864 0.99815641 2.12727728 0.99720669 3.22314739 C0.9748605 29.28149743 0.95850544 55.33984621 0.94818783 81.39820385 C0.94306381 94.00058015 0.93609677 106.60295007 0.92456055 119.20532227 C0.91449321 130.20845031 0.90811838 141.21157372 0.90591151 152.21470624 C0.90462453 158.02356212 0.90167002 163.83240476 0.89426994 169.64125633 C0.86790314 191.22828619 0.88008807 212.80696525 1.44360352 234.38793945 C1.46307537 235.17215283 1.48254722 235.9563662 1.50260913 236.76434362 C1.5584117 238.93667615 1.62109319 241.10866985 1.68702698 243.28071594 C1.72306314 244.49031133 1.75909929 245.69990671 1.79622746 246.9461565 C1.96522072 249.47877921 2.26839132 251.58715233 3 254 C3.26296875 254.89074219 3.5259375 255.78148437 3.796875 256.69921875 C5.89225163 263.26873976 8.38110135 269.12670547 12 275 C10.2265625 274.9140625 10.2265625 274.9140625 8 274 C6.59074174 271.78205346 5.4719985 269.73888615 4.375 267.375 C4.0759375 266.77042969 3.776875 266.16585938 3.46875 265.54296875 C-1.72437787 254.7660795 -2.15720713 243.66057203 -2.12698364 231.88545227 C-2.12932363 230.4526195 -2.12932363 230.4526195 -2.13171089 228.99084061 C-2.13566599 225.82371154 -2.13255274 222.6566313 -2.12939453 219.48950195 C-2.13075098 217.20532198 -2.13253229 214.92114223 -2.13470459 212.63696289 C-2.13924911 206.45751666 -2.13750184 200.27808719 -2.1343255 194.09864068 C-2.13178741 187.62282279 -2.13414339 181.1470063 -2.13571167 174.67118835 C-2.13764499 163.105767 -2.13454538 151.54035327 -2.12945233 139.97493311 C-2.12498194 129.49915412 -2.12576398 119.02338621 -2.13037109 108.54760742 C-2.13572783 96.36174031 -2.13771208 84.17588109 -2.13475883 71.99001282 C-2.13320114 65.54676338 -2.13298848 59.10352155 -2.13629532 52.6602726 C-2.13918615 46.60523087 -2.13717601 40.55021006 -2.13140106 34.49517059 C-2.13008015 32.27480542 -2.13045622 30.05443849 -2.13266373 27.83407402 C-2.1354014 24.80055794 -2.13196212 21.76710864 -2.12698364 18.7335968 C-2.12921436 17.8578119 -2.13144509 16.98202699 -2.13374341 16.07970315 C-2.08929345 2.08929345 -2.08929345 2.08929345 0 0 Z " fill="#511F9D" transform="translate(339,386)"/>
<path d="M0 0 C17.56236058 1.08363501 30.11987172 8.20033503 41.97265625 21.15625 C53.23625109 34.82109473 56.1779492 49.6075796 56.12025452 66.8139801 C56.12110894 67.76088697 56.12196337 68.70779384 56.12284368 69.68339485 C56.12448155 72.83395284 56.119005 75.98445674 56.11352539 79.13500977 C56.11324313 81.40231831 56.11340202 83.66962694 56.1139679 85.93693542 C56.11425434 92.07671057 56.10838227 98.2164661 56.10139394 104.3562367 C56.09513499 110.77841927 56.09455459 117.20060232 56.09336853 123.62278748 C56.09061539 134.39704796 56.08437275 145.17129989 56.07543945 155.94555664 C56.06625059 167.0396318 56.05917697 178.133705 56.05493164 189.2277832 C56.05466892 189.91242767 56.05440619 190.59707215 56.05413551 191.30246342 C56.0528304 194.73736409 56.05156671 198.17226477 56.05032361 201.60716546 C56.03996873 230.07144857 56.02229123 258.5357239 56 287 C55.67 287 55.34 287 55 287 C55 255.32 55 223.64 55 191 C54.34 191 53.68 191 53 191 C52.976843 179.33454433 52.95906774 167.66909411 52.94818783 156.00362015 C52.94296637 150.5870406 52.93588204 145.17047676 52.92456055 139.75390625 C52.91370556 134.52789912 52.9077176 129.30190712 52.90512276 124.07588959 C52.90327323 122.08077506 52.89966165 120.08566138 52.89426994 118.09055328 C52.88702491 115.29895734 52.88601053 112.50742412 52.88647461 109.71582031 C52.88287933 108.88863495 52.87928406 108.06144958 52.87557983 107.209198 C52.88205467 103.61644518 53.12240954 100.46431265 54 97 C54.03845443 95.00036972 54.04544281 92.99948367 54 91 C53.67 91 53.34 91 53 91 C53.00523682 90.43829102 53.01047363 89.87658203 53.01586914 89.29785156 C53.0700841 82.53127583 53.05650548 75.76653159 53 69 C52.99419922 68.08814941 52.98839844 67.17629883 52.98242188 66.23681641 C52.77839068 47.96582316 49.14651886 32.40798707 36.125 18.6875 C26.54546467 9.67905236 15.89234798 5.0847201 3 3 C3 2.34 3 1.68 3 1 C2.01 0.67 1.02 0.34 0 0 Z M54 104 C55 106 55 106 55 106 Z " fill="#1E89B5" transform="translate(631,338)"/>
<path d="M0 0 C1.29657121 0.00223852 1.29657121 0.00223852 2.61933577 0.00452226 C3.57457432 0.01132605 4.52981286 0.01812984 5.51399803 0.02513981 C6.52434431 0.02836894 7.5346906 0.03159806 8.57565343 0.03492504 C11.98290392 0.04705063 15.39007578 0.06641292 18.79729271 0.08570194 C21.23105254 0.09583939 23.66481425 0.10553363 26.0985775 0.11481571 C31.349491 0.13584443 36.60038066 0.15997434 41.85126686 0.18689632 C49.44322397 0.22581596 57.03519743 0.25918706 64.62718646 0.29119159 C76.94383635 0.34326446 89.26046127 0.39984239 101.57707787 0.4592371 C113.54353933 0.51693363 125.51000752 0.57251859 137.47649193 0.62525272 C138.21375439 0.62850244 138.95101685 0.63175216 139.7106206 0.63510036 C143.40914478 0.65138972 147.10766914 0.66763745 150.80619359 0.68386447 C181.50296461 0.81859839 212.1996976 0.96071146 242.8964138 1.10743046 C242.5664138 1.76743046 242.2364138 2.42743046 241.8964138 3.10743046 C160.0564138 3.10743046 78.2164138 3.10743046 -6.1035862 3.10743046 C-6.1035862 2.44743046 -6.1035862 1.78743046 -6.1035862 1.10743046 C-3.80743729 -0.040644 -2.55166086 -0.01163371 0 0 Z " fill="#3F138F" transform="translate(392.1035861968994,682.8925695419312)"/>
<path d="M0 0 C0.33 0 0.66 0 1 0 C1.8721623 38.36649426 2.13446723 76.70544359 2.07202661 115.07961047 C2.0604993 122.29949038 2.05526564 129.51937171 2.05032361 136.73925865 C2.04009579 151.49284884 2.02271653 166.24642338 2 181 C1.67 181 1.34 181 1 181 C1 149.32 1 117.64 1 85 C0.34 85 -0.32 85 -1 85 C-1.02322019 75.09861753 -1.04096431 65.1972416 -1.05181217 55.2958374 C-1.05701987 50.6977034 -1.06407899 46.09958809 -1.07543945 41.50146484 C-1.08634362 37.05998553 -1.09229275 32.61852414 -1.09487724 28.17703247 C-1.09671795 26.48666095 -1.10031232 24.79629035 -1.10573006 23.10592651 C-1.11304054 20.72945064 -1.11398675 18.35304789 -1.11352539 15.9765625 C-1.11712067 15.28531784 -1.12071594 14.59407318 -1.12442017 13.88188171 C-1.11458203 9.16638913 -0.65588528 4.65923617 0 0 Z " fill="#516ECC" transform="translate(685,444)"/>
<path d="M0 0 C1.40508064 0.01055923 1.40508064 0.01055923 2.83854675 0.02133179 C4.38465889 0.04075081 4.38465889 0.04075081 5.96200562 0.06056213 C7.58641319 0.07497345 7.58641319 0.07497345 9.24363708 0.0896759 C12.83651042 0.12275547 16.42926554 0.16305368 20.02206421 0.2033844 C22.5078489 0.22767676 24.99363801 0.25152075 27.47943115 0.27493286 C33.36199978 0.33142373 39.24450781 0.39244937 45.12700784 0.4556542 C52.48000248 0.53438243 59.83306261 0.60610183 67.18612671 0.67799377 C80.30597895 0.80711956 93.42575895 0.94250385 106.54550171 1.08229065 C106.54550171 1.41229065 106.54550171 1.74229065 106.54550171 2.08229065 C99.65693829 2.89729365 92.88856858 3.2227015 85.95516968 3.19581604 C84.94909164 3.19596207 83.94301361 3.19610809 82.90644836 3.19625854 C79.61683921 3.1955679 76.32728834 3.18781563 73.03768921 3.1799469 C70.74269644 3.1780797 68.44770327 3.17665722 66.15270996 3.17565918 C60.13911826 3.17185777 54.12555107 3.16204797 48.11196899 3.1509552 C41.9648166 3.14068979 35.81766022 3.1361506 29.67050171 3.13111877 C17.62882433 3.1204234 5.58716507 3.10337578 -6.45449829 3.08229065 C-6.45449829 2.42229065 -6.45449829 1.76229065 -6.45449829 1.08229065 C-4.06950716 -0.11020491 -2.66019343 -0.02702228 0 0 Z " fill="#47038E" transform="translate(392.4544982910156,682.9177093505859)"/>
<path d="M0 0 C2 2 2 2 2.21118164 4.76098633 C2.19434326 5.93943115 2.17750488 7.11787598 2.16015625 8.33203125 C2.15454681 8.98406021 2.14893738 9.63608917 2.14315796 10.30787659 C2.13059695 11.72919747 2.11385361 13.15048601 2.09347534 14.57171631 C2.04054787 18.40053651 2.02384124 22.22946654 2.0078125 26.05859375 C2.00408127 26.86069275 2.00035004 27.66279175 1.99650574 28.48919678 C1.9692317 37.78855237 2.18741984 47.07960467 2.4375 56.375 C2.45732941 57.18280914 2.47715881 57.99061829 2.49758911 58.82290649 C2.55452843 61.11908771 2.61785623 63.41499316 2.68359375 65.7109375 C2.73858032 67.68006104 2.73858032 67.68006104 2.79467773 69.68896484 C2.95860096 72.33239746 3.22423927 74.49262411 4 77 C4.26296875 77.89074219 4.5259375 78.78148437 4.796875 79.69921875 C6.89225163 86.26873976 9.38110135 92.12670547 13 98 C11.2265625 97.9140625 11.2265625 97.9140625 9 97 C7.59074174 94.78205346 6.4719985 92.73888615 5.375 90.375 C4.92640625 89.46814453 4.92640625 89.46814453 4.46875 88.54296875 C1.27133094 81.90761681 -0.30467048 75.62839527 -0.22705078 68.22875977 C-0.22734283 67.48646622 -0.22763489 66.74417267 -0.22793579 65.97938538 C-0.22655342 63.54993596 -0.21104439 61.12080143 -0.1953125 58.69140625 C-0.19157847 56.99747383 -0.18873334 55.30353924 -0.18673706 53.60960388 C-0.17913128 49.16921946 -0.15950928 44.7289676 -0.1373291 40.28863525 C-0.1168046 35.75038445 -0.10772126 31.21211205 -0.09765625 26.67382812 C-0.0762603 17.78249411 -0.04216155 8.89125811 0 0 Z " fill="#510896" transform="translate(338,563)"/>
<path d="M0 0 C0.33 0 0.66 0 1 0 C1 34.32 1 68.64 1 104 C0.67 104 0.34 104 0 104 C-0.33 85.85 -0.66 67.7 -1 49 C-1.33 49 -1.66 49 -2 49 C-2.06696462 46.58927363 -2.11064198 44.43123658 -1.50892639 42.08599854 C-0.98802828 39.95093007 -0.84327937 38.06804012 -0.79467773 35.87402344 C-0.7647599 34.67323151 -0.7647599 34.67323151 -0.73423767 33.44818115 C-0.71752518 32.59387512 -0.70081268 31.73956909 -0.68359375 30.859375 C-0.66281265 29.97719299 -0.64203156 29.09501099 -0.62062073 28.18609619 C-0.55535133 25.37414169 -0.49634553 22.56209555 -0.4375 19.75 C-0.39429327 17.84113644 -0.35067829 15.93228207 -0.30664062 14.0234375 C-0.19969313 9.34905174 -0.09836215 4.67457398 0 0 Z " fill="#4592C4" transform="translate(686,395)"/>
<path d="M0 0 C0.66 0 1.32 0 2 0 C4.21450644 5.35619379 4.2614666 10.08424909 4.1953125 15.7734375 C4.1924826 16.6971817 4.18965271 17.6209259 4.18673706 18.57266235 C4.17559179 21.50690976 4.15049765 24.4408457 4.125 27.375 C4.11496289 29.37108932 4.10583832 31.36718346 4.09765625 33.36328125 C4.07567097 38.24230649 4.04118017 43.12110054 4 48 C3.01 48.495 3.01 48.495 2 49 C2.00785522 48.15743652 2.00785522 48.15743652 2.01586914 47.29785156 C2.09937851 36.8750361 2.08193305 26.47481637 1.5625 16.0625 C1.52326416 15.25393555 1.48402832 14.44537109 1.44360352 13.61230469 C1.19273424 9.02250442 0.71942465 4.54023456 0 0 Z " fill="#1F77AA" transform="translate(682,380)"/>
<path d="M0 0 C0.99 0.33 1.98 0.66 3 1 C2.50371094 1.4125 2.00742187 1.825 1.49609375 2.25 C-3.4811566 6.48113502 -7.82619038 10.9783853 -12 16 C-12.33 15.01 -12.66 14.02 -13 13 C-9.69963234 7.95982192 -4.90871329 3.45841163 0 0 Z " fill="#2F2893" transform="translate(362,349)"/>
<path d="M0 0 C4.66666667 4 9.33333333 8 14 12 C13.01 12.495 13.01 12.495 12 13 C6.6491117 10.47599608 3.39952971 7.84175443 0 3 C0 2.01 0 1.02 0 0 Z " fill="#550798" transform="translate(351,662)"/>
<path d="M0 0 C13.80555556 0.80555556 13.80555556 0.80555556 19 6 C13.63486869 5.152874 8.3212615 4.08318169 3 3 C3 2.34 3 1.68 3 1 C2.01 0.67 1.02 0.34 0 0 Z " fill="#0D79AA" transform="translate(631,338)"/>
<path d="M0 0 C3.72007056 4.11864955 8 10.20736961 8 16 C7.01 16.33 6.02 16.66 5 17 C4.72736328 16.12988281 4.72736328 16.12988281 4.44921875 15.2421875 C3.24820983 11.50982132 2.0344703 8.06770952 0.25 4.5625 C-0.1625 3.716875 -0.575 2.87125 -1 2 C-0.67 1.34 -0.34 0.68 0 0 Z " fill="#2B8EB8" transform="translate(676,364)"/>
<path d="M0 0 C4.08055151 0.50547372 5.66272295 2.50088882 8.25 5.5625 C8.95640625 6.38878906 9.6628125 7.21507812 10.390625 8.06640625 C10.92171875 8.70449219 11.4528125 9.34257812 12 10 C11.67 10.99 11.34 11.98 11 13 C9.16365966 11.02354928 7.33083938 9.044035 5.5 7.0625 C4.71302734 6.21655273 4.71302734 6.21655273 3.91015625 5.35351562 C0 1.11328125 0 1.11328125 0 0 Z " fill="#0F7FA9" transform="translate(664,353)"/>
<path d="M0 0 C3.74525799 3.74525799 3.68909949 7.98270909 4 13 C3.01 12.67 2.02 12.34 1 12 C0.03929566 9.11788698 -0.10581883 7.30149956 -0.0625 4.3125 C-0.05347656 3.50425781 -0.04445313 2.69601562 -0.03515625 1.86328125 C-0.02355469 1.24839844 -0.01195312 0.63351562 0 0 Z " fill="#4A0290" transform="translate(339,633)"/>
<path d="M0 0 C0.33 0.99 0.66 1.98 1 3 C-0.98 4.98 -2.96 6.96 -5 9 C-5.99 8.67 -6.98 8.34 -8 8 C-5.36 5.36 -2.72 2.72 0 0 Z " fill="#382794" transform="translate(671,663)"/>
<path d="M0 0 C3.66881155 0.70554068 6.70450534 2.27735506 10 4 C9.01 4.66 8.02 5.32 7 6 C4.0625 4.6875 4.0625 4.6875 1 3 C0.67 2.01 0.34 1.02 0 0 Z " fill="#2A8EB8" transform="translate(648,342)"/>
<path d="M0 0 C0.66 0 1.32 0 2 0 C2.96070434 2.88211302 3.10581883 4.69850044 3.0625 7.6875 C3.05347656 8.49574219 3.04445313 9.30398438 3.03515625 10.13671875 C3.02355469 10.75160156 3.01195312 11.36648438 3 12 C2.67 12 2.34 12 2 12 C0.86235649 7.73383684 0 4.43513689 0 0 Z " fill="#117DA9" transform="translate(682,380)"/>
<path d="M0 0 C1.98 0 3.96 0 6 0 C5.01 0.495 5.01 0.495 4 1 C4.99 2.32 5.98 3.64 7 5 C6.67 5.66 6.34 6.32 6 7 C3.95880212 5.38405168 1.95927063 3.7143618 0 2 C0 1.34 0 0.68 0 0 Z " fill="#5061A8" transform="translate(531,451)"/>
<path d="M0 0 C2.66735273 2.48952921 4.55746343 4.63408134 6 8 C4.125 7.75 4.125 7.75 2 7 C0.27898465 4.41847698 0 3.15081975 0 0 Z " fill="#4B0697" transform="translate(345,653)"/>
<path d="M0 0 C0.66 0 1.32 0 2 0 C1.34 2.97 0.68 5.94 0 9 C-0.33 9 -0.66 9 -1 9 C-1.09765625 2.84765625 -1.09765625 2.84765625 -1 1 C-0.67 0.67 -0.34 0.34 0 0 Z " fill="#DDD6E7" transform="translate(414,608)"/>
<path d="M0 0 C3.3 0.33 6.6 0.66 10 1 C7 3 7 3 3 3 C3 2.34 3 1.68 3 1 C2.01 0.67 1.02 0.34 0 0 Z " fill="#227BB8" transform="translate(631,338)"/>
<path d="" fill="#FFFFFF" transform="translate(0,0)"/>
<path d="" fill="#FFFFFF" transform="translate(0,0)"/>
</svg>
