<?xml version="1.0" standalone="no"?>
<!DOCTYPE svg PUBLIC "-//W3C//DTD SVG 20010904//EN"
 "http://www.w3.org/TR/2001/REC-SVG-20010904/DTD/svg10.dtd">
<svg version="1.0" xmlns="http://www.w3.org/2000/svg"
 width="1024.000000pt" height="1024.000000pt" viewBox="0 0 1024.000000 1024.000000"
 preserveAspectRatio="xMidYMid meet">

<g transform="translate(0.000000,1024.000000) scale(0.100000,-0.100000)"
fill="#000000" stroke="none">
<path d="M3855 6840 c-117 -24 -243 -96 -320 -183 -25 -29 -64 -88 -86 -132
-73 -147 -70 -84 -66 -1438 3 -1344 -2 -1246 69 -1387 45 -89 152 -195 244
-243 138 -71 64 -68 1452 -65 l1247 3 62 23 c186 70 328 225 378 412 23 85 22
2478 0 2565 -58 226 -230 394 -450 440 -60 12 -251 15 -1280 14 -665 -1 -1228
-5 -1250 -9z m2211 -852 c-6 -51 -22 -153 -121 -773 -25 -154 -50 -290 -55
-303 -12 -29 -67 -62 -103 -62 -34 0 -53 22 -126 141 -31 51 -61 94 -66 96
-20 6 -362 -282 -505 -426 -146 -148 -225 -246 -307 -388 l-45 -78 7 60 c13
110 54 246 108 359 88 180 184 299 380 469 72 61 183 159 246 215 64 57 122
106 128 109 7 3 35 -19 62 -49 48 -52 49 -52 55 -28 7 29 66 419 66 435 0 7
-78 1 -232 -17 -128 -14 -235 -27 -238 -27 -2 -1 22 -27 53 -59 l58 -59 -98
-94 c-54 -52 -206 -184 -338 -294 -254 -211 -416 -365 -508 -481 -135 -172
-260 -395 -327 -585 l-30 -84 4 145 c4 171 28 276 100 447 113 268 249 425
709 817 102 87 135 121 125 127 -7 5 -57 32 -110 61 -113 59 -132 77 -132 122
0 57 22 95 63 106 44 11 547 80 841 114 118 14 229 27 245 29 17 2 45 5 64 6
l34 1 -7 -52z"/>
</g>
</svg>
