<?xml version="1.0" encoding="UTF-8"?>
<svg version="1.1" xmlns="http://www.w3.org/2000/svg" width="1024" height="1024">
<path d="M0 0 C1.95319405 -0.00788544 1.95319405 -0.00788544 3.94584656 -0.01593018 C7.48928805 -0.02950584 11.03246496 -0.02434594 14.57591057 -0.01479292 C18.30146827 -0.00714532 22.02700479 -0.01425599 25.75256348 -0.01895142 C32.00646999 -0.02439423 38.26026987 -0.01725626 44.51416016 -0.00292969 C51.72264925 0.01339404 58.9308837 0.00810448 66.13936663 -0.0084089 C72.35200938 -0.022066 78.56457591 -0.02392288 84.77722883 -0.0160929 C88.4774489 -0.01143949 92.17754966 -0.0107267 95.87776184 -0.02070236 C100.00589843 -0.03105628 104.1336028 -0.01666603 108.26171875 0 C110.07774849 -0.00910904 110.07774849 -0.00910904 111.9304657 -0.0184021 C122.58615772 0.06100335 131.75303845 1.68256446 139.63085938 9.32958984 C146.93838634 17.05353839 150.74478599 24.97488547 150.76457214 35.68110657 C150.77096962 37.25172852 150.77096962 37.25172852 150.77749634 38.8540802 C150.77704315 39.99237778 150.77658997 41.13067535 150.77612305 42.3034668 C150.77948166 43.51054291 150.78284027 44.71761902 150.78630066 45.96127319 C150.79416456 49.26514718 150.79747777 52.5689583 150.79811645 55.87283731 C150.79882842 57.93983175 150.80096556 60.00681966 150.80361366 62.07381248 C150.81285957 69.29310904 150.81694956 76.51238717 150.81616211 83.73168945 C150.81556177 90.44757239 150.82610684 97.16337488 150.84190577 103.87923747 C150.85500847 109.65606478 150.86034485 115.43286588 150.8597067 121.20970792 C150.85945248 124.65506043 150.86226141 128.10034145 150.87288475 131.54567909 C150.88442127 135.39205655 150.87980221 139.23832488 150.8737793 143.0847168 C150.8793988 144.21694168 150.88501831 145.34916656 150.89080811 146.51570129 C150.84835767 157.19833025 148.96751357 167.46083103 141.58398438 175.66162109 C133.46942405 183.18857533 126.03631769 186.50257833 114.91397095 186.52189636 C113.79820175 186.52616135 112.68243256 186.53042633 111.53285217 186.53482056 C110.32334396 186.53436737 109.11383575 186.53391418 107.86767578 186.53344727 C106.58242508 186.53680588 105.29717438 186.54016449 103.97297668 186.54362488 C100.45843932 186.5524326 96.94392632 186.55480162 93.42937899 186.55544066 C91.23054916 186.55615295 89.03172548 186.55829064 86.83289719 186.56093788 C79.15324258 186.57018032 71.4736053 186.57427411 63.79394531 186.57348633 C56.64917545 186.57288569 49.50448112 186.58343757 42.35973036 186.59922999 C36.21345943 186.61232858 30.06721313 186.61766926 23.92092836 186.61703092 C20.25538052 186.61677663 16.58989986 186.61958949 12.924366 186.63020897 C8.83380257 186.64173713 4.74340728 186.63712896 0.65283203 186.63110352 C-0.55262772 186.63672302 -1.75808746 186.64234253 -3.00007629 186.64813232 C-14.3000024 186.60586637 -23.53981681 184.56980476 -32.18164062 176.88818359 C-32.90351563 176.06318359 -33.62539062 175.23818359 -34.36914062 174.38818359 C-35.04976562 173.68693359 -35.73039063 172.98568359 -36.43164062 172.26318359 C-42.06563903 163.90305692 -42.95552698 155.22765027 -42.88671875 145.38037109 C-42.89372803 144.12846985 -42.9007373 142.8765686 -42.90795898 141.58673096 C-42.92244728 138.18557795 -42.91919402 134.78541114 -42.90644264 131.38431549 C-42.89622928 127.80470067 -42.90573123 124.2251245 -42.9119873 120.64550781 C-42.9192397 114.63713119 -42.90973973 108.62895203 -42.890625 102.62060547 C-42.86886072 95.70003623 -42.87591381 88.77993856 -42.89793062 81.85938072 C-42.91615377 75.88956896 -42.91860939 69.91989815 -42.90817595 63.95006752 C-42.90197875 60.39678864 -42.90100001 56.84373051 -42.9143219 53.29046631 C-42.92815239 49.32546025 -42.90891827 45.36097129 -42.88671875 41.39599609 C-42.89481567 40.23722961 -42.9029126 39.07846313 -42.91125488 37.88458252 C-42.81073187 28.14300463 -40.60311079 19.0767468 -34.36914062 11.38818359 C-33.70914063 11.38818359 -33.04914063 11.38818359 -32.36914062 11.38818359 C-32.36914062 10.72818359 -32.36914062 10.06818359 -32.36914062 9.38818359 C-30.75195312 7.98583984 -30.75195312 7.98583984 -28.49414062 6.45068359 C-27.77484375 5.94666016 -27.05554688 5.44263672 -26.31445312 4.92333984 C-17.77863633 0.47430005 -9.48865907 -0.04759425 0 0 Z " fill="#483EA2" transform="translate(196.369140625,418.61181640625)"/>
<path d="M0 0 C-1.390676 11.84417242 -3.06141393 23.63457371 -4.921875 35.41381836 C-5.22742645 37.36845866 -5.5257745 39.32423685 -5.81738281 41.28100586 C-6.24470318 44.14457345 -6.69403668 47.00390213 -7.1484375 49.86328125 C-7.2746347 50.73817703 -7.40083191 51.61307281 -7.53085327 52.51448059 C-8.51584142 58.48862523 -8.51584142 58.48862523 -10.95874023 61.06884766 C-13 62 -13 62 -15.51171875 62.03515625 C-18.97113808 60.59599436 -19.93701129 58.6368631 -21.8125 55.4375 C-22.41707031 54.42558594 -23.02164063 53.41367187 -23.64453125 52.37109375 C-24.09183594 51.58863281 -24.53914063 50.80617188 -25 50 C-27.77283059 51.29720182 -30.09192734 52.72702382 -32.46875 54.65234375 C-33.11642334 55.17586426 -33.76409668 55.69938477 -34.43139648 56.23876953 C-35.11403564 56.79935059 -35.7966748 57.35993164 -36.5 57.9375 C-37.20906494 58.51870605 -37.91812988 59.09991211 -38.64868164 59.69873047 C-57.21437113 74.95926812 -57.21437113 74.95926812 -70 95 C-70.33 95 -70.66 95 -71 95 C-71.6030025 80.60103125 -63.43564938 67.31380878 -53.99609375 56.94921875 C-50.8479687 53.87502227 -47.42558401 51.17373904 -43.98046875 48.44140625 C-39.71261023 44.94545399 -35.73285768 41.1731349 -31.7265625 37.3828125 C-29.25353264 35.22156864 -26.87055286 33.57619448 -24 32 C-22.35 33.65 -20.7 35.3 -19 37 C-17.68 29.08 -16.36 21.16 -15 13 C-17.495625 13.309375 -19.99125 13.61875 -22.5625 13.9375 C-23.33408447 14.03281006 -24.10566895 14.12812012 -24.90063477 14.22631836 C-29.27461014 14.77090533 -33.63839259 15.36381285 -38 16 C-38.22609337 18.12364481 -38.22609337 18.12364481 -36.5 19.625 C-36.005 20.07875 -35.51 20.5325 -35 21 C-38.81498046 29.62185583 -47.78342512 35.35503476 -55 41 C-62.21134751 46.77733134 -69.22653323 52.71358854 -76 59 C-76.68835938 59.62261719 -77.37671875 60.24523437 -78.0859375 60.88671875 C-86.40885721 68.73263318 -92.32191509 78.23821366 -97.4375 88.375 C-97.7675 89.02855469 -98.0975 89.68210937 -98.4375 90.35546875 C-100.45251829 94.49510884 -101.85346866 98.54062685 -103 103 C-103.33 103 -103.66 103 -104 103 C-105.28847224 83.07162938 -98.47893274 65.84171128 -85.4453125 50.62109375 C-77.42460708 42.02382005 -68.17880582 34.68206638 -58.9765625 27.3984375 C-57.61688117 26.30686235 -56.30126826 25.16059061 -55 24 C-55 23.34 -55 22.68 -55 22 C-55.78246094 21.57847656 -56.56492188 21.15695312 -57.37109375 20.72265625 C-58.38300781 20.17480469 -59.39492187 19.62695312 -60.4375 19.0625 C-61.44683594 18.51722656 -62.45617187 17.97195313 -63.49609375 17.41015625 C-66 16 -66 16 -67 15 C-67.1875 12.0625 -67.1875 12.0625 -67 9 C-64.25880219 6.25880219 -61.43684957 6.26904751 -57.74609375 5.78125 C-57.01238052 5.67784302 -56.2786673 5.57443604 -55.52272034 5.46789551 C-53.16199625 5.1374063 -50.79983171 4.81877131 -48.4375 4.5 C-46.90419497 4.28588473 -45.37099049 4.07104814 -43.83789062 3.85546875 C-36.17419943 2.78648156 -28.50146741 1.7868119 -20.8203125 0.8515625 C-20.14419418 0.76684692 -19.46807587 0.68213135 -18.77146912 0.59484863 C-12.50612818 -0.14915664 -6.29867351 -0.19717587 0 0 Z " fill="#FAF9FA" transform="translate(302,464)"/>
<path d="M0 0 C3.96 0 7.92 0 12 0 C15.3383568 7.2203451 18.09434667 14.56698335 20.75 22.0625 C21.16121094 23.21427734 21.57242188 24.36605469 21.99609375 25.55273438 C23.00049776 28.36740143 24.00172189 31.18315573 25 34 C26.60473123 29.83355055 28.20868296 25.66680143 29.8125 21.5 C30.26431641 20.32695312 30.71613281 19.15390625 31.18164062 17.9453125 C33.48003233 11.97284937 35.76601813 5.99686827 38 0 C41.63 0 45.26 0 49 0 C52.06908387 7.45151444 54.738371 14.96918273 57.25 22.625 C57.61351562 23.72457031 57.97703125 24.82414063 58.3515625 25.95703125 C59.23715622 28.63711752 60.11991207 31.31810177 61 34 C64.20855734 27.17064867 66.76466982 20.2037124 69.1875 13.0625 C69.88817941 11.01132777 70.58994649 8.96052667 71.29296875 6.91015625 C71.74965942 5.56642944 71.74965942 5.56642944 72.21557617 4.19555664 C73 2 73 2 74 0 C77.63 0 81.26 0 85 0 C84.43402282 4.73115136 83.4942296 8.96880462 81.92578125 13.46484375 C81.50804443 14.67043945 81.09030762 15.87603516 80.65991211 17.11816406 C80.21110576 18.39139277 79.7619628 19.66450288 79.3125 20.9375 C78.85719272 22.24045142 78.40219718 23.54351182 77.94750977 24.84667969 C68.68561493 51.31438507 68.68561493 51.31438507 67 53 C65.14712498 53.07226502 63.29166122 53.0838122 61.4375 53.0625 C60.42558594 53.05347656 59.41367187 53.04445313 58.37109375 53.03515625 C57.19740234 53.01775391 57.19740234 53.01775391 56 53 C52.89293107 46.31161981 50.28523919 39.50751044 47.8125 32.5625 C47.11170289 30.60510118 46.4099297 28.64805146 45.70703125 26.69140625 C45.4025708 25.83748291 45.09811035 24.98355957 44.78442383 24.10375977 C44.03714776 21.98550791 44.03714776 21.98550791 43 20 C42.74307373 20.7206665 42.48614746 21.44133301 42.22143555 22.18383789 C41.04573576 25.47754376 39.86664774 28.77002701 38.6875 32.0625 C38.28337891 33.19623047 37.87925781 34.32996094 37.46289062 35.49804688 C31.85014205 51.14985795 31.85014205 51.14985795 30 53 C28.35659133 53.09854655 26.7088539 53.12972411 25.0625 53.125 C24.16660156 53.12757813 23.27070312 53.13015625 22.34765625 53.1328125 C20 53 20 53 18 52 C17.1496582 50.27612305 17.1496582 50.27612305 16.30078125 48.01171875 C15.98197998 47.16947754 15.66317871 46.32723633 15.3347168 45.45947266 C14.82871948 44.08734619 14.82871948 44.08734619 14.3125 42.6875 C13.9616333 41.75212402 13.6107666 40.81674805 13.24926758 39.85302734 C10.50665176 32.49454901 7.88410273 25.09457261 5.34692383 17.6628418 C4.12271857 14.09580584 2.8597895 10.6151615 1.30078125 7.1796875 C0 4 0 4 0 0 Z " fill="#2896B7" transform="translate(788,489)"/>
<path d="M0 0 C5.41774266 4.40124005 8.14419041 9.88313462 9.30859375 16.71484375 C9.59081724 19.64509007 9.81788026 22.49440587 9.75 25.4375 C8.75 26.4375 8.75 26.4375 5.05639648 26.55102539 C3.41128708 26.55086624 1.76617269 26.54516988 0.12109375 26.53515625 C-1.17525246 26.53303383 -1.17525246 26.53303383 -2.49778748 26.53086853 C-5.26939292 26.52525239 -8.0409188 26.51269719 -10.8125 26.5 C-12.6868478 26.49498708 -14.56119685 26.49042381 -16.43554688 26.48632812 C-21.04039544 26.47527772 -25.64518421 26.4580023 -30.25 26.4375 C-27.76304637 31.82696217 -27.76304637 31.82696217 -23.25 35.4375 C-17.33966561 36.91260858 -11.93096419 36.70988568 -6.25 34.4375 C-3.89040542 32.94263154 -3.89040542 32.94263154 -2.25 31.4375 C1.10915158 32.87713639 3.46624938 34.56166589 5.75 37.4375 C5.50554763 39.90157984 5.09532135 41.09312995 3.33203125 42.8515625 C2.74808594 43.25117187 2.16414063 43.65078125 1.5625 44.0625 C0.99144531 44.46726562 0.42039062 44.87203125 -0.16796875 45.2890625 C-8.00823191 49.61371047 -18.47253332 49.91175012 -27.08203125 47.71484375 C-29.3009589 46.78115528 -31.23820086 45.75572384 -33.25 44.4375 C-33.82105469 44.06367187 -34.39210938 43.68984375 -34.98046875 43.3046875 C-39.92467673 39.61789537 -43.1073101 34.49919787 -44.25 28.4375 C-44.90926398 18.85281592 -44.56191417 11.30684991 -38.4375 3.6875 C-27.90261314 -7.67568263 -12.6700406 -8.40700062 0 0 Z M-28.25 10.4375 C-29.24 12.4175 -30.23 14.3975 -31.25 16.4375 C-22.01 16.4375 -12.77 16.4375 -3.25 16.4375 C-5.63281525 11.17737614 -5.63281525 11.17737614 -9.25 7.4375 C-16.12771046 5.14492985 -22.77695091 5.36491792 -28.25 10.4375 Z " fill="#601F9B" transform="translate(429.25,493.5625)"/>
<path d="M0 0 C5.79917139 4.73005041 9.12419214 9.43393276 10.21484375 16.88671875 C10.50408066 20.1141794 10.7464485 23.28293314 10.72265625 26.5234375 C9.72265625 27.5234375 9.72265625 27.5234375 6.02905273 27.63696289 C4.38394333 27.63680374 2.73882894 27.63110738 1.09375 27.62109375 C-0.20259621 27.61897133 -0.20259621 27.61897133 -1.52513123 27.61680603 C-4.29673667 27.61118989 -7.06826255 27.59863469 -9.83984375 27.5859375 C-11.71419155 27.58092458 -13.5885406 27.57636131 -15.46289062 27.57226562 C-20.06773919 27.56121522 -24.67252796 27.5439398 -29.27734375 27.5234375 C-28.65641846 28.65080322 -28.03549316 29.77816895 -27.39575195 30.93969727 C-27.04648148 31.57384048 -26.697211 32.2079837 -26.33735657 32.86134338 C-24.53040946 35.69462625 -22.43668655 36.17118437 -19.35546875 37.08984375 C-13.05141457 38.40516333 -9.02331102 37.18360753 -3.27734375 34.5234375 C-0.65234375 33.5234375 -0.65234375 33.5234375 1.72265625 33.5234375 C4.59765625 35.7109375 4.59765625 35.7109375 6.72265625 38.5234375 C6.91015625 40.5234375 6.91015625 40.5234375 5.72265625 42.5234375 C-0.97091652 49.06134578 -7.65914286 49.97862765 -16.80224609 49.95507812 C-24.37078591 49.75268457 -29.76121317 47.78935654 -35.36328125 42.5859375 C-40.99507625 36.51739105 -42.66867575 31.50941022 -42.65234375 23.2109375 C-42.65218262 22.45345215 -42.65202148 21.6959668 -42.65185547 20.91552734 C-42.53351393 15.14170581 -41.57268489 11.36952741 -38.27734375 6.5234375 C-37.61734375 5.5334375 -36.95734375 4.5434375 -36.27734375 3.5234375 C-35.61734375 3.5234375 -34.95734375 3.5234375 -34.27734375 3.5234375 C-34.27734375 2.8634375 -34.27734375 2.2034375 -34.27734375 1.5234375 C-23.5728675 -5.16686016 -11.18754429 -7.25367366 0 0 Z M-27.27734375 11.5234375 C-27.93734375 13.5034375 -28.59734375 15.4834375 -29.27734375 17.5234375 C-20.36734375 17.5234375 -11.45734375 17.5234375 -2.27734375 17.5234375 C-3.70173788 11.72095228 -3.70173788 11.72095228 -6.71484375 9.1484375 C-13.74279233 5.94270657 -21.51917821 5.91291723 -27.27734375 11.5234375 Z " fill="#5542A8" transform="translate(540.27734375,492.4765625)"/>
<path d="M0 0 C6.26439381 6.47320694 8.13671587 13.92992689 8.03125 22.68359375 C7.31760453 30.85993187 2.80996232 37.45420151 -3.2421875 42.81640625 C-10.50869781 48.14618137 -19.66322408 47.79932266 -28.2421875 46.81640625 C-35.20353478 44.79681127 -40.32680971 40.89691017 -44.2421875 34.81640625 C-47.97344124 27.809288 -49.45338348 20.89467374 -47.59375 13.09765625 C-45.19126026 5.62324373 -41.8993131 0.42855046 -34.96484375 -3.4609375 C-23.02859703 -9.04177831 -10.47135465 -8.4576326 0 0 Z M-32.5546875 10.19140625 C-35.11326655 15.68761311 -34.9700282 20.85721051 -34.2421875 26.81640625 C-32.46912244 31.10131347 -30.62417966 32.90752393 -26.4921875 34.75390625 C-21.31573098 36.39569283 -16.76394295 35.88815232 -11.7421875 33.75390625 C-11.2471875 33.44453125 -10.7521875 33.13515625 -10.2421875 32.81640625 C-10.2421875 32.15640625 -10.2421875 31.49640625 -10.2421875 30.81640625 C-9.5821875 30.81640625 -8.9221875 30.81640625 -8.2421875 30.81640625 C-5.20265837 24.0510027 -4.71671325 18.86309538 -7.2421875 11.81640625 C-9.48068003 8.2348182 -11.37447503 6.40654298 -15.2421875 4.81640625 C-22.66775502 3.88670105 -27.27216484 4.76611271 -32.5546875 10.19140625 Z " fill="#3A79B3" transform="translate(778.2421875,495.18359375)"/>
<path d="M0 0 C5.62399993 5.23099753 7.76846977 10.19545806 8.24291992 17.99169922 C8.24926615 19.42935396 8.24469105 20.8670891 8.23046875 22.3046875 C8.23001053 23.06927277 8.22955231 23.83385803 8.2290802 24.62161255 C8.22607917 26.22334361 8.21825804 27.82507231 8.20581055 29.42675781 C8.18739697 31.88877567 8.18530223 34.35042003 8.18554688 36.8125 C8.18063675 38.37239911 8.17481065 39.93229567 8.16796875 41.4921875 C8.16685593 42.23064911 8.1657431 42.96911072 8.16459656 43.72994995 C8.11610296 48.88389704 8.11610296 48.88389704 7 50 C5.16884117 50.09851171 3.33380067 50.12972629 1.5 50.125 C0.4996875 50.12757813 -0.500625 50.13015625 -1.53125 50.1328125 C-4 50 -4 50 -5 49 C-5.14691958 46.69548302 -5.22760209 44.38669724 -5.28125 42.078125 C-5.30886414 41.03262482 -5.30886414 41.03262482 -5.33703613 39.96600342 C-5.39594777 37.72742383 -5.44863897 35.48876478 -5.5 33.25 C-5.56791589 30.31755678 -5.64172612 27.38534137 -5.71875 24.453125 C-5.74904297 23.14504883 -5.77933594 21.83697266 -5.81054688 20.48925781 C-5.9708103 17.53760203 -6.31970742 14.86852116 -7 12 C-7.66 12 -8.32 12 -9 12 C-9 11.34 -9 10.68 -9 10 C-17.93076178 8.53700652 -17.93076178 8.53700652 -26 12 C-30.27635549 16.42381602 -30.12484102 21.68949326 -30.28125 27.578125 C-30.31863281 28.82078125 -30.35601563 30.0634375 -30.39453125 31.34375 C-30.46526532 33.96353032 -30.53557283 36.58332219 -30.60546875 39.203125 C-30.64285156 40.440625 -30.68023438 41.678125 -30.71875 42.953125 C-30.76418945 44.65710449 -30.76418945 44.65710449 -30.81054688 46.39550781 C-31 49 -31 49 -32 50 C-33.66429051 50.09823937 -35.33281931 50.12973631 -37 50.125 C-38.36125 50.12886719 -38.36125 50.12886719 -39.75 50.1328125 C-42 50 -42 50 -43 49 C-43.09340434 47.37325222 -43.11745171 45.74245949 -43.11352539 44.11303711 C-43.11344986 43.07203354 -43.11337433 42.03102997 -43.11329651 40.95848083 C-43.10813522 39.8262056 -43.10297394 38.69393036 -43.09765625 37.52734375 C-43.0962413 36.37456436 -43.09482635 35.22178497 -43.09336853 34.03407288 C-43.08775005 30.33518936 -43.07519442 26.63636536 -43.0625 22.9375 C-43.05748738 20.43684983 -43.05292406 17.93619871 -43.04882812 15.43554688 C-43.03777462 9.29034149 -43.0204976 3.14518085 -43 -3 C-39.37 -3 -35.74 -3 -32 -3 C-31.67 -1.35 -31.34 0.3 -31 2 C-30.175 1.38125 -29.35 0.7625 -28.5 0.125 C-20.218651 -5.29938012 -8.25306057 -5.75794923 0 0 Z " fill="#4D4CA9" transform="translate(605,492)"/>
<path d="M0 0 C1.39195915 4.17587745 -0.17676781 6.13474776 -2 10 C-3.26457031 9.96519531 -3.26457031 9.96519531 -4.5546875 9.9296875 C-5.65039062 9.91164063 -6.74609375 9.89359375 -7.875 9.875 C-8.96554687 9.85179687 -10.05609375 9.82859375 -11.1796875 9.8046875 C-14.1371051 9.69939466 -14.1371051 9.69939466 -16 12 C-16.33 13.98 -16.66 15.96 -17 18 C-12.38 18 -7.76 18 -3 18 C-1.37348478 21.25303044 -1.88546844 24.39225602 -2 28 C-2.495 28.495 -2.495 28.495 -3 29 C-7.62 29 -12.24 29 -17 29 C-17 42.86 -17 56.72 -17 71 C-20.96 71 -24.92 71 -29 71 C-30 70 -30 70 -30.11352539 66.12280273 C-30.11336621 64.39305833 -30.10766849 62.66330919 -30.09765625 60.93359375 C-30.0962413 60.02497086 -30.09482635 59.11634796 -30.09336853 58.18019104 C-30.08775193 55.26592779 -30.07519665 52.35174019 -30.0625 49.4375 C-30.05748714 47.46679798 -30.05292386 45.49609476 -30.04882812 43.52539062 C-30.03777711 38.68356441 -30.02050138 33.84179505 -30 29 C-32.64 29 -35.28 29 -38 29 C-38.02688151 27.35425434 -38.04634123 25.70838587 -38.0625 24.0625 C-38.07410156 23.14597656 -38.08570313 22.22945313 -38.09765625 21.28515625 C-38 19 -38 19 -37 18 C-34.66702567 17.95907063 -32.33294775 17.95758277 -30 18 C-30.061875 16.989375 -30.12375 15.97875 -30.1875 14.9375 C-29.91715292 9.26021129 -28.28541319 5.56334037 -24.6875 1.1875 C-17.36393449 -4.77354169 -7.96971933 -4.48296713 0 0 Z " fill="#3D64AF" transform="translate(701,471)"/>
<path d="M0 0 C4.29 0 8.58 0 13 0 C13.49628906 1.19753906 13.99257813 2.39507812 14.50390625 3.62890625 C18.76988718 13.87042828 23.21267224 23.9914929 28 34 C29.64322447 31.53516329 30.80332747 29.36863343 31.98828125 26.68359375 C32.36275391 25.84094971 32.73722656 24.99830566 33.12304688 24.13012695 C33.51556641 23.24156006 33.90808594 22.35299316 34.3125 21.4375 C42.95829635 2.04170365 42.95829635 2.04170365 45 0 C46.85287502 -0.07226502 48.70833878 -0.0838122 50.5625 -0.0625 C51.57441406 -0.05347656 52.58632813 -0.04445313 53.62890625 -0.03515625 C54.41136719 -0.02355469 55.19382812 -0.01195312 56 0 C55.54472799 6.96764125 52.73909752 12.70266948 49.875 19 C49.37871094 20.10835205 48.88242187 21.2167041 48.37109375 22.35864258 C43.7480537 32.65166114 39.0769816 42.92158712 34 53 C30.04 53 26.08 53 22 53 C19.0493424 47.20031671 16.3051284 41.34050108 13.671875 35.390625 C13.27800598 34.50139343 12.88413696 33.61216187 12.47833252 32.69598389 C11.65365474 30.83088033 10.83016408 28.96525147 10.0078125 27.09912109 C8.74623362 24.24146863 7.47470341 21.38837051 6.203125 18.53515625 C5.40042204 16.71641918 4.59831741 14.89741789 3.796875 13.078125 C3.41569519 12.22704163 3.03451538 11.37595825 2.64178467 10.49908447 C2.2943219 9.7043573 1.94685913 8.90963013 1.58886719 8.09082031 C1.28116394 7.3954718 0.97346069 6.70012329 0.65643311 5.98370361 C0 4 0 4 0 0 Z " fill="#602D9F" transform="translate(440,489)"/>
<path d="M0 0 C0.91007813 0.10183594 1.82015625 0.20367187 2.7578125 0.30859375 C3.45648437 0.39238281 4.15515625 0.47617187 4.875 0.5625 C6.04746771 4.66152098 5.94576062 8.31686258 5.875 12.5625 C7.26525391 12.54509766 7.26525391 12.54509766 8.68359375 12.52734375 C9.88113281 12.51832031 11.07867188 12.50929688 12.3125 12.5 C13.50746094 12.48839844 14.70242188 12.47679687 15.93359375 12.46484375 C18.875 12.5625 18.875 12.5625 19.875 13.5625 C20.01757189 16.89868231 19.91728157 20.22225606 19.875 23.5625 C15.255 23.5625 10.635 23.5625 5.875 23.5625 C5.94893858 27.51438954 6.031698 31.46451149 6.13745117 35.41552734 C6.18709959 37.42132336 6.22154164 39.42747687 6.25585938 41.43359375 C6.3090332 43.31884766 6.3090332 43.31884766 6.36328125 45.2421875 C6.38946533 46.40476074 6.41564941 47.56733398 6.44262695 48.76513672 C6.58531006 49.6882666 6.72799316 50.61139648 6.875 51.5625 C10.22827639 53.79801759 10.78243657 53.73533528 14.5625 53.1875 C15.37074219 53.07664062 16.17898438 52.96578125 17.01171875 52.8515625 C17.62660156 52.75617187 18.24148438 52.66078125 18.875 52.5625 C20.6424678 55.60254461 21.875 57.75530974 21.875 61.3125 C20.875 63.5625 20.875 63.5625 18.7109375 64.6796875 C12.53203041 66.60314894 4.62954331 66.95265041 -1.25 63.9375 C-4.49849585 61.25395995 -5.56011884 59.45030068 -7.125 55.5625 C-7.46557617 51.94384766 -7.46557617 51.94384766 -7.41796875 47.9765625 C-7.41372391 47.27477875 -7.40947906 46.572995 -7.40510559 45.84994507 C-7.38843599 43.6287244 -7.35080872 41.40844212 -7.3125 39.1875 C-7.29743788 37.67319027 -7.28375216 36.15886619 -7.27148438 34.64453125 C-7.23857183 30.95022068 -7.18687259 27.25645207 -7.125 23.5625 C-10.095 23.5625 -13.065 23.5625 -16.125 23.5625 C-16.15188151 21.91675434 -16.17134123 20.27088587 -16.1875 18.625 C-16.19910156 17.70847656 -16.21070313 16.79195313 -16.22265625 15.84765625 C-16.125 13.5625 -16.125 13.5625 -15.125 12.5625 C-12.45441149 12.42134839 -9.80067762 12.52002893 -7.125 12.5625 C-7.125 8.6025 -7.125 4.6425 -7.125 0.5625 C-4.50184968 -0.74907516 -2.89466564 -0.33399988 0 0 Z " fill="#E71F7F" transform="translate(637.125,476.4375)"/>
<path d="M0 0 C0 23.76 0 47.52 0 72 C-3.96 72 -7.92 72 -12 72 C-13.86985821 70.13014179 -13.12779348 66.96852379 -13.12939453 64.4765625 C-13.13114685 63.79527283 -13.13289917 63.11398315 -13.13470459 62.41204834 C-13.13912242 60.14967333 -13.13618538 57.88737587 -13.1328125 55.625 C-13.13348556 54.0594074 -13.1344556 52.4938149 -13.13571167 50.92822266 C-13.13718855 47.64289355 -13.13503441 44.35759158 -13.13037109 41.07226562 C-13.1246738 36.85179484 -13.12795286 32.63138764 -13.13394356 28.41091919 C-13.13754944 25.17683428 -13.13641046 21.94276455 -13.13381577 18.7086792 C-13.13314657 17.15207919 -13.13397466 15.59547782 -13.13629532 14.03887939 C-13.1388223 11.86702804 -13.13498065 9.69528104 -13.12939453 7.5234375 C-13.12859894 6.28513184 -13.12780334 5.04682617 -13.12698364 3.77099609 C-13 1 -13 1 -12 0 C-10.54998009 -0.25996373 -9.08877907 -0.45919978 -7.625 -0.625 C-6.83351563 -0.72039062 -6.04203125 -0.81578125 -5.2265625 -0.9140625 C-3 -1 -3 -1 0 0 Z " fill="#3C6DAF" transform="translate(720,470)"/>
<path d="M0 0 C7.78065152 -0.06985574 15.56122801 -0.12299031 23.3421154 -0.15543652 C26.95605511 -0.17101793 30.56977849 -0.19211627 34.18359375 -0.22631836 C37.67845884 -0.25918345 41.17311732 -0.27690942 44.66812515 -0.28463173 C46.63435945 -0.29278089 48.60051194 -0.31615582 50.56661987 -0.33988953 C61.536067 -0.34192605 70.86874248 1.04836916 79 8.94140625 C86.30752697 16.66535479 90.11392661 24.58670187 90.13371277 35.29292297 C90.14011024 36.86354492 90.14011024 36.86354492 90.14663696 38.46589661 C90.14595718 40.17334297 90.14595718 40.17334297 90.14526367 41.9152832 C90.14862228 43.12235931 90.1519809 44.32943542 90.15544128 45.5730896 C90.16330519 48.87696358 90.16661839 52.18077471 90.16725707 55.48465371 C90.16796905 57.55164816 90.17010619 59.61863607 90.17275429 61.68562889 C90.1820002 68.90492545 90.18609019 76.12420357 90.18530273 83.34350586 C90.1847024 90.05938879 90.19524747 96.77519129 90.2110464 103.49105388 C90.2241491 109.26788118 90.22948547 115.04468228 90.22884732 120.82152432 C90.22859311 124.26687684 90.23140203 127.71215786 90.24202538 131.1574955 C90.2535619 135.00387296 90.24894284 138.85014129 90.24291992 142.6965332 C90.24853943 143.82875809 90.25415894 144.96098297 90.25994873 146.1275177 C90.21738425 156.83884593 88.33963636 167.18551395 80.84765625 175.34375 C77.08072365 178.80356164 73.86069353 181.28848819 69 183 C69 182.34 69 181.68 69 181 C70.50848699 179.95061775 72.05873368 178.96101296 73.625 178 C80.51358785 173.31654084 84.35567442 167.24337564 86.57622147 159.23212624 C87.49596203 154.38766884 87.29434903 149.43594395 87.29052734 144.5222168 C87.29724457 143.27904694 87.30396179 142.03587708 87.31088257 140.7550354 C87.32658112 137.36018352 87.33323498 133.96557636 87.33451414 130.57070518 C87.3359403 128.44504813 87.34021866 126.31941638 87.34550858 124.19376564 C87.36398609 116.7646587 87.37218208 109.3356233 87.37060547 101.90649414 C87.3694048 95.00305986 87.39049806 88.09993858 87.4220928 81.19658345 C87.44832316 75.25152209 87.45896994 69.30656254 87.45769465 63.36144382 C87.45718698 59.81872296 87.46276111 56.27628052 87.48405075 52.73361778 C87.50717758 48.777612 87.49787094 44.82202897 87.48583984 40.8659668 C87.49707886 39.7066716 87.50831787 38.5473764 87.51989746 37.35295105 C87.46978953 30.84794349 86.61144698 25.85106196 83.85791969 19.93049335 C83 18 83 18 83 16 C82.01 15.67 81.02 15.34 80 15 C79.505 13.515 79.505 13.515 79 12 C78.01 11.505 78.01 11.505 77 11 C77 10.34 77 9.68 77 9 C76.46375 8.896875 75.9275 8.79375 75.375 8.6875 C73 8 73 8 70.30859375 6.53125 C57.93407757 0.80420119 41.37330629 2.82394846 27.96557617 2.9855957 C4.86243241 3.24162161 4.86243241 3.24162161 0 0 Z " fill="#3A84B6" transform="translate(257,419)"/>
<path d="M0 0 C0.33 0.66 0.66 1.32 1 2 C2.65 2 4.3 2 6 2 C5.01 2.495 5.01 2.495 4 3 C4.12162567 8.83803208 5.84288261 11.89622323 9.828125 16.13671875 C16.23173276 21.63046138 23.47352461 24.1277119 31.79595947 24.12025452 C33.57117981 24.12231651 33.57117981 24.12231651 35.38226318 24.12442017 C37.32434662 24.11902725 37.32434662 24.11902725 39.30566406 24.11352539 C40.68554685 24.11324326 42.0654298 24.11340176 43.4453125 24.1139679 C47.18877105 24.11425485 50.93219758 24.10837457 54.67564869 24.10139394 C58.58875682 24.09514346 62.50186568 24.09455526 66.41497803 24.09336853 C73.82387226 24.09026022 81.23275174 24.08205356 88.64163947 24.07201904 C97.07687805 24.06084239 105.51211733 24.05534354 113.94736147 24.05032361 C131.29824951 24.03987054 148.6491232 24.02228076 166 24 C166.33 24.66 166.66 25.32 167 26 C163.04516202 26.73575218 159.30380348 27.12672936 155.28311157 27.13371277 C154.16734238 27.13797775 153.05157318 27.14224274 151.9019928 27.14663696 C150.69248459 27.14618378 149.48297638 27.14573059 148.23681641 27.14526367 C146.9515657 27.14862228 145.666315 27.1519809 144.34211731 27.15544128 C140.82757994 27.16424901 137.31306695 27.16661802 133.79851961 27.16725707 C131.59968979 27.16796936 129.4008661 27.17010705 127.20203781 27.17275429 C119.52238321 27.18199672 111.84274592 27.18609052 104.16308594 27.18530273 C97.01831607 27.1847021 89.87362174 27.19525398 82.72887099 27.2110464 C76.58260006 27.22414498 70.43635375 27.22948567 64.29006898 27.22884732 C60.62452114 27.22859304 56.95904049 27.2314059 53.29350662 27.24202538 C49.20294319 27.25355354 45.11254791 27.24894537 41.02197266 27.24291992 C39.21378304 27.25134918 39.21378304 27.25134918 37.36906433 27.25994873 C26.06913823 27.21768278 16.82932381 25.18162117 8.1875 17.5 C7.465625 16.675 6.74375 15.85 6 15 C5.29875 14.2575 4.5975 13.515 3.875 12.75 C1.37102772 9.07750733 0.2208869 5.24535673 -1 1 C-0.67 0.67 -0.34 0.34 0 0 Z " fill="#6846A9" transform="translate(156,578)"/>
<path d="M0 0 C0.76183594 0.42152344 1.52367187 0.84304688 2.30859375 1.27734375 C12.22381142 6.64693516 12.22381142 6.64693516 23.15625 6.4453125 C25.15931361 5.72032306 27.06933827 4.89817741 29 4 C29.99 3.608125 30.98 3.21625 32 2.8125 C32.66 2.544375 33.32 2.27625 34 2 C35.98 3.65 37.96 5.3 40 7 C32.21986331 13.44639897 25.19688966 16.54617502 14.9375 15.875 C6.77000872 14.74668095 1.06777283 11.93295357 -4.00390625 5.390625 C-4.33261719 4.93171875 -4.66132813 4.4728125 -5 4 C-3.35 2.68 -1.7 1.36 0 0 Z " fill="#5B189C" transform="translate(395,525)"/>
<path d="M0 0 C0.721875 0.763125 1.44375 1.52625 2.1875 2.3125 C7.05775608 6.96630026 10.76699254 8.56751732 17.43359375 9.07421875 C22.77244367 8.91982279 27.35961394 6.51354245 32 4 C34.475 6.97 34.475 6.97 37 10 C36.27683594 10.61488281 36.27683594 10.61488281 35.5390625 11.2421875 C34.90742187 11.78101563 34.27578125 12.31984375 33.625 12.875 C32.99851562 13.40867187 32.37203125 13.94234375 31.7265625 14.4921875 C30.44163349 15.61432007 29.20628025 16.79371975 28 18 C19.12718969 18.8637249 7.71520486 19.20198869 0.21484375 13.6875 C-1.1875 12.3125 -1.1875 12.3125 -3 10 C-1.68 8.35 -0.36 6.7 1 5 C0.01 5 -0.98 5 -2 5 C-2 4.01 -2 3.02 -2 2 C-1.34 2 -0.68 2 0 2 C0 1.34 0 0.68 0 0 Z " fill="#5333A4" transform="translate(509,523)"/>
<path d="M0 0 C6.13479598 -0.37559975 10.58492219 -0.04598127 16 3 C17.39195915 7.17587745 15.82323219 9.13474776 14 13 C13.15695312 12.97679687 12.31390625 12.95359375 11.4453125 12.9296875 C10.34960938 12.91164063 9.25390625 12.89359375 8.125 12.875 C7.03445313 12.85179687 5.94390625 12.82859375 4.8203125 12.8046875 C1.8628949 12.69939466 1.8628949 12.69939466 0 15 C-0.33 16.98 -0.66 18.96 -1 21 C3.62 21 8.24 21 13 21 C14.62651522 24.25303044 14.11453156 27.39225602 14 31 C13.67 31.33 13.34 31.66 13 32 C8.38 32 3.76 32 -1 32 C-1 45.86 -1 59.72 -1 74 C-4.96 74 -8.92 74 -13 74 C-13 73.67 -13 73.34 -13 73 C-8.05 72.505 -8.05 72.505 -3 72 C-3 58.14 -3 44.28 -3 30 C1.95 30 6.9 30 12 30 C12 27.69 12 25.38 12 23 C7.05 23 2.1 23 -3 23 C-3 16 -3 16 -1.125 13.125 C1.77930054 10.22069946 2.42430096 10.00992585 6.625 9.9375 C7.73875 9.958125 8.8525 9.97875 10 10 C10.33 8.02 10.66 6.04 11 4 C8.70370006 2.85185003 6.92301914 2.69230191 4.375 2.4375 C3.55773437 2.35371094 2.74046875 2.26992188 1.8984375 2.18359375 C1.27195312 2.12300781 0.64546875 2.06242187 0 2 C0 1.34 0 0.68 0 0 Z " fill="#5980B8" transform="translate(685,468)"/>
<path d="M0 0 C0.33 0 0.66 0 1 0 C1.04639269 12.63943168 1.08190449 25.27884302 1.10362434 37.91834259 C1.11405011 43.78771477 1.12818737 49.65702859 1.15087891 55.52636719 C1.17265017 61.19329907 1.18457771 66.8601749 1.18975449 72.52714539 C1.19344254 74.6864256 1.20064436 76.84570283 1.21146011 79.00495911 C1.22603183 82.03527394 1.22797555 85.06535875 1.22705078 88.09570312 C1.23424133 88.98331329 1.24143188 89.87092346 1.24884033 90.78543091 C1.21575024 100.84227217 -1.19024594 110.76251827 -8.15234375 118.34375 C-11.91927635 121.80356164 -15.13930647 124.28848819 -20 126 C-20 125.34 -20 124.68 -20 124 C-18.49151301 122.95061775 -16.94126632 121.96101296 -15.375 121 C-7.86447218 115.89369213 -3.79454914 108.87319139 -2 100 C-1.74150208 96.74329691 -1.76669629 93.50621145 -1.8046875 90.2409668 C-1.80760803 89.28730728 -1.81052856 88.33364777 -1.8135376 87.35108948 C-1.82111922 85.29131162 -1.83332009 83.2315466 -1.84967041 81.17181969 C-1.87526735 77.9152045 -1.88824517 74.65875272 -1.89794922 71.40205383 C-1.92075842 64.49712886 -1.95928538 57.59233954 -2 50.6875 C-2.04715238 42.66868389 -2.08791441 34.64994328 -2.11187744 26.6310215 C-2.12487829 23.41680862 -2.14988594 20.20282859 -2.17529297 16.98869324 C-2.18255394 15.02981776 -2.18925791 13.07094012 -2.1953125 11.11206055 C-2.20564514 10.21387604 -2.21597778 9.31569153 -2.22662354 8.39028931 C-2.22699126 6.25885384 -2.12344113 4.12785798 -2 2 C-1.34 1.34 -0.68 0.68 0 0 Z " fill="#4873B4" transform="translate(346,476)"/>
<path d="M0 0 C1.63522338 0.0005196 3.2704474 -0.00000196 4.90567017 -0.00151062 C8.31302352 -0.00142142 11.72013771 0.00890767 15.12744141 0.02709961 C19.49204595 0.04989368 23.85630515 0.05030581 28.22095299 0.04358196 C31.58898994 0.04024165 34.95694822 0.04687145 38.32497025 0.0567112 C39.93490818 0.06055429 41.54485486 0.06171511 43.1547966 0.06012535 C45.3994292 0.05975435 47.64361777 0.07238057 49.88818359 0.08862305 C51.80151993 0.09553413 51.80151993 0.09553413 53.75350952 0.10258484 C56.7660407 0.34625321 58.45337852 0.77053342 60.9765625 2.36328125 C60.9765625 2.69328125 60.9765625 3.02328125 60.9765625 3.36328125 C59.99652252 3.3543988 59.01648254 3.34551636 58.00674438 3.33636475 C48.73875417 3.25502805 39.47083705 3.19519597 30.20256996 3.15603256 C25.43844265 3.13522083 20.67460512 3.10702136 15.91064453 3.06152344 C11.30703282 3.01783561 6.70369861 2.99409598 2.09989548 2.98377228 C0.34973156 2.97642186 -1.40041838 2.96206879 -3.1504631 2.94036102 C-15.58940009 2.79230266 -25.8135255 3.42348584 -35.26953125 12.3828125 C-40.53301293 18.32620941 -42.67662697 24.64973005 -44.0234375 32.36328125 C-45.125 30.69921875 -45.125 30.69921875 -46.0234375 28.36328125 C-44.74109361 22.2117475 -41.97886319 16.24163959 -38.0234375 11.36328125 C-37.3634375 11.36328125 -36.7034375 11.36328125 -36.0234375 11.36328125 C-36.0234375 10.70328125 -36.0234375 10.04328125 -36.0234375 9.36328125 C-34.40625 7.9609375 -34.40625 7.9609375 -32.1484375 6.42578125 C-31.42914063 5.92175781 -30.70984375 5.41773438 -29.96875 4.8984375 C-20.31572944 -0.13291141 -10.61189837 -0.06694789 0 0 Z " fill="#5955AD" transform="translate(200.0234375,418.63671875)"/>
<path d="M0 0 C0 23.76 0 47.52 0 72 C-3.96 72 -7.92 72 -12 72 C-13.86985821 70.13014179 -13.12779348 66.96852379 -13.12939453 64.4765625 C-13.13114685 63.79527283 -13.13289917 63.11398315 -13.13470459 62.41204834 C-13.13912242 60.14967333 -13.13618538 57.88737587 -13.1328125 55.625 C-13.13348556 54.0594074 -13.1344556 52.4938149 -13.13571167 50.92822266 C-13.13718855 47.64289355 -13.13503441 44.35759158 -13.13037109 41.07226562 C-13.1246738 36.85179484 -13.12795286 32.63138764 -13.13394356 28.41091919 C-13.13754944 25.17683428 -13.13641046 21.94276455 -13.13381577 18.7086792 C-13.13314657 17.15207919 -13.13397466 15.59547782 -13.13629532 14.03887939 C-13.1388223 11.86702804 -13.13498065 9.69528104 -13.12939453 7.5234375 C-13.12859894 6.28513184 -13.12780334 5.04682617 -13.12698364 3.77099609 C-13 1 -13 1 -12 0 C-10.54998009 -0.25996373 -9.08877907 -0.45919978 -7.625 -0.625 C-6.83351563 -0.72039062 -6.04203125 -0.81578125 -5.2265625 -0.9140625 C-3 -1 -3 -1 0 0 Z M-11 1 C-11.60809694 18.31135557 -12.10292208 35.61435737 -12.125 52.9375 C-12.12749756 53.62980713 -12.12999512 54.32211426 -12.13256836 55.03540039 C-12.13840609 56.99103947 -12.13581042 58.94669826 -12.1328125 60.90234375 C-12.13168457 62.01085693 -12.13055664 63.11937012 -12.12939453 64.26147461 C-12.11961895 67.09297698 -12.11961895 67.09297698 -11 70 C-7.7 70 -4.4 70 -1 70 C-1 47.23 -1 24.46 -1 1 C-4.3 1 -7.6 1 -11 1 Z " fill="#447CB4" transform="translate(720,470)"/>
<path d="M0 0 C6.75 -0.125 6.75 -0.125 9 1 C10.95128202 5.57090631 11.3320455 9.89932704 11.4140625 14.8046875 C11.43342865 15.5286673 11.4527948 16.25264709 11.4727478 16.99856567 C11.53209886 19.29059398 11.57874878 21.58267374 11.625 23.875 C11.66322087 25.43752081 11.70227494 27.00002148 11.7421875 28.5625 C11.83776308 32.37483465 11.92195606 36.1872678 12 40 C14.97 40.33 17.94 40.66 21 41 C20.67 27.47 20.34 13.94 20 0 C23.57858129 3.57858129 23.11691562 8.00485628 23.13894653 12.87713623 C23.1369223 13.61377502 23.13489807 14.35041382 23.1328125 15.109375 C23.13424759 16.26049774 23.13424759 16.26049774 23.13571167 17.43487549 C23.1363896 19.04854413 23.13456243 20.66221556 23.13037109 22.27587891 C23.12498785 24.75559522 23.13034417 27.23513282 23.13671875 29.71484375 C23.13605848 31.28385457 23.13477837 32.85286527 23.1328125 34.421875 C23.13483673 35.16661072 23.13686096 35.91134644 23.13894653 36.6786499 C23.1149713 41.8850287 23.1149713 41.8850287 22 43 C20.16884117 43.09851171 18.33380067 43.12972629 16.5 43.125 C15.4996875 43.12757813 14.499375 43.13015625 13.46875 43.1328125 C11 43 11 43 10 42 C9.85308042 39.69548302 9.77239791 37.38669724 9.71875 35.078125 C9.69113586 34.03262482 9.69113586 34.03262482 9.66296387 32.96600342 C9.60405223 30.72742383 9.55136103 28.48876478 9.5 26.25 C9.43208411 23.31755678 9.35827388 20.38534137 9.28125 17.453125 C9.25095703 16.14504883 9.22066406 14.83697266 9.18945312 13.48925781 C9.0291897 10.53760203 8.68029258 7.86852116 8 5 C7.34 5 6.68 5 6 5 C6 4.34 6 3.68 6 3 C3.03 2.505 3.03 2.505 0 2 C0 1.34 0 0.68 0 0 Z " fill="#5B5CAD" transform="translate(590,499)"/>
<path d="M0 0 C19.47 0 38.94 0 59 0 C59 0.66 59 1.32 59 2 C61.31 2.33 63.62 2.66 66 3 C62.2528772 4.26150019 58.97048165 3.88386702 55.0625 3.5625 C45.57412141 2.86979278 36.10278119 2.94020197 26.59399414 3.03735352 C4.78591012 3.19060675 4.78591012 3.19060675 0 0 Z " fill="#3B6AAC" transform="translate(257,419)"/>
<path d="M0 0 C0.33 0.66 0.66 1.32 1 2 C2.65 2 4.3 2 6 2 C5.01 2.495 5.01 2.495 4 3 C4.12170186 8.84168905 5.84006031 11.91175076 9.84765625 16.140625 C19.27236269 24.28247666 30.87698242 25.2823686 42.81640625 25.4140625 C43.91347397 25.43342865 45.01054169 25.4527948 46.14085388 25.4727478 C49.61465901 25.53210791 53.08849806 25.57875384 56.5625 25.625 C58.93035229 25.6632199 61.29819128 25.70227392 63.66601562 25.7421875 C69.44389152 25.83777323 75.22184883 25.92294583 81 26 C81 26.33 81 26.66 81 27 C73.59850003 27.05086743 66.19704546 27.08580388 58.79541016 27.10986328 C56.2794425 27.11989737 53.76348643 27.13352768 51.24755859 27.15087891 C47.62334322 27.17524097 43.99928256 27.18650931 40.375 27.1953125 C38.69796997 27.21079636 38.69796997 27.21079636 36.98706055 27.22659302 C25.842508 27.2281805 16.69499596 25.06221863 8.1875 17.5 C7.465625 16.675 6.74375 15.85 6 15 C5.29875 14.2575 4.5975 13.515 3.875 12.75 C1.37102772 9.07750733 0.2208869 5.24535673 -1 1 C-0.67 0.67 -0.34 0.34 0 0 Z " fill="#723EAB" transform="translate(156,578)"/>
<path d="M0 0 C0.66 0.33 1.32 0.66 2 1 C2.01458252 1.83772949 2.02916504 2.67545898 2.04418945 3.53857422 C2.10520707 6.64378902 2.17935065 9.74833117 2.26245117 12.85302734 C2.31209959 14.85882336 2.34654164 16.86497687 2.38085938 18.87109375 C2.41630859 20.12792969 2.45175781 21.38476562 2.48828125 22.6796875 C2.51446533 23.84226074 2.54064941 25.00483398 2.56762695 26.20263672 C2.71031006 27.1257666 2.85299316 28.04889648 3 29 C6.35327639 31.23551759 6.90743657 31.17283528 10.6875 30.625 C11.49574219 30.51414062 12.30398438 30.40328125 13.13671875 30.2890625 C13.75160156 30.19367187 14.36648438 30.09828125 15 30 C16.7674678 33.04004461 18 35.19280974 18 38.75 C17 41 17 41 14.8359375 42.1171875 C9.14648519 43.88828422 2.22874265 44.20749725 -3.40234375 42.1015625 C-5.3125 41 -5.3125 41 -8 39 C-4.31101143 37.77033714 -3.26957574 38.74301885 0.11328125 40.2890625 C5.7483823 42.41243391 11.46558511 40.55351997 17 39 C16.01 37.02 15.02 35.04 14 33 C12.783125 33.226875 11.56625 33.45375 10.3125 33.6875 C7.12141604 34.09487242 6.113836 34.05086289 3.0625 32.6875 C1 31 1 31 0 29 C-0.08559118 26.82175039 -0.10713412 24.64084745 -0.09765625 22.4609375 C-0.09282227 20.50800781 -0.09282227 20.50800781 -0.08789062 18.515625 C-0.07953466 17.13541601 -0.07106971 15.75520768 -0.0625 14.375 C-0.05748501 12.98698074 -0.0529221 11.59895978 -0.04882812 10.2109375 C-0.03700976 6.80724868 -0.02053434 3.40364561 0 0 Z " fill="#EA41A4" transform="translate(641,499)"/>
<path d="M0 0 C3.63 0 7.26 0 11 0 C10.4228363 4.9459339 9.36321145 9.33262561 7.71484375 14.02734375 C7.49429825 14.66112442 7.27375275 15.29490509 7.04652405 15.94789124 C6.3494882 17.9465772 5.64367236 19.94202627 4.9375 21.9375 C4.45969934 23.30252901 3.98248033 24.66776176 3.50585938 26.03320312 C2.34394817 29.35784861 1.17414868 32.67965369 0 36 C-0.66 36 -1.32 36 -2 36 C0.01762302 27.01240657 3.1430306 18.35760766 6.15625 9.6640625 C7.10064468 7.14797113 7.10064468 7.14797113 7 5 C7.66 5 8.32 5 9 5 C8.34 4.34 7.68 3.68 7 3 C4.52372901 3.63921965 4.52372901 3.63921965 2 5 C0.63921965 7.52372901 0.63921965 7.52372901 0 10 C-0.66 10 -1.32 10 -2 10 C-2.27263672 11.03060547 -2.27263672 11.03060547 -2.55078125 12.08203125 C-2.80214844 12.98308594 -3.05351563 13.88414062 -3.3125 14.8125 C-3.55613281 15.70582031 -3.79976562 16.59914063 -4.05078125 17.51953125 C-5.0200819 20.05247738 -5.95009604 21.2716496 -8 23 C-7.31028645 20.93085934 -6.62038769 18.86178027 -5.9296875 16.79296875 C-5.26515934 14.79659214 -4.60408699 12.79906387 -3.9453125 10.80078125 C-3.59210937 9.73214844 -3.23890625 8.66351563 -2.875 7.5625 C-2.54242187 6.55316406 -2.20984375 5.54382813 -1.8671875 4.50390625 C-1 2 -1 2 0 0 Z " fill="#2CBFC0" transform="translate(862,489)"/>
<path d="M0 0 C1.2375 0.7425 1.2375 0.7425 2.5 1.5 C2.17 2.16 1.84 2.82 1.5 3.5 C0.94054687 3.17773438 0.38109375 2.85546875 -0.1953125 2.5234375 C-4.19117483 0.74900372 -8.21602174 0.94592079 -12.5 1.5 C-17.0108365 3.75541825 -18.21953804 4.93907608 -20.5 9.5 C-11.92 9.5 -3.34 9.5 5.5 9.5 C4.84 7.85 4.18 6.2 3.5 4.5 C4.16 4.17 4.82 3.84 5.5 3.5 C8.57692308 8.79230769 8.57692308 8.79230769 8.1875 12.375 C7.960625 13.07625 7.73375 13.7775 7.5 14.5 C6.51 14.17 5.52 13.84 4.5 13.5 C2.36338742 13.34929203 0.22287876 13.2514034 -1.91796875 13.18359375 C-3.17158203 13.14169922 -4.42519531 13.09980469 -5.71679688 13.05664062 C-7.68229492 12.99766602 -7.68229492 12.99766602 -9.6875 12.9375 C-11.02279978 12.89429008 -12.35808652 12.850675 -13.69335938 12.80664062 C-16.96213297 12.70043498 -20.23098333 12.59839003 -23.5 12.5 C-21.6991417 4.95610601 -21.6991417 4.95610601 -18.0625 2.125 C-17.16724609 1.40183594 -17.16724609 1.40183594 -16.25390625 0.6640625 C-11.15471974 -2.72025283 -5.36121247 -2.29766249 0 0 Z " fill="#793EAD" transform="translate(419.5,499.5)"/>
<path d="M0 0 C2.43152064 2.43152064 2.24492021 3.73309373 2.27789307 7.05276489 C2.2738446 7.7391806 2.26979614 8.42559631 2.265625 9.1328125 C2.26753845 9.8434787 2.2694519 10.5541449 2.27142334 11.28634644 C2.27278589 12.79441684 2.26908458 14.30249893 2.26074219 15.81054688 C2.25013772 18.09532858 2.26058513 20.37930688 2.2734375 22.6640625 C2.27211407 24.13281421 2.26954788 25.60156543 2.265625 27.0703125 C2.26967346 27.74458282 2.27372192 28.41885315 2.27789307 29.11355591 C2.18608325 38.63229749 -0.62969717 48.24104955 -7.15234375 55.34375 C-10.91927635 58.80356164 -14.13930647 61.28848819 -19 63 C-19 62.34 -19 61.68 -19 61 C-17.49151301 59.95061775 -15.94126632 58.96101296 -14.375 58 C-6.6244207 52.73048433 -3.20091389 45.96537144 -1 37 C-0.69617997 34.0744594 -0.62985552 31.16238768 -0.5859375 28.22265625 C-0.56657135 27.41130722 -0.5472052 26.59995819 -0.5272522 25.76402283 C-0.46793034 23.19695228 -0.42126264 20.62983571 -0.375 18.0625 C-0.33677648 16.31183044 -0.29772226 14.56117881 -0.2578125 12.81054688 C-0.16226844 8.54051184 -0.07806463 4.2703889 0 0 Z " fill="#5966B1" transform="translate(345,539)"/>
<path d="M0 0 C0.66 0 1.32 0 2 0 C2 2.97 2 5.94 2 9 C-0.97 9 -3.94 9 -7 9 C-7 11.31 -7 13.62 -7 16 C-4.03 16 -1.06 16 2 16 C2.02496844 20.51659796 2.04298537 25.03315791 2.05493164 29.54980469 C2.05991896 31.08203838 2.06671122 32.61426742 2.07543945 34.14648438 C2.12174177 42.49179593 2.04734171 50.70373415 1 59 C0.67 59 0.34 59 0 59 C0 45.47 0 31.94 0 18 C-2.64 18 -5.28 18 -8 18 C-8.02688151 16.35425434 -8.04634123 14.70838587 -8.0625 13.0625 C-8.07410156 12.14597656 -8.08570313 11.22945313 -8.09765625 10.28515625 C-8 8 -8 8 -7 7 C-4.66702567 6.95907063 -2.33294775 6.95758277 0 7 C0 4.69 0 2.38 0 0 Z " fill="#667DC2" transform="translate(671,482)"/>
<path d="M0 0 C6.13479598 -0.37559975 10.58492219 -0.04598127 16 3 C17.39195915 7.17587745 15.82323219 9.13474776 14 13 C13.15695312 12.97679687 12.31390625 12.95359375 11.4453125 12.9296875 C10.34960938 12.91164063 9.25390625 12.89359375 8.125 12.875 C7.03445313 12.85179687 5.94390625 12.82859375 4.8203125 12.8046875 C1.8628949 12.69939466 1.8628949 12.69939466 0 15 C-0.33333333 18 -0.33333333 18 0 21 C0.66 21.66 1.32 22.32 2 23 C0.35 23 -1.3 23 -3 23 C-3.32470459 18.86001651 -3.4304413 16.66000999 -1.125 13.125 C1.77930054 10.22069946 2.42430096 10.00992585 6.625 9.9375 C7.73875 9.958125 8.8525 9.97875 10 10 C10.33 8.02 10.66 6.04 11 4 C8.70370006 2.85185003 6.92301914 2.69230191 4.375 2.4375 C3.55773437 2.35371094 2.74046875 2.26992188 1.8984375 2.18359375 C1.27195312 2.12300781 0.64546875 2.06242187 0 2 C0 1.34 0 0.68 0 0 Z " fill="#4984BB" transform="translate(685,468)"/>
<path d="M0 0 C1.98 0.99 1.98 0.99 4 2 C3.67 2.33 3.34 2.66 3 3 C2.90206256 4.36549877 2.87201927 5.73597476 2.87060547 7.10498047 C2.86745331 7.97613495 2.86430115 8.84728943 2.86105347 9.74484253 C2.8630777 10.69271637 2.86510193 11.64059021 2.8671875 12.6171875 C2.86575241 14.06933151 2.86575241 14.06933151 2.86428833 15.55081177 C2.86360629 17.60369939 2.86546224 19.65658915 2.86962891 21.70947266 C2.87496529 24.85454156 2.86969069 27.99946689 2.86328125 31.14453125 C2.86394225 33.13541698 2.86522388 35.12630263 2.8671875 37.1171875 C2.86516327 38.06101288 2.86313904 39.00483826 2.86105347 39.9772644 C2.86578171 41.29345261 2.86578171 41.29345261 2.87060547 42.63623047 C2.87140106 43.4082077 2.87219666 44.18018494 2.87301636 44.97555542 C2.92608694 47.20529064 2.92608694 47.20529064 4 50 C2.02 50.495 2.02 50.495 0 51 C0 34.17 0 17.34 0 0 Z " fill="#473D9E" transform="translate(562,490)"/>
<path d="M0 0 C0 0.33 0 0.66 0 1 C-2.97 1 -5.94 1 -9 1 C-8.67 5.95 -8.34 10.9 -8 16 C-9.65 16 -11.3 16 -13 16 C-13.12375 16.639375 -13.2475 17.27875 -13.375 17.9375 C-13.58125 18.618125 -13.7875 19.29875 -14 20 C-14.66 20.33 -15.32 20.66 -16 21 C-13.69 21 -11.38 21 -9 21 C-9 21.66 -9 22.32 -9 23 C-12.3 23 -15.6 23 -19 23 C-19.09765625 15.28515625 -19.09765625 15.28515625 -19 13 C-18 12 -18 12 -16.15234375 11.90234375 C-14.1015625 11.93489583 -12.05078125 11.96744792 -10 12 C-10 8.04 -10 4.08 -10 0 C-6.7169902 -1.6415049 -3.57454967 -0.51888624 0 0 Z " fill="#E8399B" transform="translate(640,477)"/>
<path d="M0 0 C4.19319076 3.36816134 6.45750295 7.55048714 8.6875 12.375 C7.6975 12.87 7.6975 12.87 6.6875 13.375 C6.0275 11.395 5.3675 9.415 4.6875 7.375 C3.6975 7.375 2.7075 7.375 1.6875 7.375 C1.6875 6.715 1.6875 6.055 1.6875 5.375 C1.0275 5.375 0.3675 5.375 -0.3125 5.375 C-0.93125 4.59125 -1.55 3.8075 -2.1875 3 C-4.96686177 -0.43332925 -6.88423645 -1.38791207 -11.23046875 -2.109375 C-19.31135846 -2.76588695 -25.67189606 -2.17186798 -33.3125 0.375 C-33.3125 -0.285 -33.3125 -0.945 -33.3125 -1.625 C-21.91112216 -6.76679785 -10.7429262 -7.29708195 0 0 Z " fill="#4F9BC4" transform="translate(776.3125,493.625)"/>
<path d="M0 0 C1.3303125 0.2784375 1.3303125 0.2784375 2.6875 0.5625 C5.85178811 0.98042484 7.94839642 0.80777742 11 0 C14 4.75 14 4.75 14 7 C8.27312792 9.41131456 3.22551957 11.44164785 -2.9921875 9.3203125 C-4.68737913 8.60547265 -6.34779142 7.80924502 -8 7 C-6.375 5.875 -6.375 5.875 -4 5 C-1 5.875 -1 5.875 2 7 C3.32 7 4.64 7 6 7 C6.33 5.68 6.66 4.36 7 3 C4.69 3 2.38 3 0 3 C0 2.01 0 1.02 0 0 Z " fill="#EA1887" transform="translate(644,531)"/>
<path d="M0 0 C0.33 0 0.66 0 1 0 C1.33 22.11 1.66 44.22 2 67 C5.3 67 8.6 67 12 67 C12.33 67.66 12.66 68.32 13 69 C11.02090602 69.02686553 9.04171029 69.04633375 7.0625 69.0625 C5.96035156 69.07410156 4.85820313 69.08570313 3.72265625 69.09765625 C1 69 1 69 0 68 C-0.0942174 65.88318683 -0.11742761 63.76319242 -0.11352539 61.64428711 C-0.11367142 60.98089828 -0.11381744 60.31750946 -0.1139679 59.63401794 C-0.11326881 57.43176044 -0.10547665 55.22958655 -0.09765625 53.02734375 C-0.09579206 51.50419664 -0.09436816 49.98104893 -0.09336853 48.457901 C-0.08954346 44.44162349 -0.07971328 40.42538192 -0.06866455 36.40911865 C-0.05845019 32.31376634 -0.05387086 28.21840824 -0.04882812 24.12304688 C-0.038091 16.08201472 -0.02101472 8.04101183 0 0 Z " fill="#6199DA" transform="translate(707,473)"/>
<path d="M0 0 C0.66 0 1.32 0 2 0 C2.556875 1.1446875 2.556875 1.1446875 3.125 2.3125 C5.7541037 6.08088197 8.62299794 6.95631559 13 8 C18.54817454 8.58401837 21.99280011 7.3181481 27 5 C29.625 4 29.625 4 32 4 C34.875 6.1875 34.875 6.1875 37 9 C37.1875 11 37.1875 11 36 13 C34.08749722 14.82843672 32.10851185 16.38496965 30 18 C29.34 17.34 28.68 16.68 28 16 C30.31 14.35 32.62 12.7 35 11 C33.35 9.35 31.7 7.7 30 6 C29.05125 6.639375 28.1025 7.27875 27.125 7.9375 C21.98176464 10.84680485 16.578203 11.64831553 10.7578125 10.59375 C5.62231735 8.96589493 3.00680125 6.41623934 0 2 C0 1.34 0 0.68 0 0 Z " fill="#7056B1" transform="translate(510,522)"/>
<path d="M0 0 C0.70125 0.721875 1.4025 1.44375 2.125 2.1875 C3.08223466 3.12612177 4.04061362 4.06357766 5 5 C5.86625 5.86625 6.7325 6.7325 7.625 7.625 C13.2826838 12.19745033 20.59645745 13.34773617 27.6875 12.875 C34.10662719 12.03134328 40.02505694 10.35307518 45 6 C45.66 6.33 46.32 6.66 47 7 C45.79989255 7.96861464 44.58941756 8.9243885 43.375 9.875 C42.36566406 10.67550781 42.36566406 10.67550781 41.3359375 11.4921875 C33.99177751 16.23273224 25.3826978 15.67562042 17 15 C9.95302435 13.20180621 4.0353874 9.0530811 0 3 C0 2.01 0 1.02 0 0 Z " fill="#6C36AC" transform="translate(388,527)"/>
<path d="M0 0 C0.33 0 0.66 0 1 0 C1.14469964 5.99156558 1.28700635 11.98318189 1.42724609 17.97485352 C1.47511626 20.00644404 1.52360193 22.03802016 1.57275391 24.06958008 C1.85406868 35.71543753 2.08274397 47.35033911 2 59 C2.99 59.33 3.98 59.66 5 60 C4.01 60.66 3.02 61.32 2 62 C2.33 63.65 2.66 65.3 3 67 C1.68 66.67 0.36 66.34 -1 66 C-0.67 44.22 -0.34 22.44 0 0 Z " fill="#541398" transform="translate(156,513)"/>
<path d="M0 0 C0.66 0 1.32 0 2 0 C2.03738281 0.74765625 2.07476563 1.4953125 2.11328125 2.265625 C2.17902344 3.25046875 2.24476563 4.2353125 2.3125 5.25 C2.37050781 6.22453125 2.42851563 7.1990625 2.48828125 8.203125 C3.05065362 11.2768549 4.04233539 12.62770937 6 15 C6 15.66 6 16.32 6 17 C13.22350938 19.19285106 18.66573117 19.13916174 26 17 C26 16.34 26 15.68 26 15 C26.66 15 27.32 15 28 15 C27 18 27 18 24.875 19.625 C20.02845613 21.94291228 15.9892716 22.5701258 10.875 20.875 C6.25212337 18.90400609 3.22949057 16.10769812 0.6875 11.75 C-0.29402215 7.82391139 -0.15783722 4.02484922 0 0 Z " fill="#5C8ABD" transform="translate(742,511)"/>
<path d="M0 0 C4.08327357 -0.0580772 8.16644083 -0.09362249 12.25 -0.125 C13.98830078 -0.15013672 13.98830078 -0.15013672 15.76171875 -0.17578125 C16.87675781 -0.18222656 17.99179688 -0.18867188 19.140625 -0.1953125 C20.68024902 -0.21102295 20.68024902 -0.21102295 22.25097656 -0.22705078 C25.01984288 0.00163889 26.64418792 0.5756701 29 2 C29 2.33 29 2.66 29 3 C25.10418244 3.02911003 21.208393 3.04683587 17.3125 3.0625 C16.20970703 3.07087891 15.10691406 3.07925781 13.97070312 3.08789062 C12.3706543 3.09272461 12.3706543 3.09272461 10.73828125 3.09765625 C9.75899658 3.10289307 8.77971191 3.10812988 7.77075195 3.11352539 C5.07530428 3.00308543 2.62454361 2.60534166 0 2 C0 1.34 0 0.68 0 0 Z " fill="#3D5DA8" transform="translate(232,419)"/>
<path d="M0 0 C3.63 0 7.26 0 11 0 C12.32 3.3 13.64 6.6 15 10 C14.01 10.495 14.01 10.495 13 11 C11.515 6.545 11.515 6.545 10 2 C7.36 2 4.72 2 2 2 C-0.31 7.61 -2.62 13.22 -5 19 C-5.66 18.67 -6.32 18.34 -7 18 C-4.69 12.06 -2.38 6.12 0 0 Z " fill="#36B2C3" transform="translate(826,489)"/>
<path d="M0 0 C3.3 0 6.6 0 10 0 C9.67 0.99 9.34 1.98 9 3 C9 2.34 9 1.68 9 1 C6.69 1.66 4.38 2.32 2 3 C2 17.19 2 31.38 2 46 C1.01 46.495 1.01 46.495 0 47 C0 31.49 0 15.98 0 0 Z " fill="#2E6AAA" transform="translate(709,471)"/>
<path d="M0 0 C0.33 0 0.66 0 1 0 C1 2.64 1 5.28 1 8 C2.39025391 7.98259766 2.39025391 7.98259766 3.80859375 7.96484375 C5.00613281 7.95582031 6.20367188 7.94679688 7.4375 7.9375 C8.63246094 7.92589844 9.82742188 7.91429687 11.05859375 7.90234375 C14 8 14 8 15 9 C15.07205511 10.68608966 15.08386068 12.37500659 15.0625 14.0625 C15.05347656 14.98160156 15.04445313 15.90070313 15.03515625 16.84765625 C15.02355469 17.55792969 15.01195312 18.26820313 15 19 C14.01 18.67 13.02 18.34 12 18 C12.33 15.36 12.66 12.72 13 10 C8.38 10 3.76 10 -1 10 C-1.125 2.25 -1.125 2.25 0 0 Z " fill="#E23E9F" transform="translate(642,481)"/>
<path d="M0 0 C0.33 0 0.66 0 1 0 C1.90042027 7.80364238 -0.73653246 13.5090882 -5 20 C-9.13708142 24.60159583 -13.1390709 27.91931867 -19 30 C-19 29.34 -19 28.68 -19 28 C-17.49151301 26.95061775 -15.94126632 25.96101296 -14.375 25 C-5.34592777 18.81885296 -2.25370856 10.39869039 0 0 Z " fill="#5A52AB" transform="translate(345,572)"/>
<path d="M0 0 C-2.48257068 2.48257068 -3.82066387 2.44558703 -7.25 2.9375 C-13.91470478 4.05988501 -19.10143732 6.23034687 -24 11 C-25.52510737 13.58821153 -26.80352746 16.2461079 -28 19 C-28.65625 17.24609375 -28.65625 17.24609375 -29 15 C-25.96395359 8.84221232 -20.46051445 3.71420173 -14.05859375 1.25390625 C-9.33596437 -0.0861745 -4.88587835 -0.17449566 0 0 Z " fill="#7B44B3" transform="translate(416,488)"/>
<path d="M0 0 C0.66 0 1.32 0 2 0 C1.79503906 0.6290625 1.59007812 1.258125 1.37890625 1.90625 C-0.31971235 7.30281819 -1.47838853 12.36659614 -2 18 C-3.65 18.33 -5.3 18.66 -7 19 C-6.21621527 16.20589719 -5.42340302 13.41492517 -4.625 10.625 C-4.40328125 9.8309375 -4.1815625 9.036875 -3.953125 8.21875 C-3.73398437 7.45820312 -3.51484375 6.69765625 -3.2890625 5.9140625 C-3.09006348 5.2123291 -2.89106445 4.5105957 -2.68603516 3.78759766 C-2 2 -2 2 0 0 Z " fill="#11A7B5" transform="translate(863,509)"/>
<path d="M0 0 C6.6 0 13.2 0 20 0 C20 0.66 20 1.32 20 2 C22.31 2.33 24.62 2.66 27 3 C23.69687244 4.03647521 21.0113553 3.98440578 17.578125 3.66015625 C16.04091797 3.5199707 16.04091797 3.5199707 14.47265625 3.37695312 C12.87744141 3.22129883 12.87744141 3.22129883 11.25 3.0625 C9.63158203 2.91264648 9.63158203 2.91264648 7.98046875 2.75976562 C5.31968813 2.51252495 2.65965225 2.25905292 0 2 C0 1.34 0 0.68 0 0 Z " fill="#297AB2" transform="translate(296,419)"/>
<path d="M0 0 C0.515625 0.309375 1.03125 0.61875 1.5625 0.9375 C4.66665423 2.29059287 7.65115007 2.61359424 11 3 C10.67 4.65 10.34 6.3 10 8 C5.94393835 7.53199289 2.53411321 7.12046792 -1 5 C-0.67 3.35 -0.34 1.7 0 0 Z " fill="#E12377" transform="translate(640,531)"/>
<path d="M0 0 C0.66 0.66 1.32 1.32 2 2 C1.566875 2.99 1.566875 2.99 1.125 4 C0.22984734 6.38707377 -0.41887684 8.5950326 -1 11.0625 C-2.18226285 15.9565183 -4.37989632 19.71255761 -7 24 C-8.5453171 19.36404871 -6.99322386 15.20536236 -5.04296875 10.875 C-4.35837543 9.52119749 -3.66208443 8.17323436 -2.953125 6.83203125 C-1.79976469 4.61512148 -0.87694234 2.33851292 0 0 Z " fill="#0DACB3" transform="translate(860,499)"/>
<path d="M0 0 C0.66 0 1.32 0 2 0 C1.34 1.98 0.68 3.96 0 6 C8.91 6 17.82 6 27 6 C27 6.33 27 6.66 27 7 C17.43 7.33 7.86 7.66 -2 8 C-1 2 -1 2 0 0 Z " fill="#7F70D0" transform="translate(511,504)"/>
<path d="M0 0 C0 0.66 0 1.32 0 2 C-7.25944213 3.16151074 -14.6629232 3.56809387 -22 3 C-22.66 2.34 -23.32 1.68 -24 1 C-15.98340366 -0.12513633 -8.07861415 -0.09579384 0 0 Z " fill="#4151A3" transform="translate(232,419)"/>
<path d="M0 0 C6.89072798 0.94606306 12.55766655 2.50473928 18 7 C18.99 8.485 18.99 8.485 20 10 C19.01 10.495 19.01 10.495 18 11 C18 10.34 18 9.68 18 9 C17.443125 8.8865625 16.88625 8.773125 16.3125 8.65625 C12.77261166 7.65168709 9.68559515 5.85951941 6.4375 4.15625 C4.26966961 3.1279202 2.34108569 2.47688783 0 2 C0 1.34 0 0.68 0 0 Z " fill="#499BC3" transform="translate(316,419)"/>
<path d="M0 0 C1.95803507 -0.05389087 3.91648909 -0.09274217 5.875 -0.125 C7.51082031 -0.15980469 7.51082031 -0.15980469 9.1796875 -0.1953125 C12 0 12 0 14 2 C14.33 2.66 14.66 3.32 15 4 C15.99 4 16.98 4 18 4 C17.979375 4.78375 17.95875 5.5675 17.9375 6.375 C17.81315937 8.98114961 17.81315937 8.98114961 19 11 C16 10 16 10 14.5625 7.5625 C12.82068391 4.70592161 12.02792424 4.21009406 9 3 C6.64435404 2.55188863 6.64435404 2.55188863 4.25 2.375 C3.45078125 2.30023438 2.6515625 2.22546875 1.828125 2.1484375 C1.22484375 2.09945313 0.6215625 2.05046875 0 2 C0 1.34 0 0.68 0 0 Z " fill="#6058B1" transform="translate(521,498)"/>
<path d="M0 0 C4.29 0 8.58 0 13 0 C8.5 3.375 8.5 3.375 4 3 C4 4.65 4 6.3 4 8 C3.01 8.495 3.01 8.495 2 9 C0.50178941 5.62902617 0 3.79557881 0 0 Z " fill="#824AB8" transform="translate(440,489)"/>
<path d="M0 0 C0.33 0 0.66 0 1 0 C0.91249445 2.22988284 0.80430939 4.45896005 0.6875 6.6875 C0.62949219 7.92886719 0.57148437 9.17023437 0.51171875 10.44921875 C-0.01559165 14.10818937 -0.7382369 16.10429856 -3 19 C-3.99 19.33 -4.98 19.66 -6 20 C-5.36757331 15.27497299 -4.08186437 11.09429803 -2.4375 6.625 C-2.20353516 5.98433594 -1.96957031 5.34367188 -1.72851562 4.68359375 C-1.15700381 3.1206839 -0.57915771 1.56009273 0 0 Z " fill="#3B97BB" transform="translate(818,509)"/>
<path d="M0 0 C0.33 0.66 0.66 1.32 1 2 C2.65 2 4.3 2 6 2 C5.01 2.495 5.01 2.495 4 3 C4.41474367 8.28798182 5.35224614 11.11690718 9 15 C8.67 15.66 8.34 16.32 8 17 C3.15360722 12.12223898 0.71912699 7.65030706 -1 1 C-0.67 0.67 -0.34 0.34 0 0 Z " fill="#6423A6" transform="translate(156,578)"/>
<path d="M0 0 C0.66 0 1.32 0 2 0 C1.54554036 1.41791408 1.08625056 2.83428046 0.625 4.25 C0.36976563 5.03890625 0.11453125 5.8278125 -0.1484375 6.640625 C-1 9 -1 9 -3 13 C-6.63 13 -10.26 13 -14 13 C-14.33 12.34 -14.66 11.68 -15 11 C-11.37 11 -7.74 11 -4 11 C-3.525625 9.55625 -3.05125 8.1125 -2.5625 6.625 C-1.80602983 4.32269949 -1.08391186 2.16782371 0 0 Z " fill="#46A8C5" transform="translate(858,529)"/>
<path d="M0 0 C0.70125 0.721875 1.4025 1.44375 2.125 2.1875 C3.0809285 3.12745198 4.03937128 4.06485215 5 5 C5.886875 5.86625 6.77375 6.7325 7.6875 7.625 C11.5435812 10.83334053 16.21000523 11.83563368 21 13 C19.2734375 14.09765625 19.2734375 14.09765625 17 15 C10.06105679 13.37250241 3.90883901 8.86325851 0 3 C0 2.01 0 1.02 0 0 Z " fill="#7946AE" transform="translate(388,527)"/>
<path d="M0 0 C3.96 0 7.92 0 12 0 C16.15178571 9.10714286 16.15178571 9.10714286 17 13 C16.34 13 15.68 13 15 13 C13.68 9.7 12.36 6.4 11 3 C9.55625 2.79375 8.1125 2.5875 6.625 2.375 C5.40683594 2.20097656 5.40683594 2.20097656 4.1640625 2.0234375 C3.44992187 2.01570313 2.73578125 2.00796875 2 2 C1.34 2.66 0.68 3.32 0 4 C0 2.68 0 1.36 0 0 Z " fill="#43A3C2" transform="translate(788,489)"/>
<path d="M0 0 C0.33 0 0.66 0 1 0 C1 2.97 1 5.94 1 9 C1.66 9 2.32 9 3 9 C3 11.31 3 13.62 3 16 C3.66 16 4.32 16 5 16 C5 16.66 5 17.32 5 18 C5.66 18.33 6.32 18.66 7 19 C6.34 19.99 5.68 20.98 5 22 C4.32591692 20.73308493 3.66099503 19.46129251 3 18.1875 C2.443125 17.12595703 2.443125 17.12595703 1.875 16.04296875 C1 14 1 14 1 11 C0.34 11 -0.32 11 -1 11 C-0.67 7.37 -0.34 3.74 0 0 Z " fill="#532A96" transform="translate(499,510)"/>
<path d="M0 0 C4.29 0 8.58 0 13 0 C13 0.66 13 1.32 13 2 C14.98 2 16.96 2 19 2 C19 2.33 19 2.66 19 3 C13.06 3 7.12 3 1 3 C0.67 2.01 0.34 1.02 0 0 Z " fill="#3070AF" transform="translate(283,419)"/>
<path d="M0 0 C-0.33 4.62 -0.66 9.24 -1 14 C-1.33 14 -1.66 14 -2 14 C-2 10.04 -2 6.08 -2 2 C-4.31 2.66 -6.62 3.32 -9 4 C-9.33 5.65 -9.66 7.3 -10 9 C-10.33 9 -10.66 9 -11 9 C-11 6.36 -11 3.72 -11 1 C-9.54182203 0.83197949 -8.0834516 0.66562857 -6.625 0.5 C-5.81289063 0.4071875 -5.00078125 0.314375 -4.1640625 0.21875 C-2 0 -2 0 0 0 Z " fill="#DF248A" transform="translate(642,477)"/>
<path d="M0 0 C6.20864044 1.55216011 11.87924651 4.70631581 15.3984375 10.171875 C16.34987114 12.07474227 17.18655792 14.03418164 18 16 C17.34 16 16.68 16 16 16 C14.921875 14.390625 14.921875 14.390625 13.75 12.25 C10.41165736 6.69264138 6.05297041 4.1363425 0 2 C0 1.34 0 0.68 0 0 Z " fill="#7A42AC" transform="translate(419,489)"/>
<path d="M0 0 C6.75 -0.125 6.75 -0.125 9 1 C9.6328125 3.06640625 9.6328125 3.06640625 10.125 5.5625 C10.29257812 6.38878906 10.46015625 7.21507812 10.6328125 8.06640625 C10.75398437 8.70449219 10.87515625 9.34257812 11 10 C10.34 10 9.68 10 9 10 C8.67 8.35 8.34 6.7 8 5 C7.34 5 6.68 5 6 5 C6 4.34 6 3.68 6 3 C3.03 2.505 3.03 2.505 0 2 C0 1.34 0 0.68 0 0 Z " fill="#636ABA" transform="translate(590,499)"/>
<path d="M0 0 C3.83386182 1.27795394 5.80826627 3.75703816 8.02734375 6.98046875 C9.67202834 10.39533596 9.32717412 13.27021502 9 17 C6.85188606 13.77782908 6.36206957 11.46300955 5.66015625 7.7421875 C5.44230469 7.16726563 5.22445313 6.59234375 5 6 C4.01 5.67 3.02 5.34 2 5 C0.8125 2.4375 0.8125 2.4375 0 0 Z " fill="#328DB8" transform="translate(335,429)"/>
<path d="M0 0 C0.66 0.33 1.32 0.66 2 1 C2 1.66 2 2.32 2 3 C3.62580966 2.88601335 5.25067157 2.75844341 6.875 2.625 C7.77992188 2.55539062 8.68484375 2.48578125 9.6171875 2.4140625 C12.17941903 2.20431868 12.17941903 2.20431868 14 0 C14.33 0.66 14.66 1.32 15 2 C14.01 3.485 14.01 3.485 13 5 C10.1796875 5.29296875 10.1796875 5.29296875 6.875 5.1875 C5.23144531 5.14689453 5.23144531 5.14689453 3.5546875 5.10546875 C2.71164062 5.07066406 1.86859375 5.03585937 1 5 C0.34 3.68 -0.32 2.36 -1 1 C-0.67 0.67 -0.34 0.34 0 0 Z " fill="#804BB1" transform="translate(461,537)"/>
<path d="M0 0 C5.16604015 1.08126422 7.17300255 2.96615909 10.01953125 7.1484375 C11.04563683 9.08618269 11.56134603 10.85861395 12 13 C11.34 13 10.68 13 10 13 C9.34 11.02 8.68 9.04 8 7 C7.01 7 6.02 7 5 7 C5 6.34 5 5.68 5 5 C4.34 5 3.68 5 3 5 C1.375 3.625 1.375 3.625 0 2 C0 1.34 0 0.68 0 0 Z " fill="#3B94BC" transform="translate(773,494)"/>
<path d="M0 0 C0.33 0 0.66 0 1 0 C1 4.95 1 9.9 1 15 C-2.96 15 -6.92 15 -11 15 C-11 14.67 -11 14.34 -11 14 C-7.7 13.67 -4.4 13.34 -1 13 C-0.67 8.71 -0.34 4.42 0 0 Z " fill="#6A71B8" transform="translate(683,527)"/>
<path d="M0 0 C2.97 0.33 5.94 0.66 9 1 C9 1.33 9 1.66 9 2 C8.03900391 2.09474609 8.03900391 2.09474609 7.05859375 2.19140625 C-0.01486312 3.19286438 -3.5354964 5.47111144 -8 11 C-8.33 10.34 -8.66 9.68 -9 9 C-4.56923077 3.21538462 -4.56923077 3.21538462 -1.6875 2.125 C-1.130625 2.08375 -0.57375 2.0425 0 2 C0 1.34 0 0.68 0 0 Z " fill="#256EAE" transform="translate(683,469)"/>
<path d="M0 0 C0.33 0 0.66 0 1 0 C1.19390729 2.31197155 1.37996367 4.6246029 1.5625 6.9375 C1.66691406 8.22527344 1.77132812 9.51304687 1.87890625 10.83984375 C1.91886719 11.88269531 1.95882812 12.92554688 2 14 C1 15 1 15 -1.06640625 15.09765625 C-1.89011719 15.08605469 -2.71382812 15.07445312 -3.5625 15.0625 C-4.38878906 15.05347656 -5.21507812 15.04445313 -6.06640625 15.03515625 C-6.70449219 15.02355469 -7.34257813 15.01195312 -8 15 C-8.33 14.34 -8.66 13.68 -9 13 C-6.03 13 -3.06 13 0 13 C0 8.71 0 4.42 0 0 Z " fill="#6760B3" transform="translate(611,527)"/>
<path d="M0 0 C0 4.0333534 -1.60879918 5.83517538 -4 9 C-4.66 9 -5.32 9 -6 9 C-6.66 10.98 -7.32 12.96 -8 15 C-8.66 14.67 -9.32 14.34 -10 14 C-7.3650056 8.12193556 -4.76515136 4.33195579 0 0 Z " fill="#5287BF" transform="translate(741,493)"/>
<path d="M0 0 C2 3 2 3 2 6 C5.3 6 8.6 6 12 6 C12.33 6.66 12.66 7.32 13 8 C11.02090602 8.02686553 9.04171029 8.04633375 7.0625 8.0625 C5.96035156 8.07410156 4.85820313 8.08570313 3.72265625 8.09765625 C1 8 1 8 0 7 C-0.04092937 4.66702567 -0.04241723 2.33294775 0 0 Z " fill="#6A84C0" transform="translate(707,534)"/>
<path d="M0 0 C0.66 0 1.32 0 2 0 C-0.89066059 9.59453303 -0.89066059 9.59453303 -4 13 C-5 10 -5 10 -4.00390625 7.51953125 C-3.52824219 6.62621094 -3.05257813 5.73289062 -2.5625 4.8125 C-2.08941406 3.91144531 -1.61632812 3.01039063 -1.12890625 2.08203125 C-0.75636719 1.39496094 -0.38382812 0.70789063 0 0 Z " fill="#4E2E99" transform="translate(490,496)"/>
<path d="M0 0 C0.66 0.33 1.32 0.66 2 1 C1.39254603 5.85963179 -0.72758967 9.7405518 -3 14 C-4.09898702 10.70303895 -3.87124444 9.59505097 -3.0625 6.3125 C-2.86785156 5.50425781 -2.67320312 4.69601562 -2.47265625 3.86328125 C-2.31667969 3.24839844 -2.16070313 2.63351562 -2 2 C-1.34 2 -0.68 2 0 2 C0 1.34 0 0.68 0 0 Z " fill="#1D92AD" transform="translate(821,506)"/>
<path d="M0 0 C0.66 0 1.32 0 2 0 C2 2.97 2 5.94 2 9 C-0.64 9 -3.28 9 -6 9 C-6.33 8.34 -6.66 7.68 -7 7 C-4.69 7 -2.38 7 0 7 C0 4.69 0 2.38 0 0 Z " fill="#5A81C2" transform="translate(671,482)"/>
<path d="M0 0 C1.98 0.495 1.98 0.495 4 1 C3.45276317 4.37462715 2.9451 6.08235 1 9 C0.34 8.67 -0.32 8.34 -1 8 C-1.08226668 4.95613276 -0.97608217 2.92824652 0 0 Z " fill="#307CB8" transform="translate(696,471)"/>
<path d="M0 0 C1.32 0.66 2.64 1.32 4 2 C3.360625 2.556875 2.72125 3.11375 2.0625 3.6875 C-0.27014252 6.30288707 -0.42387846 7.62557385 -1 11 C-2.5625 13.8125 -2.5625 13.8125 -4 16 C-5 14 -5 14 -4.00390625 10.7421875 C-3.53110016 9.4502948 -3.05028031 8.16131362 -2.5625 6.875 C-2.31951172 6.21628906 -2.07652344 5.55757813 -1.82617188 4.87890625 C-1.22421679 3.25008662 -0.61297588 1.62470425 0 0 Z " fill="#0F9FB2" transform="translate(827,490)"/>
<path d="M0 0 C4.62 0 9.24 0 14 0 C14 2.31 14 4.62 14 7 C13.34 7 12.68 7 12 7 C11.67 5.02 11.34 3.04 11 1 C7.37 1 3.74 1 0 1 C0 0.67 0 0.34 0 0 Z " fill="#EB1587" transform="translate(641,491)"/>
<path d="M0 0 C0.33 0 0.66 0 1 0 C1 2.64 1 5.28 1 8 C3.97 8 6.94 8 10 8 C10 8.33 10 8.66 10 9 C6.37 9.33 2.74 9.66 -1 10 C-1.125 2.25 -1.125 2.25 0 0 Z " fill="#F557B5" transform="translate(642,481)"/>
<path d="M0 0 C3.3 0 6.6 0 10 0 C9.67 0.99 9.34 1.98 9 3 C9 2.34 9 1.68 9 1 C6.69 1.66 4.38 2.32 2 3 C2 5.97 2 8.94 2 12 C1.01 12.495 1.01 12.495 0 13 C0 8.71 0 4.42 0 0 Z " fill="#2777B5" transform="translate(709,471)"/>
<path d="M0 0 C0.33 0 0.66 0 1 0 C1.16789126 2.43742131 1.33436133 4.87492546 1.5 7.3125 C1.54769531 8.00279297 1.59539063 8.69308594 1.64453125 9.40429688 C1.83879489 12.27662359 2 15.12013788 2 18 C1.34 18 0.68 18 0 18 C0 12.06 0 6.12 0 0 Z " fill="#3A5BA6" transform="translate(709,522)"/>
<path d="M0 0 C1.4540625 0.0309375 1.4540625 0.0309375 2.9375 0.0625 C3.2675 0.7225 3.5975 1.3825 3.9375 2.0625 C3.174375 2.31 2.41125 2.5575 1.625 2.8125 C-1.2989045 4.17245558 -2.36254356 5.37835826 -4.0625 8.0625 C-4.10491723 5.72955225 -4.10342937 3.39547433 -4.0625 1.0625 C-3.0625 0.0625 -3.0625 0.0625 0 0 Z " fill="#0AB4B4" transform="translate(865.0625,489.9375)"/>
<path d="M0 0 C0.66 0 1.32 0 2 0 C1.01 3.3 0.02 6.6 -1 10 C-1.66 9.34 -2.32 8.68 -3 8 C-2.64700993 4.55834679 -1.95418308 2.93127462 0 0 Z " fill="#1997B2" transform="translate(828,505)"/>
<path d="M0 0 C1.62818946 0.22830701 3.2526349 0.48343576 4.875 0.75 C6.23238281 0.95882813 6.23238281 0.95882813 7.6171875 1.171875 C10 2 10 2 11.3203125 4.078125 C11.54460937 4.71234375 11.76890625 5.3465625 12 6 C11.319375 5.71125 10.63875 5.4225 9.9375 5.125 C6.67106907 3.87402645 3.37153877 2.92552045 0 2 C0 1.34 0 0.68 0 0 Z " fill="#388DBC" transform="translate(316,419)"/>
<path d="M0 0 C0.99 0.99 1.98 1.98 3 3 C2.67 3.66 2.34 4.32 2 5 C1.77049681 7.204364 1.58924067 9.41392173 1.4375 11.625 C1.35371094 12.81351562 1.26992188 14.00203125 1.18359375 15.2265625 C1.12300781 16.14179687 1.06242188 17.05703125 1 18 C0.67 18 0.34 18 0 18 C0 12.06 0 6.12 0 0 Z " fill="#E80E7F" transform="translate(631,498)"/>
<path d="M0 0 C1.32 0.33 2.64 0.66 4 1 C4 4.3 4 7.6 4 11 C1.55160412 7.32740617 0 4.45351799 0 0 Z " fill="#30B0BA" transform="translate(832,508)"/>
<path d="M0 0 C-0.33 0.99 -0.66 1.98 -1 3 C-1.639375 3.12375 -2.27875 3.2475 -2.9375 3.375 C-3.618125 3.58125 -4.29875 3.7875 -5 4 C-6.29660434 6.49034386 -6.29660434 6.49034386 -7 9 C-7.66 8.34 -8.32 7.68 -9 7 C-3.65789474 0 -3.65789474 0 0 0 Z " fill="#6293C2" transform="translate(753,499)"/>
<path d="M0 0 C1.0326802 2.78823655 1.04509293 3.8677274 0.0625 6.75 C-0.288125 7.4925 -0.63875 8.235 -1 9 C-1.99 9 -2.98 9 -4 9 C-4 8.01 -4 7.02 -4 6 C-3.34 6 -2.68 6 -2 6 C-1.34 4.02 -0.68 2.04 0 0 Z " fill="#356FA9" transform="translate(735,502)"/>
<path d="M0 0 C0.99 0 1.98 0 3 0 C2.67 1.98 2.34 3.96 2 6 C3.65 6 5.3 6 7 6 C7 6.33 7 6.66 7 7 C4.69 7 2.38 7 0 7 C0 4.69 0 2.38 0 0 Z " fill="#335FAD" transform="translate(664,491)"/>
<path d="M0 0 C2.8249 1.41245 3.55088882 3.22778731 5 6 C5.6875 8.8125 5.6875 8.8125 6 11 C4.078125 10.2890625 4.078125 10.2890625 2 9 C1.171875 6.8359375 1.171875 6.8359375 0.75 4.375 C0.60046875 3.55773437 0.4509375 2.74046875 0.296875 1.8984375 C0.19890625 1.27195312 0.1009375 0.64546875 0 0 Z " fill="#277CB0" transform="translate(804,529)"/>
<path d="M0 0 C1.134375 0.020625 2.26875 0.04125 3.4375 0.0625 C3.4375 0.3925 3.4375 0.7225 3.4375 1.0625 C1.7875 1.0625 0.1375 1.0625 -1.5625 1.0625 C-1.5625 2.7125 -1.5625 4.3625 -1.5625 6.0625 C-2.5525 6.5575 -2.5525 6.5575 -3.5625 7.0625 C-3.94383299 5.0710944 -4.27575582 3.06970923 -4.5625 1.0625 C-3.5625 0.0625 -3.5625 0.0625 0 0 Z " fill="#7640AF" transform="translate(445.5625,490.9375)"/>
<path d="M0 0 C-0.33 1.65 -0.66 3.3 -1 5 C-2.65 3.35 -4.3 1.7 -6 0 C-3.50907189 -1.24546405 -2.58919267 -0.7767578 0 0 Z " fill="#5C5CA9" transform="translate(268,480)"/>
<path d="M0 0 C0.66 0 1.32 0 2 0 C2.33 1.32 2.66 2.64 3 4 C3.66 4 4.32 4 5 4 C5 5.32 5 6.64 5 8 C4.01 8 3.02 8 2 8 C1.34 5.36 0.68 2.72 0 0 Z " fill="#6D40AF" transform="translate(465,521)"/>
<path d="M0 0 C2.97 0 5.94 0 9 0 C9 0.33 9 0.66 9 1 C6.69 1.66 4.38 2.32 2 3 C1.67 4.65 1.34 6.3 1 8 C0.67 8 0.34 8 0 8 C0 5.36 0 2.72 0 0 Z " fill="#EA2E94" transform="translate(631,478)"/>
<path d="M0 0 C0.33 0.66 0.66 1.32 1 2 C1.66 2 2.32 2 3 2 C3.625 3.8125 3.625 3.8125 4 6 C3.01 7.485 3.01 7.485 2 9 C0 3.375 0 3.375 0 0 Z " fill="#16A9B3" transform="translate(838,498)"/>
<path d="M0 0 C0 0.33 0 0.66 0 1 C-1.258125 1.28875 -2.51625 1.5775 -3.8125 1.875 C-6.8539399 2.57303539 -8.30669878 3.20446585 -11 5 C-10.8125 3.125 -10.8125 3.125 -10 1 C-6.36806148 -1.11863081 -3.99237419 -1.14067834 0 0 Z " fill="#266DAB" transform="translate(694,477)"/>
<path d="M0 0 C3.08089673 2.77280706 4.68775452 5.06326356 6 9 C2.75700849 6.61042731 0.49097658 4.7952131 -1 1 C-0.67 0.67 -0.34 0.34 0 0 Z " fill="#6C35AD" transform="translate(159,586)"/>
<path d="M0 0 C1.65 0.33 3.3 0.66 5 1 C5 1.99 5 2.98 5 4 C4.34 4 3.68 4 3 4 C2.67 4.66 2.34 5.32 2 6 C0 4 0 4 -1 2 C-0.67 1.34 -0.34 0.68 0 0 Z " fill="#5A1C9F" transform="translate(461,534)"/>
<path d="M0 0 C2.0625 1.75 2.0625 1.75 4 4 C3.75 6.25 3.75 6.25 3 8 C0.4345406 5.4345406 0.45953913 3.52313332 0 0 Z " fill="#3A6AA7" transform="translate(733,521)"/>
<path d="M0 0 C1.32 0.33 2.64 0.66 4 1 C4 2.32 4 3.64 4 5 C2.68 4.67 1.36 4.34 0 4 C0 2.68 0 1.36 0 0 Z " fill="#E22C6F" transform="translate(647,492)"/>
<path d="" fill="#FFFFFF" transform="translate(0,0)"/>
<path d="" fill="#FFFFFF" transform="translate(0,0)"/>
<path d="" fill="#FFFFFF" transform="translate(0,0)"/>
</svg>
